<?xml version="1.0" encoding="UTF-8"?> <svg xmlns="http://www.w3.org/2000/svg" width="207" height="28" viewBox="0 0 207 28" fill="none"><g clip-path="url(#clip0)"><path d="M8.13927 12.8513C8.06432 12.7494 7.96527 12.6693 7.85173 12.6187C7.73819 12.5682 7.61401 12.549 7.49121 12.5629C7.36841 12.5769 7.25117 12.6235 7.15083 12.6983C7.0505 12.7731 6.97048 12.8736 6.91852 12.9899L0.72703 25.8441C0.670476 25.9611 0.643662 26.0911 0.649135 26.2219C0.654607 26.3527 0.692184 26.4799 0.758299 26.5913C0.824414 26.7028 0.916875 26.7949 1.02691 26.8589C1.13694 26.9228 1.26089 26.9565 1.387 26.9568H10.0085C10.1481 26.9596 10.2854 26.9198 10.4034 26.8424C10.5214 26.7649 10.6149 26.6533 10.6723 26.5212C12.5302 22.5612 11.4048 16.4747 8.13927 12.8513Z" fill="black"></path><path d="M12.6836 1.17726C11.1401 3.64204 10.2406 6.48111 10.0734 9.41574C9.90621 12.3504 10.477 15.2797 11.7299 17.9162L15.9071 26.5213C15.968 26.6491 16.062 26.7568 16.1786 26.8324C16.2951 26.9079 16.4297 26.9483 16.5671 26.9489H25.1886C25.3095 26.9386 25.4262 26.8985 25.5291 26.832C25.6321 26.7654 25.7183 26.6744 25.7805 26.5664C25.8428 26.4584 25.8794 26.3365 25.8873 26.2109C25.8951 26.0853 25.874 25.9595 25.8257 25.8441L13.9425 1.17726C13.8856 1.05409 13.7963 0.950131 13.6849 0.877366C13.5735 0.8046 13.4446 0.765991 13.313 0.765991C13.1814 0.765991 13.0525 0.8046 12.9411 0.877366C12.8298 0.950131 12.7405 1.05409 12.6836 1.17726Z" fill="black"></path><path d="M194.826 14.8789L201.086 26.9569H206.648V5.39862H202.223V19.3101L200.548 15.2749L195.52 5.39862H188.535V26.9569H192.96V10.5149L194.826 14.8789Z" fill="black"></path><path d="M160.39 5.39862H155.553V26.9569H160.39V5.39862Z" fill="black"></path><path d="M149.972 20.5812C149.972 16.8073 148.046 15.0372 142.606 13.8215C139.604 13.1324 138.879 12.4434 138.879 11.4455C138.879 10.1981 139.951 9.67139 141.931 9.67139C144.334 9.67139 146.707 10.4277 148.95 11.4771V6.54695C146.796 5.52884 144.45 5.02414 142.083 5.06987C136.708 5.06987 133.927 7.49735 133.927 11.4692C133.927 14.6372 135.35 17.1756 140.912 18.2923C144.231 19.013 144.929 19.5714 144.929 20.7198C144.929 21.8682 144.231 22.5572 141.877 22.5572C139.052 22.5037 136.283 21.727 133.816 20.2961V25.4797C135.491 26.3311 137.704 27.2815 141.828 27.2815C147.641 27.2815 149.949 24.5927 149.949 20.5891" fill="black"></path><path d="M129.835 20.5812C129.835 16.8073 127.928 15.0372 122.473 13.8215C119.471 13.1324 118.742 12.4434 118.742 11.4455C118.742 10.1981 119.818 9.67139 121.794 9.67139C124.197 9.67139 126.566 10.4277 128.809 11.4771V6.54695C126.655 5.52884 124.309 5.02414 121.943 5.06987C116.571 5.06987 113.786 7.49735 113.786 11.4692C113.786 14.6372 115.209 17.1756 120.775 18.2923C124.094 19.013 124.788 19.5714 124.788 20.7198C124.788 21.8682 124.094 22.5572 121.737 22.5572C118.911 22.5037 116.142 21.727 113.676 20.2961V25.4797C115.354 26.3311 117.567 27.2815 121.687 27.2815C127.505 27.2815 129.809 24.5927 129.809 20.5891" fill="black"></path><path d="M81.1099 22.2959V5.39862H76.2422V26.9569H86.1837L87.7477 22.2959H81.1099Z" fill="black"></path><path d="M66.8425 26.9569V10.0556H72.5952V5.39862H56.5996V10.0556H61.9747V26.9569H66.8425Z" fill="black"></path><path d="M49.5426 5.39862H43.1642L35.916 26.9569H41.4666L42.4966 23.3255C45.0246 24.0967 47.7128 24.0967 50.2407 23.3255L51.2669 26.9569H56.7985L49.5426 5.39862ZM46.3534 19.4408C45.4496 19.4421 44.5503 19.3088 43.683 19.0448L46.3534 9.63582L49.0238 19.0448C48.1565 19.3085 47.2572 19.4419 46.3534 19.4408Z" fill="black"></path><path d="M103.32 5.39862H96.9416L89.6934 26.9569H95.2249L96.2549 23.3255C98.7828 24.0967 101.471 24.0967 103.999 23.3255L105.025 26.9569H110.557L103.32 5.39862ZM100.131 19.4408C99.2269 19.4425 98.3276 19.3091 97.4604 19.0448L100.131 9.63582L102.801 19.0448C101.934 19.3092 101.035 19.4425 100.131 19.4408Z" fill="black"></path><path d="M177.816 5.39862H171.438L164.189 26.9569H169.721L170.747 23.3255C173.275 24.0967 175.963 24.0967 178.491 23.3255L179.517 26.9569H185.053L177.816 5.39862ZM174.627 19.4408C173.723 19.4419 172.824 19.3085 171.956 19.0448L174.627 9.63582L177.297 19.0448C176.43 19.3085 175.531 19.4419 174.627 19.4408Z" fill="black"></path></g><defs><clipPath id="clip0"><rect width="206" height="26.5156" fill="white" transform="translate(0.648438 0.765991)"></rect></clipPath></defs></svg> 