<?xml version="1.0" encoding="UTF-8"?> <svg xmlns="http://www.w3.org/2000/svg" width="202" height="29" viewBox="0 0 202 29" fill="none"><path d="M20.6033 20.4462C20.6033 25.0324 17.5748 28.2954 11.0152 28.2954H0.335938V0.829529H10.3041C15.8092 0.829529 18.617 4.09254 18.617 7.77949C18.617 10.7984 16.7043 12.3272 15.2452 13.0337C17.8691 13.8174 20.6033 16.2839 20.6033 20.4462ZM6.36832 6.32785V11.3894H9.74008C11.8735 11.3894 12.6214 10.2846 12.6214 8.71728C12.6214 7.18855 11.6896 6.32785 9.74008 6.32785H6.36832ZM14.5709 19.4313C14.5709 17.5043 13.3325 16.2197 10.3776 16.2197H6.36832V22.8099H10.6719C13.3325 22.8099 14.5709 21.3968 14.5709 19.4313Z" fill="black"></path><path d="M42.4623 7.89478V28.2953H36.5403V25.5847C36.3563 26.8436 34.1003 28.6807 31.0351 28.6807C27.0258 28.6807 21.9375 25.3406 21.9375 18.0437C21.9375 11.0165 27.0258 7.52222 31.0351 7.52222C34.1003 7.52222 36.3563 9.5263 36.5403 10.2714V7.89478H42.4623ZM36.81 18.0565C36.81 14.7549 34.6398 12.9949 32.1263 12.9949C29.6128 12.9949 27.6266 14.7549 27.6266 18.0565C27.6266 21.4737 29.6128 23.2337 32.1263 23.2337C34.6398 23.2337 36.81 21.4737 36.81 18.0565Z" fill="black"></path><path d="M62.9523 12.4035L58.4525 14.6389C57.4471 13.7781 56.6869 12.9945 54.6271 12.9945C52.3833 12.9945 50.0538 14.8059 50.0538 18.1331C50.0538 21.4347 52.3711 23.1562 54.6271 23.1562C56.6869 23.1562 57.4348 22.4496 58.4525 21.5889L63.0258 23.8242C61.0763 27.1258 58.195 28.616 54.5658 28.616C50.2254 28.616 44.377 25.3529 44.377 18.1331C44.377 11.029 50.2254 7.53467 54.5658 7.53467C58.1214 7.53467 61.0886 9.10196 62.9523 12.4035Z" fill="black"></path><path d="M72.2834 20.369L71.0451 21.7435V28.2951H65.123V0.559937H71.0451V14.177L76.5502 7.89518H83.6248L75.9127 16.4123L85.3536 28.308H78.6101L72.2834 20.369Z" fill="black"></path><path d="M123.522 14.5627C123.522 22.9258 117.306 28.6938 109.888 28.6938C102.47 28.6938 96.2539 22.9258 96.2539 14.5627C96.2539 6.19956 102.47 0.431458 109.888 0.431458C117.294 0.431458 123.522 6.19956 123.522 14.5627ZM117.257 14.5627C117.257 9.80943 114.106 6.36656 109.876 6.36656C105.646 6.36656 102.532 9.82228 102.532 14.5627C102.532 19.3159 105.646 22.7587 109.876 22.7587C114.106 22.7587 117.257 19.3159 117.257 14.5627Z" fill="black"></path><path d="M148.351 7.26564V7.89513H152.397V12.9952H148.351V28.2955H142.392V12.9952H133.662V28.2955H127.704V12.9952H125.043V7.89513H127.704V7.26564C127.704 0.945139 132.24 0.161499 134.594 0.161499C136.47 0.161499 138.297 0.598282 139.683 1.53608L137.709 5.81398C136.617 5.3772 136.213 5.26158 135.305 5.26158C133.626 5.26158 133.662 6.8674 133.662 7.26564V7.89513H142.392V7.26564C142.392 0.945139 146.929 0.161499 149.283 0.161499C151.159 0.161499 152.986 0.598282 154.371 1.53608L152.397 5.81398C151.306 5.3772 150.901 5.26158 149.994 5.26158C148.314 5.26158 148.351 6.8674 148.351 7.26564Z" fill="black"></path><path d="M161.457 6.40512H155.535V0.559937H161.457V6.40512ZM161.457 28.2956H155.535V7.89532H161.457V28.2956Z" fill="black"></path><path d="M181.982 12.4035L177.482 14.6389C176.476 13.7781 175.716 12.9945 173.656 12.9945C171.413 12.9945 169.083 14.8059 169.083 18.1331C169.083 21.4347 171.4 23.1562 173.656 23.1562C175.716 23.1562 176.464 22.4496 177.482 21.5889L182.055 23.8242C180.106 27.1258 177.224 28.616 173.595 28.616C169.255 28.616 163.406 25.3529 163.406 18.1331C163.406 11.029 169.255 7.53467 173.595 7.53467C177.151 7.53467 180.106 9.10196 181.982 12.4035Z" fill="black"></path><path d="M201.489 20.2533H188.002C188.676 22.373 190.356 23.465 192.686 23.465C195.089 23.465 195.837 22.9126 197.185 22.3216L200.447 25.6232C198.718 27.3832 196.401 28.6807 192.465 28.6807C187.671 28.6807 182.129 25.1864 182.129 18.1593C182.129 11.0165 187.744 7.52222 192.134 7.52222C196.548 7.53506 202.727 11.0294 201.489 20.2533ZM188.125 15.8983H196.254C195.653 13.8556 193.814 12.8407 192.134 12.8407C190.454 12.8407 188.799 13.8556 188.125 15.8983Z" fill="black"></path></svg> 