<svg xmlns="http://www.w3.org/2000/svg" viewBox="0 0 500 500"><g id="freepik--background-complete--inject-235"><g><g id="freepik--freepik--background-complete--inject-481--inject-235"><g><polygon points="446.82 253.63 446.82 205.65 417.11 205.65 417.11 216.59 397.31 216.59 397.31 96.74 359.24 96.74 359.24 143.91 347.81 143.91 347.81 120.35 318.11 120.35 318.11 235.24 276.22 235.24 276.22 194.65 249.95 194.65 249.95 106.64 217.54 106.64 217.54 165.31 187.07 165.31 187.07 291.7 163.46 291.7 163.46 230.16 139.09 230.16 139.09 190.55 113.2 190.55 113.2 160.15 84.31 175.39 84.31 256.73 53.84 256.73 53.84 239.95 13.14 239.95 13.14 391.04 486.86 391.27 486.86 253.63 446.82 253.63" style="fill:#f0f0f0;"></polygon><rect x="224.95" y="117.03" width="9.49" height="10.87" style="fill:#fafafa;"></rect><rect x="224.95" y="135.26" width="9.49" height="10.87" style="fill:#fafafa;"></rect><rect x="224.95" y="153.49" width="9.49" height="10.87" style="fill:#fafafa;"></rect><rect x="224.95" y="171.72" width="9.49" height="10.87" style="fill:#fafafa;"></rect><rect x="224.95" y="189.94" width="9.49" height="10.87" style="fill:#fafafa;"></rect><rect x="224.95" y="208.18" width="9.49" height="10.87" style="fill:#fafafa;"></rect><rect x="224.95" y="226.4" width="9.49" height="10.87" style="fill:#fafafa;"></rect><rect x="224.95" y="244.64" width="9.49" height="10.87" style="fill:#fafafa;"></rect><rect x="367.43" y="102.48" width="9.49" height="10.87" style="fill:#fafafa;"></rect><rect x="367.43" y="120.7" width="9.49" height="10.87" style="fill:#fafafa;"></rect><rect x="367.43" y="138.94" width="9.49" height="10.87" style="fill:#fafafa;"></rect><rect x="367.43" y="157.16" width="9.49" height="10.87" style="fill:#fafafa;"></rect><rect x="367.43" y="175.4" width="9.49" height="10.87" style="fill:#fafafa;"></rect><rect x="367.43" y="193.62" width="9.49" height="10.87" style="fill:#fafafa;"></rect><rect x="367.43" y="211.86" width="9.49" height="10.87" style="fill:#fafafa;"></rect><rect x="367.43" y="230.08" width="9.49" height="10.87" style="fill:#fafafa;"></rect></g><g><path d="M192.53,391.12V216.31h-37.74v174.79l37.74,.02Z" style="fill:#e0e0e0;"></path><rect x="157.66" y="221.86" width="4.57" height="9.44" style="fill:#fafafa;"></rect><rect x="166.81" y="221.86" width="4.57" height="9.44" style="fill:#fafafa;"></rect><rect x="175.96" y="221.86" width="4.57" height="9.44" style="fill:#fafafa;"></rect><rect x="185.11" y="221.86" width="4.57" height="9.44" style="fill:#fafafa;"></rect><rect x="157.66" y="237.69" width="4.57" height="9.44" style="fill:#fafafa;"></rect><rect x="166.81" y="237.69" width="4.57" height="9.44" style="fill:#fafafa;"></rect><rect x="175.96" y="237.69" width="4.57" height="9.44" style="fill:#fafafa;"></rect><rect x="185.11" y="237.69" width="4.57" height="9.44" style="fill:#fafafa;"></rect><rect x="157.66" y="253.51" width="4.57" height="9.44" style="fill:#fafafa;"></rect><rect x="166.81" y="253.51" width="4.57" height="9.44" style="fill:#fafafa;"></rect><rect x="175.96" y="253.51" width="4.57" height="9.44" style="fill:#fafafa;"></rect><rect x="185.11" y="253.51" width="4.57" height="9.44" style="fill:#fafafa;"></rect><rect x="157.66" y="269.33" width="4.57" height="9.44" style="fill:#fafafa;"></rect><rect x="166.81" y="269.33" width="4.57" height="9.44" style="fill:#fafafa;"></rect><rect x="175.96" y="269.33" width="4.57" height="9.44" style="fill:#fafafa;"></rect><rect x="185.11" y="269.33" width="4.57" height="9.44" style="fill:#fafafa;"></rect><rect x="157.66" y="285.14" width="4.57" height="9.44" style="fill:#fafafa;"></rect><rect x="166.81" y="285.14" width="4.57" height="9.44" style="fill:#fafafa;"></rect><rect x="175.96" y="285.14" width="4.57" height="9.44" style="fill:#fafafa;"></rect><rect x="185.11" y="285.14" width="4.57" height="9.44" style="fill:#fafafa;"></rect><rect x="157.66" y="300.96" width="4.57" height="9.44" style="fill:#fafafa;"></rect><rect x="166.81" y="300.96" width="4.57" height="9.44" style="fill:#fafafa;"></rect><rect x="175.96" y="300.96" width="4.57" height="9.44" style="fill:#fafafa;"></rect><rect x="185.11" y="300.96" width="4.57" height="9.44" style="fill:#fafafa;"></rect><rect x="157.66" y="316.78" width="4.57" height="9.44" style="fill:#fafafa;"></rect><rect x="166.81" y="316.78" width="4.57" height="9.44" style="fill:#fafafa;"></rect><rect x="175.96" y="316.78" width="4.57" height="9.44" style="fill:#fafafa;"></rect><rect x="185.11" y="316.78" width="4.57" height="9.44" style="fill:#fafafa;"></rect><rect x="157.66" y="332.61" width="4.57" height="9.44" style="fill:#fafafa;"></rect><rect x="166.81" y="332.61" width="4.57" height="9.44" style="fill:#fafafa;"></rect><rect x="175.96" y="332.61" width="4.57" height="9.44" style="fill:#fafafa;"></rect><rect x="185.11" y="332.61" width="4.57" height="9.44" style="fill:#fafafa;"></rect></g><g><path d="M323.67,391.19V196.14h-78.24v195.1s77.64,.02,78.24-.05Z" style="fill:#e6e6e6;"></path><rect x="251.3" y="202.59" width="9.49" height="10.87" style="fill:#e0e0e0;"></rect><rect x="270.28" y="202.59" width="9.49" height="10.87" style="fill:#e0e0e0;"></rect><rect x="289.25" y="202.59" width="9.49" height="10.87" style="fill:#e0e0e0;"></rect><rect x="308.24" y="202.59" width="9.49" height="10.87" style="fill:#e0e0e0;"></rect><rect x="251.3" y="220.83" width="9.49" height="10.87" style="fill:#e0e0e0;"></rect><rect x="270.28" y="220.83" width="9.49" height="10.87" style="fill:#e0e0e0;"></rect><rect x="289.25" y="220.83" width="9.49" height="10.87" style="fill:#e0e0e0;"></rect><rect x="308.24" y="220.83" width="9.49" height="10.87" style="fill:#e0e0e0;"></rect><rect x="251.3" y="239.05" width="9.49" height="10.87" style="fill:#e0e0e0;"></rect><rect x="270.28" y="239.05" width="9.49" height="10.87" style="fill:#e0e0e0;"></rect><rect x="289.25" y="239.05" width="9.49" height="10.87" style="fill:#e0e0e0;"></rect><rect x="308.24" y="239.05" width="9.49" height="10.87" style="fill:#e0e0e0;"></rect><rect x="251.3" y="257.28" width="9.49" height="10.87" style="fill:#e0e0e0;"></rect><rect x="270.28" y="257.28" width="9.49" height="10.87" style="fill:#e0e0e0;"></rect><rect x="289.25" y="257.28" width="9.49" height="10.87" style="fill:#e0e0e0;"></rect><rect x="308.24" y="257.28" width="9.49" height="10.87" style="fill:#e0e0e0;"></rect><rect x="251.3" y="275.51" width="9.49" height="10.87" style="fill:#e0e0e0;"></rect><rect x="270.28" y="275.51" width="9.49" height="10.87" style="fill:#e0e0e0;"></rect><rect x="289.25" y="275.51" width="9.49" height="10.87" style="fill:#e0e0e0;"></rect><rect x="308.24" y="275.51" width="9.49" height="10.87" style="fill:#e0e0e0;"></rect><rect x="251.3" y="293.74" width="9.49" height="10.87" style="fill:#e0e0e0;"></rect><rect x="270.28" y="293.74" width="9.49" height="10.87" style="fill:#e0e0e0;"></rect><rect x="289.25" y="293.74" width="9.49" height="10.87" style="fill:#e0e0e0;"></rect><rect x="308.24" y="293.74" width="9.49" height="10.87" style="fill:#e0e0e0;"></rect><rect x="251.3" y="311.97" width="9.49" height="10.87" style="fill:#e0e0e0;"></rect><rect x="270.28" y="311.97" width="9.49" height="10.87" style="fill:#e0e0e0;"></rect><rect x="289.25" y="311.97" width="9.49" height="10.87" style="fill:#e0e0e0;"></rect><rect x="308.24" y="311.97" width="9.49" height="10.87" style="fill:#e0e0e0;"></rect><rect x="251.3" y="330.2" width="9.49" height="10.87" style="fill:#e0e0e0;"></rect><rect x="270.28" y="330.2" width="9.49" height="10.87" style="fill:#e0e0e0;"></rect><rect x="289.25" y="330.2" width="9.49" height="10.87" style="fill:#e0e0e0;"></rect><rect x="308.24" y="330.2" width="9.49" height="10.87" style="fill:#e0e0e0;"></rect></g><g><path d="M141.08,391.1V182.5h-32.37v208.77c10.24-.25,32.37-.17,32.37-.17Z" style="fill:#e6e6e6;"></path><rect x="113.5" y="186.36" width="9.49" height="10.87" style="fill:#fafafa;"></rect><rect x="113.5" y="204.59" width="9.49" height="10.87" style="fill:#fafafa;"></rect><rect x="113.5" y="222.83" width="9.49" height="10.87" style="fill:#fafafa;"></rect><rect x="113.5" y="241.05" width="9.49" height="10.87" style="fill:#fafafa;"></rect><rect x="113.5" y="259.27" width="9.49" height="10.87" style="fill:#fafafa;"></rect><rect x="113.5" y="277.51" width="9.49" height="10.87" style="fill:#fafafa;"></rect><rect x="113.5" y="295.74" width="9.49" height="10.87" style="fill:#fafafa;"></rect><rect x="113.5" y="313.97" width="9.49" height="10.87" style="fill:#fafafa;"></rect><rect x="126.19" y="186.36" width="9.49" height="10.87" style="fill:#fafafa;"></rect><rect x="126.19" y="204.59" width="9.49" height="10.87" style="fill:#fafafa;"></rect><rect x="126.19" y="222.83" width="9.49" height="10.87" style="fill:#fafafa;"></rect><rect x="126.19" y="241.05" width="9.49" height="10.87" style="fill:#fafafa;"></rect><rect x="126.19" y="259.27" width="9.49" height="10.87" style="fill:#fafafa;"></rect><rect x="126.19" y="277.51" width="9.49" height="10.87" style="fill:#fafafa;"></rect><rect x="126.19" y="295.74" width="9.49" height="10.87" style="fill:#fafafa;"></rect><rect x="126.19" y="313.97" width="9.49" height="10.87" style="fill:#fafafa;"></rect></g><g><rect x="393.98" y="186.22" width="57.13" height="205.05" style="fill:#e6e6e6;"></rect><rect x="402.43" y="194.69" width="16.74" height="10.87" style="fill:#fafafa;"></rect><rect x="402.43" y="212.93" width="16.74" height="10.87" style="fill:#fafafa;"></rect><rect x="402.43" y="231.16" width="16.74" height="10.87" style="fill:#fafafa;"></rect><rect x="402.43" y="249.39" width="16.74" height="10.87" style="fill:#fafafa;"></rect><rect x="402.43" y="267.62" width="16.74" height="10.87" style="fill:#fafafa;"></rect><rect x="402.43" y="285.84" width="16.74" height="10.87" style="fill:#fafafa;"></rect><rect x="402.43" y="304.08" width="16.74" height="10.87" style="fill:#fafafa;"></rect><rect x="402.43" y="322.3" width="16.74" height="10.87" style="fill:#fafafa;"></rect><rect x="424.83" y="194.69" width="16.74" height="10.87" style="fill:#fafafa;"></rect><rect x="424.83" y="212.93" width="16.74" height="10.87" style="fill:#fafafa;"></rect><rect x="424.83" y="231.16" width="16.74" height="10.87" style="fill:#fafafa;"></rect><rect x="424.83" y="249.39" width="16.74" height="10.87" style="fill:#fafafa;"></rect><rect x="424.83" y="267.62" width="16.74" height="10.87" style="fill:#fafafa;"></rect><rect x="424.83" y="285.84" width="16.74" height="10.87" style="fill:#fafafa;"></rect><rect x="424.83" y="304.08" width="16.74" height="10.87" style="fill:#fafafa;"></rect><rect x="424.83" y="322.3" width="16.74" height="10.87" style="fill:#fafafa;"></rect></g><g><path d="M356.6,391.2V239.05h-24.92v152.14h24.92Z" style="fill:#e0e0e0;"></path><rect x="333.57" y="243.87" width="3.02" height="8.1" style="fill:#fafafa;"></rect><rect x="339.62" y="243.87" width="3.02" height="8.1" style="fill:#fafafa;"></rect><rect x="345.65" y="243.87" width="3.02" height="8.1" style="fill:#fafafa;"></rect><rect x="351.69" y="243.87" width="3.02" height="8.1" style="fill:#fafafa;"></rect><rect x="333.57" y="257.46" width="3.02" height="8.1" style="fill:#fafafa;"></rect><rect x="339.62" y="257.46" width="3.02" height="8.1" style="fill:#fafafa;"></rect><rect x="345.65" y="257.46" width="3.02" height="8.1" style="fill:#fafafa;"></rect><rect x="351.69" y="257.46" width="3.02" height="8.1" style="fill:#fafafa;"></rect><rect x="333.57" y="271.05" width="3.02" height="8.1" style="fill:#fafafa;"></rect><rect x="339.62" y="271.05" width="3.02" height="8.1" style="fill:#fafafa;"></rect><rect x="345.65" y="271.05" width="3.02" height="8.1" style="fill:#fafafa;"></rect><rect x="351.69" y="271.05" width="3.02" height="8.1" style="fill:#fafafa;"></rect><rect x="333.57" y="284.64" width="3.02" height="8.1" style="fill:#fafafa;"></rect><rect x="339.62" y="284.64" width="3.02" height="8.1" style="fill:#fafafa;"></rect><rect x="345.65" y="284.64" width="3.02" height="8.1" style="fill:#fafafa;"></rect><rect x="351.69" y="284.64" width="3.02" height="8.1" style="fill:#fafafa;"></rect><rect x="333.57" y="298.24" width="3.02" height="8.1" style="fill:#fafafa;"></rect><rect x="339.62" y="298.24" width="3.02" height="8.1" style="fill:#fafafa;"></rect><rect x="345.65" y="298.24" width="3.02" height="8.1" style="fill:#fafafa;"></rect><rect x="351.69" y="298.24" width="3.02" height="8.1" style="fill:#fafafa;"></rect><rect x="333.57" y="311.83" width="3.02" height="8.1" style="fill:#fafafa;"></rect><rect x="339.62" y="311.83" width="3.02" height="8.1" style="fill:#fafafa;"></rect><rect x="345.65" y="311.83" width="3.02" height="8.1" style="fill:#fafafa;"></rect><rect x="351.69" y="311.83" width="3.02" height="8.1" style="fill:#fafafa;"></rect><rect x="333.57" y="325.42" width="3.02" height="8.1" style="fill:#fafafa;"></rect><rect x="339.62" y="325.42" width="3.02" height="8.1" style="fill:#fafafa;"></rect><rect x="345.65" y="325.42" width="3.02" height="8.1" style="fill:#fafafa;"></rect><rect x="351.69" y="325.42" width="3.02" height="8.1" style="fill:#fafafa;"></rect><rect x="333.57" y="339.01" width="3.02" height="8.1" style="fill:#fafafa;"></rect><rect x="339.62" y="339.01" width="3.02" height="8.1" style="fill:#fafafa;"></rect><rect x="345.65" y="339.01" width="3.02" height="8.1" style="fill:#fafafa;"></rect><rect x="351.69" y="339.01" width="3.02" height="8.1" style="fill:#fafafa;"></rect></g><g><path d="M111.6,391.27v-129.66H44.98v129.44l66.61,.21Z" style="fill:#fafafa;"></path><rect x="50.03" y="265.64" width="8.08" height="6.8" style="fill:#e0e0e0;"></rect><rect x="66.18" y="265.64" width="8.08" height="6.8" style="fill:#e0e0e0;"></rect><rect x="82.32" y="265.64" width="8.08" height="6.8" style="fill:#e0e0e0;"></rect><rect x="98.48" y="265.64" width="8.08" height="6.8" style="fill:#e0e0e0;"></rect><rect x="50.03" y="277.04" width="8.08" height="6.8" style="fill:#e0e0e0;"></rect><rect x="66.18" y="277.04" width="8.08" height="6.8" style="fill:#e0e0e0;"></rect><rect x="82.32" y="277.04" width="8.08" height="6.8" style="fill:#e0e0e0;"></rect><rect x="98.48" y="277.04" width="8.08" height="6.8" style="fill:#e0e0e0;"></rect><rect x="50.03" y="288.44" width="8.08" height="6.8" style="fill:#e0e0e0;"></rect><rect x="66.18" y="288.44" width="8.08" height="6.8" style="fill:#e0e0e0;"></rect><rect x="82.32" y="288.44" width="8.08" height="6.8" style="fill:#e0e0e0;"></rect><rect x="98.48" y="288.44" width="8.08" height="6.8" style="fill:#e0e0e0;"></rect><rect x="50.03" y="299.84" width="8.08" height="6.8" style="fill:#e0e0e0;"></rect><rect x="66.18" y="299.84" width="8.08" height="6.8" style="fill:#e0e0e0;"></rect><rect x="82.32" y="299.84" width="8.08" height="6.8" style="fill:#e0e0e0;"></rect><rect x="98.48" y="299.84" width="8.08" height="6.8" style="fill:#e0e0e0;"></rect><rect x="50.03" y="311.23" width="8.08" height="6.8" style="fill:#e0e0e0;"></rect><rect x="66.18" y="311.23" width="8.08" height="6.8" style="fill:#e0e0e0;"></rect><rect x="82.32" y="311.23" width="8.08" height="6.8" style="fill:#e0e0e0;"></rect><rect x="98.48" y="311.23" width="8.08" height="6.8" style="fill:#e0e0e0;"></rect><rect x="50.03" y="322.63" width="8.08" height="6.8" style="fill:#e0e0e0;"></rect><rect x="66.18" y="322.63" width="8.08" height="6.8" style="fill:#e0e0e0;"></rect><rect x="82.32" y="322.63" width="8.08" height="6.8" style="fill:#e0e0e0;"></rect><rect x="98.48" y="322.63" width="8.08" height="6.8" style="fill:#e0e0e0;"></rect><rect x="50.03" y="334.03" width="8.08" height="6.8" style="fill:#e0e0e0;"></rect><rect x="66.18" y="334.03" width="8.08" height="6.8" style="fill:#e0e0e0;"></rect><rect x="82.32" y="334.03" width="8.08" height="6.8" style="fill:#e0e0e0;"></rect><rect x="98.48" y="334.03" width="8.08" height="6.8" style="fill:#e0e0e0;"></rect></g></g><g><path d="M85.79,372.29c-1.98-1.86-6.19,5.35-6.19,5.35,0,0,4.53-15.72-.01-15.77-4.54-.05-4.77,13.41-4.77,13.41,0,0-1.46-26.76-7.37-24.64-5.91,2.12,2.71,26,2.71,26,0,0-7.64-16.98-10.57-13.64-2.93,3.34,6.72,17.54,6.72,17.54,0,0-7.05-4.56-6.59-1.31,.46,3.25,15.74,11.74,15.74,11.74,4.89-5.79,12.3-16.82,10.32-18.68Z" style="fill:#e6e6e6;"></path><g><path d="M75.5,391.38c-.12,0-.22-.08-.24-.2-.02-.12-2.42-11.53-3.78-19.23-.02-.14,.07-.27,.2-.29,.13-.03,.27,.07,.29,.2,1.36,7.69,3.75,19.1,3.78,19.22,.03,.14-.06,.27-.19,.3-.02,0-.03,0-.05,0Z" style="fill:#e0e0e0;"></path><path d="M73.92,383.81c-.07,0-.15-.03-.19-.09l-4.67-5.8c-.09-.11-.07-.27,.04-.35,.11-.09,.26-.07,.35,.04l4.67,5.8c.09,.11,.07,.27-.04,.35-.05,.04-.1,.06-.16,.06Z" style="fill:#e0e0e0;"></path></g></g><g><path d="M465.98,375.45c-1.45-2.31-7.34,3.61-7.34,3.61,0,0,8.36-14.06,3.98-15.26-4.38-1.2-8.01,11.77-8.01,11.77,0,0,5.36-26.26-.89-25.71-6.25,.55-3.95,25.84-3.95,25.84,0,0-3.1-18.36-6.77-15.87s2.07,18.67,2.07,18.67c0,0-5.67-6.19-6.05-2.93-.38,3.26,12.26,15.34,12.26,15.34,6.2-4.37,16.15-13.16,14.71-15.46Z" style="fill:#e0e0e0;"></path><g><path d="M451.27,391.32h-.01c-.14,0-.24-.12-.24-.26,0-.12,.58-11.77,1.21-19.56,.01-.14,.14-.25,.27-.23,.14,.01,.24,.13,.23,.27-.63,7.79-1.2,19.43-1.21,19.55,0,.13-.12,.24-.25,.24Z" style="fill:#e0e0e0;"></path><path d="M451.65,383.61c-.1,0-.19-.05-.23-.15l-3.05-6.79c-.06-.13,0-.27,.12-.33,.12-.06,.27,0,.33,.12l3.05,6.79c.06,.13,0,.27-.12,.33-.03,.02-.07,.02-.1,.02Z" style="fill:#e0e0e0;"></path></g></g><path d="M321.27,59.43c-1.51-1.14-3.72-1.27-5.36-.31-2.17-4.39-8.23-6.33-12.55-4.02-1.13-4.73-5.79-8.37-10.66-8.31-4.87,.06-9.44,3.81-10.45,8.57-.16,.76-.27,1.59-.81,2.14-.88,.9-2.35,.6-3.6,.5-3.94-.31-7.91,2.46-8.98,6.26l54.27-.2c.48-1.84-.34-3.48-1.86-4.63Z" style="fill:#e0e0e0;"></path><path d="M476.32,131.81c-1.51-1.14-3.72-1.27-5.36-.31-2.17-4.39-8.23-6.33-12.55-4.02-1.13-4.73-5.79-8.37-10.66-8.31-4.87,.06-9.44,3.81-10.45,8.57-.16,.76-.27,1.59-.81,2.14-.88,.9-2.35,.6-3.6,.5-3.94-.31-7.91,2.46-8.98,6.26l54.27-.2c.48-1.84-.34-3.48-1.86-4.63Z" style="fill:#f0f0f0;"></path><path d="M431.85,74.81c-1.26-.96-3.11-1.06-4.48-.26-1.82-3.67-6.87-5.29-10.48-3.35-.94-3.95-4.84-6.99-8.9-6.94-4.06,.05-7.88,3.18-8.73,7.15-.13,.63-.22,1.32-.67,1.78-.73,.75-1.96,.5-3.01,.42-3.29-.26-6.6,2.05-7.5,5.23l45.32-.16c.4-1.53-.29-2.91-1.55-3.86Z" style="fill:#f5f5f5;"></path><path d="M176.57,53.84c-1.26-.96-3.11-1.06-4.48-.26-1.82-3.67-6.87-5.29-10.48-3.35-.94-3.95-4.84-6.99-8.9-6.94-4.06,.05-7.88,3.18-8.73,7.15-.13,.63-.22,1.32-.68,1.78-.73,.75-1.96,.5-3.01,.42-3.29-.26-6.6,2.05-7.5,5.23l45.32-.16c.4-1.53-.29-2.91-1.55-3.86Z" style="fill:#f5f5f5;"></path><path d="M127.84,109.72c-2.25-1.7-5.53-1.89-7.96-.47-3.23-6.52-12.23-9.4-18.64-5.97-1.67-7.03-8.6-12.43-15.83-12.35-7.23,.09-14.02,5.66-15.53,12.72-.24,1.12-.4,2.35-1.2,3.17-1.31,1.33-3.48,.89-5.34,.74-5.85-.46-11.74,3.65-13.33,9.3l80.59-.29c.71-2.73-.51-5.17-2.76-6.87Z" style="fill:#f0f0f0;"></path></g><g><g><g><path d="M443.92,330.2h-180.75c-3.23,0-5.86-2.63-5.86-5.86V61.06c0-3.23,2.63-5.86,5.86-5.86h180.75c3.23,0,5.86,2.63,5.86,5.86V324.34c0,3.23-2.63,5.86-5.86,5.86ZM263.17,55.45c-3.09,0-5.61,2.52-5.61,5.61V324.34c0,3.09,2.52,5.61,5.61,5.61h180.75c3.09,0,5.61-2.52,5.61-5.61V61.06c0-3.09-2.52-5.61-5.61-5.61h-180.75Z" style="fill:#e0e0e0;"></path><path d="M235.49,330.2H54.75c-3.23,0-5.86-2.63-5.86-5.86V61.06c0-3.23,2.63-5.86,5.86-5.86H235.49c3.23,0,5.86,2.63,5.86,5.86V324.34c0,3.23-2.63,5.86-5.86,5.86ZM54.75,55.45c-3.09,0-5.61,2.52-5.61,5.61V324.34c0,3.09,2.52,5.61,5.61,5.61H235.49c3.09,0,5.61-2.52,5.61-5.61V61.06c0-3.09-2.52-5.61-5.61-5.61H54.75Z" style="fill:#e0e0e0;"></path></g><rect x="0" y="391.27" width="500" height=".25" style="fill:#e0e0e0;"></rect></g><rect x="51.67" y="405.53" width="16.06" height=".25" style="fill:#e0e0e0;"></rect><rect x="170.35" y="402.82" width="53.53" height=".25" style="fill:#e0e0e0;"></rect><rect x="68.73" y="414.82" width="36.25" height=".25" style="fill:#e0e0e0;"></rect><rect x="378.35" y="402.69" width="43.19" height=".25" style="fill:#e0e0e0;"></rect><rect x="430.45" y="402.69" width="6.33" height=".25" style="fill:#e0e0e0;"></rect><rect x="316.21" y="408.92" width="53.89" height=".25" style="fill:#e0e0e0;"></rect></g></g><g id="freepik--Shadow--inject-235"><path d="M458.88,448.39c0,3.39-93.52,6.13-208.88,6.13s-208.88-2.75-208.88-6.13,93.52-6.13,208.88-6.13,208.88,2.75,208.88,6.13Z" style="fill:#f5f5f5;"></path></g><g id="freepik--Speech_Bubble--inject-235"><g><g><path d="M365.27,133.11c5.74-9.88,2.39-22.54-7.49-28.28-9.88-5.74-22.54-2.39-28.28,7.49-4.43,7.63-3.42,16.9,1.8,23.37l-1.01,6.13,6.41-1.41c.1,.06,.19,.13,.29,.19,9.88,5.74,22.54,2.39,28.28-7.49Z" style="fill:#34A853;"></path><path d="M370.59,122.63h-.02c-.14-.01-.24-.13-.23-.27,.48-6.6-2.65-13.42-7.95-17.37-.11-.08-.13-.24-.05-.35,.08-.11,.24-.13,.35-.05,5.44,4.05,8.64,11.04,8.15,17.81,0,.13-.12,.23-.25,.23Z" style="fill:#34A853;"></path><path d="M369.64,128.69s-.07,0-.1-.02c-.13-.06-.18-.2-.13-.33,.39-.9,.6-1.9,.6-2.89,0-.14,.11-.25,.25-.25h0c.14,0,.25,.11,.25,.25,0,1.06-.22,2.13-.64,3.09-.04,.09-.13,.15-.23,.15Z" style="fill:#34A853;"></path></g><g style="opacity:.4;"><path d="M365.27,133.11c5.74-9.88,2.39-22.54-7.49-28.28-9.88-5.74-22.54-2.39-28.28,7.49-4.43,7.63-3.42,16.9,1.8,23.37l-1.01,6.13,6.41-1.41c.1,.06,.19,.13,.29,.19,9.88,5.74,22.54,2.39,28.28-7.49Z" style="fill:#fff;"></path></g><path d="M345.44,132.8c-.52-.5-.78-1.11-.78-1.84s.26-1.32,.77-1.81c.51-.48,1.17-.73,1.96-.73s1.45,.24,1.96,.73c.51,.48,.77,1.09,.77,1.81s-.26,1.33-.78,1.84c-.52,.5-1.17,.75-1.95,.75s-1.43-.25-1.95-.75Zm-.7-19.39h5.29l-.88,13h-3.53l-.88-13Z" style="fill:#fff;"></path></g></g><g id="freepik--Character_1--inject-235"><g><g><path d="M79.4,447.2l-7.31-.05s-1.47-.8-2.34-.7c-.87,.1-3.88,.65-3.88,.65l-19.42-.15c.16-.81,.36-1.54,.58-2.18,.27-.78,.59-1.44,.93-2,1.22-1.95,2.86-2.64,4.65-2.74,2.72-.15,11.32-5.8,11.32-5.8,0,0,3.11-1.06,3.31-4.37,.07-1.24,1.91-2.74,2.79-2.85,1.78-.24,2.76,.89,3,2.67l.28,2.06,4.11-.61s4.19-2.07,3.97-.03c-.12,1.16-.87,6.34-1.34,10.45-.11,.96-.21,1.86-.3,2.66h0c-.2,1.77-.34,2.98-.34,2.98Z" style="fill:#263238;"></path><g style="opacity:.2;"><path d="M46.45,446.95l19.42,.15s3.02-.55,3.88-.65c.87-.1,2.34,.7,2.34,.7l7.31,.05s.14-1.21,.34-2.98l-32.72,.55c-.22,.64-.42,1.36-.58,2.18Z" style="fill:#fff;"></path></g><path d="M59.66,436.32c.09-.09,.23-.1,.33-.03,.48,.32,.88,.78,1.15,1.35,.14,.3-.3,.58-.44,.28-.24-.5-.59-.91-1.01-1.19-.14-.09-.16-.29-.04-.41h0Z" style="fill:#34A853;"></path><path d="M61.21,435.43c.09-.09,.23-.1,.33-.03,.48,.32,.88,.78,1.15,1.35,.14,.3-.3,.58-.44,.28-.24-.5-.59-.91-1.01-1.19-.14-.09-.16-.29-.04-.41h0Z" style="fill:#34A853;"></path><path d="M62.81,434.59c.09-.09,.23-.1,.33-.03,.48,.32,.88,.78,1.15,1.35,.14,.3-.3,.58-.44,.28-.24-.5-.59-.91-1.01-1.19-.14-.09-.16-.29-.04-.41h0Z" style="fill:#34A853;"></path></g><path d="M164.84,448.19h-19.05s-.42-.8,.06-2.93c.07-.33,.17-.7,.29-1.09,0-.02,.01-.04,.02-.06,.18-.59,.38-1.31,.6-2.1,.87-3.19,1.9-7.36,1.9-7.36,0,0,3.17-6.79,6.88-5.09,3.25,1.49,2.48,5.74,2.48,5.74,0,0,.32,2.5,2.79,4.7,1.53,1.36,3.04,2.41,3.77,4.11,.14,.32,.24,.65,.32,1.02,0,.04,.02,.09,.02,.14,.15,.82,.14,1.77-.08,2.93Z" style="fill:#263238;"></path><g style="opacity:.2;"><path d="M145.85,445.26c-.47,2.13-.06,2.93-.06,2.93h19.05c.22-1.16,.23-2.11,.08-2.93h-19.07Z" style="fill:#fff;"></path></g><path d="M157.25,436.37c-1.07-.84-2.48-.73-3.44,.21-.26,.25-.66-.14-.4-.4,1.2-1.17,2.92-1.24,4.24-.21,.29,.22-.12,.62-.4,.4h0Z" style="fill:#34A853;"></path><path d="M157.79,438.14c-1.07-.83-2.48-.73-3.44,.21-.26,.25-.66-.14-.4-.4,1.2-1.17,2.92-1.24,4.24-.21,.29,.22-.12,.62-.4,.4h0Z" style="fill:#34A853;"></path><path d="M158.33,439.78c-1.07-.84-2.48-.73-3.44,.21-.26,.25-.66-.14-.4-.4,1.2-1.17,2.92-1.24,4.24-.21,.29,.22-.12,.62-.4,.4h0Z" style="fill:#34A853;"></path><g><polygon points="87.43 413.08 78.53 437.1 70.47 434.49 73.25 409.14 87.43 413.08" style="fill:#263238;"></polygon><polygon points="145.51 409.92 149.07 436.05 157.59 436.48 160.35 411.29 145.51 409.92" style="fill:#263238;"></polygon><g><path d="M163.17,242.11l-39.1,2.36-23.92-4.19s-18.7,79.22-20.19,93.49-17.23,94.74-17.23,94.74l20.87,3.33s23.65-84.72,25.24-92.44c1.39-6.73,16.77-49.88,20.7-60.85,.4,2.25,.8,4.5,1.21,6.74,.99,10.12,4.18,42.37,5.57,54.37,0,0,5.22,72.58,5.96,93.17l19.6-.99c2.42-28.27,3.24-131.22,3.24-131.22h0c1.36-21.56-1.94-58.51-1.94-58.51Z" style="fill:#34A853;"></path><g style="opacity:.3;"><path d="M163.17,242.11l-39.1,2.36-23.92-4.19s-18.7,79.22-20.19,93.49-17.23,94.74-17.23,94.74l20.87,3.33s23.65-84.72,25.24-92.44c1.39-6.73,16.77-49.88,20.7-60.85,.4,2.25,.8,4.5,1.21,6.74,.99,10.12,4.18,42.37,5.57,54.37,0,0,5.22,72.58,5.96,93.17l19.6-.99c2.42-28.27,3.24-131.22,3.24-131.22h0c1.36-21.56-1.94-58.51-1.94-58.51Z"></path></g><g style="opacity:.5;"><path d="M110.2,252.24c-2.33,7.65-8.55,13.79-16.22,16.02-.41,.12-.24,.77,.18,.65,7.9-2.3,14.29-8.62,16.69-16.49,.13-.41-.52-.59-.65-.18h0Z"></path><path d="M131.09,252.24c-.45,6.69-.9,13.39-1.35,20.08-.02,.43-.69,.43-.67,0,.24-3.43,.46-6.87,.69-10.31-1.65,1.27-3.58-.27-4.12-1.97-.88-2.76-.55-6.04,.14-8.8,.11-.42,.76-.24,.65,.17-.49,1.94-.69,3.93-.55,5.92,.06,1.01,.16,2.18,.64,3.11,.53,1.04,1.87,1.91,2.93,.97,.12-.1,.25-.11,.36-.05,.2-3.03,.41-6.07,.61-9.11,.02-.43,.69-.43,.67,0Z"></path><path d="M148.76,251.96c-.09,8.87,6.73,16.29,15.56,16.99,.42,.03,.42-.63,0-.66-8.47-.67-14.99-7.85-14.9-16.33,0-.42-.66-.42-.66,0h0Z"></path></g></g><polygon points="83.13 335.3 89.51 334.51 97.26 340.85 90.26 340.85 97.26 343.81 83.13 343.81 81.26 340.85 85.05 340.85 83.13 335.3" style="fill:#895555;"></polygon><path d="M160.71,294.06c-.19-2.16-1.44-4.21-3.52-5.38-1.6-.9-5.25-1.73-6.96-1.47h0c-2.07-.01-4.19-.02-6.15,.83-1.96,.85-3.77,2.73-4.26,5.28-.49,2.55,.77,5.64,2.83,6,.91,.16,2.07-.07,2.55,.93,.35,.71,.1,1.64,.19,2.47,.13,1.15,1.04,2.08,1.95,1.99,.92-.08,1.71-1.16,1.71-2.33-.03,1.48,1.1,2.81,2.26,2.67s2.07-1.73,1.81-3.17c.22,.88,.46,1.82,1.04,2.4,.57,.57,1.58,.54,1.89-.3,.35-.93-.36-2.05-.13-3.03,.23-.96,1.16-1.24,1.87-1.67,1.55-.94,3.11-3.06,2.91-5.22Zm-11.1,2.96c-.58,.94-1.81,1.36-2.9,1.19-1.09-.17-2.06-.85-2.8-1.67-.46-.51-.88-1.12-.88-1.81,0-.69,.58-1.46,1.19-1.66,.91-.35,1.92-.52,2.88-.35,.96,.17,1.89,.7,2.42,1.52s.61,1.95,.1,2.79Zm2.42,4.18c-.76,.2-.9-.58-.9-.58,0,0-.35,.94-1.07,.43-.72-.51,.71-2.48,.71-2.48,.68-.11,2.03,2.43,1.27,2.63Zm6.37-4.65c-.75,.82-1.71,1.49-2.8,1.67-1.09,.17-2.32-.24-2.9-1.19-.51-.84-.43-1.96,.1-2.79,.53-.82,1.45-1.35,2.42-1.52,.97-.17,1.97,0,2.88,.35,.6,.2,1.19,.98,1.19,1.66,0,.69-.41,1.3-.88,1.81Z" style="fill:#34A853;"></path></g><g><path d="M122.06,142.89c.13-.52-5.9-7.87-5.9-7.87,0,0,21.51-2.88,30.63-1.24l8.92,1.96-8.92,10.17-24.73-3.01Z" style="fill:#263238;"></path><path d="M142.68,142l4.11-8.22s-12.97-2.02-22.85,.51,.06-.24,0,.32c-.06,.55,3.22,6.4,3.22,6.4l15.52,.99Z" style="opacity:.3;"></path><path d="M115.97,141.73c5.6-.35,26.8-1.28,49.65,3.3l.79,87.04c.05,7.2-2.6,8.21-2.6,8.21,0,0,.32,3.2,.52,4.82-23.89,9.23-51.13,9.94-66.35,.46,0-.06,.18-1.2,.53-3.86,.39-2.98-1.91-3.33-1.13-10.73,2.62-24.69,8.37-64.49,12.44-86.7,.11-.55,5.58-2.51,6.14-2.54Z" style="fill:#263238;"></path><path d="M99.24,215.09l-.78,6.39s14.97,3.76,31.73-2.28c16.76-6.04,18.74-10.65,18.74-10.65l16.51,6.54v-9.39l-27.05-8.83-39.15,18.23Z" style="opacity:.4;"></path><path d="M115.97,141.73s-16.11,1.89-19.7,12.81c-2.66,8.07-11.88,48.93-8.2,53.08s6.55,6.52,13.38,7.44c6.83,.92,39.74-16.39,39.74-16.39l-21.4-8.39-12.77,2.85,8.96-51.4Z" style="fill:#263238;"></path><path d="M164.34,144.97s4.12-1.01,8.43,7.55c4.31,8.56,11.88,42.19,12.01,48.37,.16,7.71-3.46,11.73-10.14,11.73-12.05,0-59.26-21.36-59.26-21.36l8.05-13.56,38.23,9.93-3.86-27.31,6.54-15.36Z" style="fill:#263238;"></path><polygon points="159.97 178.41 158.04 170.33 157.09 175.76 159.97 178.41" style="opacity:.3;"></polygon><path d="M139.42,181.86s11.16-8.26,15.85-7.25c4.69,1.01,5.39,5.92,5.39,5.92l1,7.11-22.24-5.78Z" style="fill:#895555;"></path><polygon points="110.04 175.76 111.56 167.05 114.2 176.59 110.04 175.76" style="opacity:.3;"></polygon><path d="M122.06,180s-7.18-3.72-11.04-4.23c-2.36-.31-6.29,4.6-8.99,8.48-1.73,2.48-1.12,5.9,1.35,7.65,1.08,.76,1.97,1.36,2.11,1.36,.39,0,10.42-2.06,10.42-2.06l6.15-11.2Z" style="fill:#895555;"></path><path d="M126.31,144.93c.03,2.27,6.47,16.94,6.74,16.73,.27-.21,10.21-17.65,10.21-17.65l-16.95,.92Z" style="fill:#34A853;"></path><polygon points="115.38 191.26 131.82 203.41 137.32 200.66 115.38 191.26" style="opacity:.3;"></polygon><rect x="132.8" y="161.66" width=".5" height="18.54" style="opacity:.3;"></rect><polyline points="121.78 141.73 124.5 148.5 117.6 141.73 121.05 141.73" style="opacity:.3;"></polyline><path d="M127.01,247.27c-17.69,0-28.49-5.28-28.6-5.34l.22-.45c.12,.06,12.12,5.93,31.55,5.23,21.51-.77,33.4-6.59,33.52-6.65l.22,.45c-.12,.06-12.1,5.93-33.73,6.7-1.09,.04-2.15,.06-3.19,.06Z" style="opacity:.3;"></path><rect x="130.92" y="205.42" width=".5" height="41.6" style="opacity:.3;"></rect><path d="M159.71,164.93c-.3-5.57,1.6-11.11,5.28-15.3,.32-.36-.21-.89-.53-.53-3.81,4.34-5.81,10.07-5.5,15.83,.03,.48,.78,.48,.75,0h0Z" style="opacity:.3;"></path><g><path d="M176.98,166.78s-.82,2-.09,2.29c.73,.29,.84-.6,.84-.6,0,0,.03,.06,.08,.13l-.5-1.79c-.13-.05-.24-.07-.33-.03Z" style="fill:none;"></path><path d="M172.58,162.5c-.87,.06-1.7,.42-2.42,.91-.48,.3-.82,1.1-.68,1.69,.14,.59,.63,1.04,1.14,1.38,.82,.55,1.79,.93,2.77,.85,.98-.08,1.96-.7,2.26-1.64,.27-.83-.04-1.79-.67-2.39-.63-.6-1.54-.87-2.41-.81Z" style="fill:none;"></path><path d="M177.98,168.26s-.36,1.11-1.09,.81c-.73-.29,.09-2.29,.09-2.29,.09-.04,.48,.01,.61,.07-.84-3.16-1.88-6.49-3.03-9.91-.15,.04-.3,.08-.42,.13-1.79,.42-3.63,.87-5.14,2.01-1.52,1.15-2.69,3.15-2.58,5.46,.11,2.31,1.86,4.72,3.71,4.6,.82-.05,1.77-.49,2.4,.26,.45,.54,.43,1.4,.69,2.1,.36,.97,1.33,1.58,2.11,1.31,.78-.27,1.23-1.37,.99-2.37,.28,1.28,1.73,2.25,2.7,1.89l-.91-3.69c-.05-.07-.12-.37-.12-.37Zm-2.32-2.57c-.3,.94-1.28,1.56-2.26,1.64-.98,.08-1.96-.3-2.77-.85-.51-.34-.99-.79-1.14-1.38-.14-.59,.2-1.39,.68-1.69,.72-.5,1.55-.85,2.42-.91,.87-.06,1.78,.21,2.41,.81,.63,.6,.94,1.56,.67,2.39Z" style="fill:#34A853;"></path></g></g><g><path d="M143.25,144.01s-2.57-9.74,.46-22.5c0-.01-.68-.27-.68-.29,.42-1.78,.87-3.43,1.31-4.87,0-.04,0-.06,0-.06l-16.68,11.47c.6,4-.46,11.84-1.17,15.17,0,0-1.88,6.05,6.04,5.92,5.79-.09,10.72-4.85,10.72-4.85Z" style="fill:#895555;"></path><g><g style="opacity:.2;"><path d="M136.63,130.66c-2.07,2.37-5.66,3.7-8.96,3.77,.05-.29,.04-.73,.07-1.03,.06-.46,.05-1.16,.08-1.64,.03-.59,.04-1.24,0-1.85-.03-.24-.13-.21-.15-.45l-.06-.5,9.98-3.39c.81,.59,.7,3.17-.97,5.09Z"></path></g><path d="M150.14,106.17c2.39-10.72-6.92-20.58-18.03-18.01-11.28,2.62-15.32,18.44-14.55,28.54,.86,11.21,13.43,18.3,22.98,11.26,6.35-4.68,7.21-11.08,9.6-21.79h0Z" style="fill:#895555;"></path></g><path d="M137.22,108.3c-.1,1.12-.77,1.96-1.5,1.89-.73-.07-1.24-1.04-1.14-2.15,.1-1.12,.77-1.96,1.5-1.89,.73,.07,1.24,1.04,1.14,2.15Z" style="fill:#263238;"></path><path d="M124.32,107.81c-.1,1.12-.77,1.96-1.5,1.89-.73-.07-1.24-1.04-1.14-2.15,.1-1.12,.77-1.96,1.5-1.89,.73,.07,1.24,1.04,1.14,2.15Z" style="fill:#263238;"></path><path d="M127.02,106.47s-4.03,5.24-5.36,7.4c1.43,1.54,4.17,1.13,4.17,1.13l1.19-8.53Z" style="fill:#773737;"></path><path d="M138.11,100.41c-.17,.05-.37,.02-.52-.12-1.68-1.57-3.44-1.21-3.62-1.17-.28,.07-.57-.11-.64-.39-.07-.28,.1-.56,.38-.63,.1-.02,2.46-.56,4.59,1.43,.21,.2,.23,.53,.03,.74-.06,.07-.14,.11-.23,.14Z" style="fill:#263238;"></path><path d="M120.25,103.82c-.1-.03-.18-.09-.25-.17-.18-.23-.15-.56,.07-.74,2.23-1.84,4.53-1.11,4.64-1.09,.28,.09,.43,.39,.34,.66-.09,.28-.38,.43-.65,.34-.09-.03-1.87-.57-3.67,.91-.14,.12-.32,.15-.49,.09Z" style="fill:#263238;"></path><path d="M133.85,117.34c.41-2.9-7.43,1.68-7.43,1.68,0,0,.86,3.24,3.89,2.97,3.67-.32,3.54-4.65,3.54-4.65Z" style="fill:#fff;"></path><path d="M145.39,111.82s2.9-18.44-2.57-20.52c-5.46-2.09-7.64,2.94-11.36,2.16-3.73-.78-2.99-3.5-2.99-3.5-2.53,1-5.08,5.03-7.42,8.05,0,0,3.44-8.22,8.11-10.27,9.09-3.98,19.31-1.72,23.04,3.96,3.66,5.58,1.34,15.13,1.34,15.13-2.31,7.2-3.87,11.17-7.88,15.16l-.26-10.18Z" style="fill:#263238;"></path><g><path d="M153.13,113.96c-1.16,2.83-3.53,4.85-5.87,5.77-3.53,1.38-4.46-2.42-3.82-5.96,.57-3.18,1.85-7.01,5.56-6.88,3.65,.13,5.47,3.83,4.14,7.07Z" style="fill:#895555;"></path><path d="M145.36,113.79s-.03,0-.05,0c-.14-.03-.22-.16-.2-.29,.21-1.01,.67-1.95,1.35-2.72,.46-.52,1.22-1.18,2.21-1.33,.97-.15,1.95,.28,2.37,1.05,.07,.12,.02,.27-.1,.34-.12,.07-.27,.02-.34-.1-.32-.58-1.1-.91-1.86-.8-.84,.13-1.5,.71-1.91,1.17-.62,.71-1.05,1.57-1.24,2.49-.02,.12-.13,.2-.24,.2Z" style="opacity:.2;"></path></g><path d="M136.59,103.43c-.97-.08-7.46-.34-7.4,1.16,.11,2.81-.26,8.15,5.27,8.15,6.87,0,6.04-8.82,4.58-9.05-1.94-.3-2.45-.26-2.45-.26Z" style="opacity:.2;"></path><path d="M118.46,103.79c.97-.08,7.46-.34,7.4,1.16-.11,2.81,.26,8.15-5.27,8.15-6.87,0-6.04-8.82-4.58-9.05,1.94-.3,2.45-.26,2.45-.26Z" style="opacity:.2;"></path><path d="M125.6,105.34l-.27-.42c1.22-.79,2.91-.86,4.19-.17l-.24,.44c-1.13-.61-2.61-.55-3.68,.15Z"></path><rect x="143" y="101.97" width=".5" height="7.46" transform="translate(-2.42 208.05) rotate(-71.51)"></rect></g></g></g><g id="freepik--Character_2--inject-235"><g><g><g><g><g><path d="M316.8,187.83s-2.94-5.9-2.91-17.83c0-.01-.66-.1-.66-.11,0-1.67,.06-3.23,.14-4.59,0-.04,0-.05,0-.05l-12.39,13.65c1.37,3.42,2.06,10.59,2.13,13.68,0,0-.41,5.75,6.59,3.99,5.11-1.29,7.1-8.74,7.1-8.74Z" style="fill:#e9b376;"></path><path d="M302.14,183.92l8.11-4.45c-.01,2.92-1.48,6.81-7.44,8.8,0,0-.27-3.19-.67-4.35Z" style="opacity:.2;"></path></g><g><path d="M283.07,155.85c-.77,4,.81,11.84,5.9,8.65,3.96-2.48-.46-12.77-3.48-12.99-.87-.06-2.12,2.81-2.42,4.34Z" style="fill:#263238;"></path><path d="M311.38,157.89c2.07,9.78,2.91,15.36-.82,21.48-5.61,9.19-18.36,7.67-23.01-1.49-4.19-8.24-6.31-22.96,2.3-29.01,8.48-5.96,19.95,1.54,21.53,9.02Z" style="fill:#e9b376;"></path><path d="M311.97,144.23c-6.4-3.61-18.19-.18-21.27,3.45-.46,.54,8.43,2.63,7.91,2.57l4.05,.4c.55-.27,1.84,.14,2.85,1.78,0,0,1.04,10.62,6.29,13.91,3.75-2.96,4.49-4.95,4.72-8.72,.34-5.61-1.64-10.95-4.54-13.39Z" style="fill:#263238;"></path><path d="M317.15,165.06c-.18,2.68-1.58,5.03-3.28,6.44-2.55,2.13-5.22,.18-5.68-2.94-.41-2.81,.42-7.31,3.54-8.23,3.08-.91,5.62,1.66,5.42,4.73Z" style="fill:#e9b376;"></path><path d="M300.23,163.43c.24,.99-.1,1.92-.75,2.07-.65,.15-1.37-.53-1.61-1.53-.24-.99,.1-1.92,.75-2.07,.65-.15,1.37,.53,1.61,1.53Z" style="fill:#263238;"></path><path d="M289.49,166.31c.24,.99-.1,1.92-.75,2.07-.65,.15-1.37-.53-1.61-1.53-.24-.99,.1-1.92,.75-2.07,.65-.15,1.37,.53,1.61,1.53Z" style="fill:#263238;"></path><path d="M291.51,165.24s-1.96,5.69-2.49,7.94c1.68,.92,3.92-.23,3.92-.23l-1.44-7.71Z" style="fill:#d58745;"></path><path d="M299.47,158.76c-.14,.1-.32,.12-.48,.05-1.95-.89-3.45,.03-3.47,.04-.22,.14-.52,.07-.66-.15-.14-.22-.07-.52,.15-.66,.08-.05,1.96-1.2,4.38-.1,.24,.11,.35,.39,.24,.63-.04,.08-.09,.14-.15,.19Z" style="fill:#263238;"></path></g><path d="M310.56,167.13c-.12,0-.23-.09-.25-.22-.11-.9,.02-1.82,.37-2.66,.24-.57,.69-1.33,1.48-1.74,.77-.4,1.72-.31,2.3,.21,.1,.09,.11,.25,.02,.35-.09,.1-.25,.11-.35,.02-.42-.38-1.15-.44-1.73-.14-.66,.34-1.04,1-1.25,1.49-.32,.76-.43,1.59-.33,2.41,.02,.14-.08,.26-.22,.28,0,0-.02,0-.03,0Z" style="opacity:.2;"></path></g><g><path d="M302.35,170.39l-7.47,5.31c.76,.76,1.54,1.53,2.47,2.07,.93,.54,1.93,.59,2.97,.31,1.49-.4,2.63-1.66,2.84-3.19,.21-1.53-.23-3.07-.81-4.5Z"></path><path d="M295.48,175.27s.88,.87,1.44,.87c.57,0,5.97-4.24,5.97-4.24l-.54-1.52-6.87,4.88Z" style="fill:#fff;"></path><path d="M299.22,178.24s-.02-1.59,1.49-2.79c1.51-1.2,2.5-1.11,2.5-1.11,0,0,.01,1.89-1.42,2.97s-2.57,.92-2.57,.92Z" style="fill:#de5753;"></path></g><path d="M283.17,163.39c-.09,0-.18-.02-.27-.07-.22-.14-.29-.44-.15-.66,1.39-2.24,3.59-2.27,3.69-2.29,.26,0,.48,.21,.49,.47,0,.26-.2,.48-.46,.48-.09,0-1.78,.05-2.9,1.84-.09,.14-.24,.22-.39,.22Z" style="fill:#263238;"></path></g><path d="M305.26,149.43c-3.25-3.67-7.82-9.29-12.67-9.97-4.85-.68-8.62,.46-12.13,3.88-2.79,2.71-4.1,3.88-4.71,5.02-.61,1.14-.68,2.65,.13,3.66,.8,1.01,2.58,1.2,3.37,.17-1.17-.26-2.33,.87-2.36,2.06-.03,1.19,.86,2.27,1.95,2.77s2.34,.5,3.52,.35c7.68-1,15.76-8.51,23.47-7.85" style="fill:#263238;"></path><path d="M286.33,160.39c-2.47,.75-3.91,1.71-4.61,2.29-.35,.29-.56,.69-.59,1.13-.13,1.88-.2,7.24,4.39,6.66,5.4-.69,5.29-4.86,5.36-7.37,.07-2.51-.77-3.85-4.55-2.71Z" style="fill:#263238; opacity:.3;"></path><path d="M295.53,158.1c2.54-.55,5.66-.81,6.59-.63,.46,.09,.86,.36,1.12,.76,1.13,1.69,2.75,7.09-1.53,8.86-5.04,2.08-6.61-.89-8.03-3.2-1.42-2.3-2.03-4.96,1.85-5.79Z" style="fill:#263238; opacity:.3;"></path><path d="M311.73,160.58s-.03,0-.05,0l-9.16-1.95c-.14-.03-.22-.16-.19-.3,.03-.13,.16-.22,.3-.19l9.16,1.95c.14,.03,.22,.16,.19,.3-.02,.12-.13,.2-.24,.2Z"></path><path d="M289.9,161.61c-.06,0-.12-.02-.16-.06-.1-.09-.12-.25-.02-.35,.47-.55,1.13-.91,1.84-1.03,.72-.12,1.45,.01,2.08,.37,.12,.07,.16,.22,.09,.34-.07,.12-.23,.16-.34,.09-.52-.3-1.16-.41-1.74-.31-.59,.1-1.16,.42-1.55,.87-.05,.06-.12,.09-.19,.09Z"></path></g><g><g><path d="M265.25,191.04s2.35-2.64,3.01-5.76c.66-3.14,1.09-5.7,1.03-8.07-.06-2.38-2.1,.11-2.91,1.65s-1.75,3.28-2.81,2.48c-1.06-.8-5.53-11.28-7.13-12.22-1.59-.94-1.4,.98-1.4,.98,0,0-1.16-2.52-2.28-2.33-.29,.05-.89,.63-.54,1.86,.78,2.77,2.72,8.49,2.72,8.49-.1-.33-3-7.22-3.57-8.2-.74-1.27-1.74-1.5-2.47-1.04-1.03,.65,2.27,9.31,2.15,9.77,0,0-1.73-5.05-3.28-5.32-1.55-.27-.63,2.97,.72,5.68,1.24,2.48,3.02,7.66,4.52,10.06,1.85,2.95,3.76,4.52,7,4.08,3.24-.44,5.24-2.1,5.24-2.1Z" style="fill:#e9b376;"></path><path d="M257.6,176.88c-.11,0-.2-.07-.24-.17-.68-2.09-1.46-4.18-2.34-6.21-.05-.13,0-.27,.13-.33,.13-.05,.27,0,.33,.13,.88,2.05,1.67,4.15,2.35,6.25,.04,.13-.03,.27-.16,.31-.03,0-.05,.01-.08,.01Z" style="opacity:.3;"></path><path d="M251.66,180.88c-.07,0-.15-.03-.2-.09-.08-.11-.07-.27,.04-.35,2.28-1.81,5.12-2.94,8.02-3.18,.16-.01,.26,.09,.27,.23,.01,.14-.09,.26-.23,.27-2.8,.24-5.55,1.33-7.75,3.07-.05,.04-.1,.05-.16,.05Z" style="opacity:.3;"></path><path d="M260.78,188.94c-.1,0-.2-.06-.23-.16-.44-1.14-.47-2.45-.08-3.6,.39-1.15,1.2-2.18,2.24-2.83,.12-.07,.27-.04,.34,.08,.07,.12,.04,.27-.08,.34-.94,.58-1.68,1.51-2.03,2.56-.35,1.05-.33,2.24,.07,3.27,.05,.13-.01,.27-.14,.32-.03,.01-.06,.02-.09,.02Z" style="opacity:.3;"></path></g><path d="M257.6,192.29c.06,.78,5.74,8,5.24,8s6.26-3.11,6.45-3.52c.2-.41-5.25-6.97-5.25-6.97l-6.44,2.49Z" style="fill:#e9b376;"></path><path d="M312.66,202.81l-27.36,15.73s-6.85-13.4-8.83-18.37c-1.67-4.18-7.46-5.77-7.46-5.77l-2.36-2.64h-.43l-7.99,3.83,1.18,3s-.4,3.56-.96,6.76,14.79,32.95,17.93,35.96c2.26,2.17,9.3,3.99,12.86,2.38,12.45-5.62,30.8-25.15,30.8-25.15l-7.37-15.73Z" style="fill:#263238;"></path><path d="M312.66,202.81l-27.36,15.73s-6.85-13.4-8.83-18.37c-1.67-4.18-7.46-5.77-7.46-5.77l-2.36-2.64h-.43l-7.99,3.83,1.18,3s-.4,3.56-.96,6.76,14.79,32.95,17.93,35.96c2.26,2.17,9.3,3.99,12.86,2.38,12.45-5.62,30.8-25.15,30.8-25.15l-7.37-15.73Z" style="opacity:.4;"></path></g><path d="M264,428.87c.21-.43,2.69-4.98,2.67-5.16l9.09-18.66-20.66-6.45-5.44,23.81c-1.28,3.27-4.16,3.84-4.16,3.84,0,0-8.62,4.19-11.83,3.21-2.11-.64-4.3-.55-6.54,1.2-.64,.5-1.22,1.13-1.78,1.98-.62,.94-.71,1.34-1.12,2.77l18.05,6.54s3.72,.64,4.77,.89c1.05,.26,2.41,1.8,2.41,1.8l8.44,3.17s.68-1.34,1.66-3.3h0c.44-.88,.95-1.89,1.48-2.95,2.29-4.56,2.32-11.4,2.96-12.69Z" style="fill:#263238;"></path><g><path d="M316.25,274.04c-1.94,3.46-67.15,138.83-67.15,138.83l22.51,6.03,19.73-38.63,45.53-85.14-20.62-21.1Z" style="fill:#34A853;"></path><path d="M316.25,274.04c-1.94,3.46-67.15,138.83-67.15,138.83l22.51,6.03,19.73-38.63,45.53-85.14-20.62-21.1Z" style="opacity:.5;"></path></g><g><path d="M175.5,272.99c-.52,.35-6.93,3.81-5.89,14.73,1.04,10.92,5.89,13.17,5.89,13.17v-27.9Z" style="fill:#34A853;"></path><path d="M203.52,295.85s-11.38,6.6-28.02,5.04v-27.9s14.73-3.81,25.82,3.47c9.37,6.15,2.19,19.39,2.19,19.39Z" style="fill:#263238;"></path><path d="M203.52,295.85s-11.38,6.6-28.02,5.04v-27.9s14.73-3.81,25.82,3.47c9.37,6.15,2.19,19.39,2.19,19.39Z" style="fill:#fff; opacity:.3;"></path><path d="M170.5,263.19s21.12-8.18,36.11,2.9c10.6,7.84,12.13,18.72,12.13,18.72l-6.06,5.54-42.18-27.15Z" style="fill:#263238;"></path><path d="M480.91,337.76s1.27,13.47,.35,13.47h-2.99l-6.79-13.47" style="fill:#b97964;"></path><polygon points="154.44 392.39 149.1 389.48 208.91 279.57 240.68 246.57 245.06 250.79 213.86 283.2 154.44 392.39" style="fill:#263238;"></polygon><g style="opacity:.3;"><polygon points="154.44 392.39 149.1 389.48 208.91 279.57 240.68 246.57 245.06 250.79 213.86 283.2 154.44 392.39" style="fill:#fff;"></polygon></g><circle cx="243.37" cy="247.95" r="8.92" style="fill:#263238;"></circle><path d="M275.59,407.38c-3.77,0-7.29-.06-10.33-.19-16.01-.67-21.76-6.27-26.37-10.78-.78-.76-1.51-1.47-2.24-2.11-5.24-4.54-32.92-66.43-41.28-85.28l5.56-2.46c13.37,30.15,35.97,79.4,39.74,83.19,.83,.72,1.66,1.53,2.47,2.32,4.08,3.98,8.69,8.48,22.38,9.05,18.67,.78,48.07-.92,53.31-3.07,5.65-2.33,16.32-16.43,21.45-23.21,11.34-14.99,25-36.58,25.14-36.79l5.14,3.25c-.14,.22-13.93,22.02-25.43,37.22-8.5,11.23-17.35,22.43-23.98,25.16-5.85,2.41-28.3,3.71-45.55,3.71Z" style="fill:#263238;"></path><g style="opacity:.3;"><path d="M275.59,407.38c-3.77,0-7.29-.06-10.33-.19-16.01-.67-21.76-6.27-26.37-10.78-.78-.76-1.51-1.47-2.24-2.11-5.24-4.54-32.92-66.43-41.28-85.28l5.56-2.46c13.37,30.15,35.97,79.4,39.74,83.19,.83,.72,1.66,1.53,2.47,2.32,4.08,3.98,8.69,8.48,22.38,9.05,18.67,.78,48.07-.92,53.31-3.07,5.65-2.33,16.32-16.43,21.45-23.21,11.34-14.99,25-36.58,25.14-36.79l5.14,3.25c-.14,.22-13.93,22.02-25.43,37.22-8.5,11.23-17.35,22.43-23.98,25.16-5.85,2.41-28.3,3.71-45.55,3.71Z" style="fill:#fff;"></path></g><rect x="382.06" y="316.09" width="7" height="82.29" transform="translate(-131.22 261.25) rotate(-32.29)" style="fill:#263238;"></rect><path d="M382.64,333.94s15.39-8.18,46.88-1.55c31.49,6.63,39.54,31.73,39.54,31.73h10.89s-6.63-27.7-41.91-40.72c-29.63-10.94-39.77-3.31-48.53-.95-8.76,2.37-6.87,11.49-6.87,11.49Z" style="fill:#34A853;"></path><path d="M277.47,405.92l16.76,7.05c1.99,.84,4.13,1.27,6.29,1.27h111.81v-14.38l-88.11,.9-46.75,5.17Z" style="fill:#263238;"></path><path d="M352.4,327.32c-1.37,.15-48.82,0-48.82,0,0,0-.15,27.1,1.84,28.75,2,1.65,3.68,1.16,3.68,1.16,0,0,1.84,11.71,14.28,12.32,12.44,.6,15.66-2.62,19.8-3.54,4.15-.92,22.07-27.32,21.17-29.7-.9-2.39-5.05-9.75-11.96-8.99Z" style="fill:#263238;"></path><path d="M352.4,327.32c-1.37,.15-48.82,0-48.82,0,0,0-.15,27.1,1.84,28.75,2,1.65,3.68,1.16,3.68,1.16,0,0,1.84,11.71,14.28,12.32,12.44,.6,15.66-2.62,19.8-3.54,4.15-.92,22.07-27.32,21.17-29.7-.9-2.39-5.05-9.75-11.96-8.99Z" style="fill:#fff; opacity:.3;"></path><path d="M212.37,279.27c.78-.52,22.08,5.58,22.08,5.58l-5.7,37.6,9.88,13.86,22.46-6.95,7.96,12.31-2.86,2.88,4.17,8.57,8.57-8.57v-4.44h26.26l48.88,.26,8.84,7.17-34.32,43.6-20.39,2.85-61.75-18.78s-13.27-32.24-24.97-47.94c-11.7-15.7-15.34-7.7-15.33-7.46l-6.82-16.26,13.31-22.97" style="fill:#263238;"></path><path d="M212.37,279.27c.78-.52,22.08,5.58,22.08,5.58l-5.7,37.6,9.88,13.86,22.46-6.95,7.96,12.31-2.86,2.88,4.17,8.57,8.57-8.57v-4.44h26.26l48.88,.26,8.84,7.17-34.32,43.6-20.39,2.85-61.75-18.78s-13.27-32.24-24.97-47.94c-11.7-15.7-15.34-7.7-15.33-7.46l-6.82-16.26,13.31-22.97" style="fill:#fff; opacity:.3;"></path><polygon points="460.53 336.49 472.16 336.49 479.41 352.61 473.31 352.61 460.53 336.49" style="fill:#34A853;"></polygon><path d="M382.47,320.95c.73,2.25,12.49,14.89,12.49,14.89l-12.49,6.19-11.25-14.77,11.25-6.31Z" style="fill:#263238;"></path><g style="opacity:.3;"><rect x="382.06" y="316.09" width="7" height="82.29" transform="translate(-131.22 261.25) rotate(-32.29)" style="fill:#fff;"></rect></g><path d="M382.47,320.95c.73,2.25,12.49,14.89,12.49,14.89l-12.49,6.19-11.25-14.77,11.25-6.31Z" style="fill:#fff; opacity:.3;"></path><circle cx="151.77" cy="390.93" r="21.48" transform="translate(-263.45 449.72) rotate(-76.84)" style="fill:#263238;"></circle><path d="M414.98,332.39c-32.93,0-59.62,26.69-59.62,59.62s26.69,59.62,59.62,59.62,59.62-26.69,59.62-59.62-26.69-59.62-59.62-59.62Zm0,104.92c-25.62,0-46.38-20.77-46.38-46.38s20.77-46.38,46.38-46.38,46.38,20.77,46.38,46.38-20.77,46.38-46.38,46.38Z" style="fill:#263238;"></path><circle cx="414.98" cy="390.93" r="21.48" transform="translate(-60.16 706.02) rotate(-76.84)" style="fill:#263238;"></circle><path d="M277.47,405.92l16.76,7.05c1.99,.84,4.13,1.27,6.29,1.27h111.81v-14.38l-88.11,.9-46.75,5.17Z" style="fill:#fff; opacity:.7;"></path><path d="M329.28,305.67s-22.93-2.27-17.89,7.56c5.04,9.83,15.37,16.13,33.01,16.13s48.13-2.73,61.74-9.55,12.1-15.39,11.59-23.46c-.5-8.06-6.8-10.75-15.88-6.01-9.07,4.75-10.48,4.66-23.69,8.27-13.81,3.78-34.23,6.57-48.89,7.06Z" style="fill:#263238;"></path><path d="M279.06,400.99c4.86-.31,11.38-.15,16.15-1.14,4.77-.98,9.74-2.24,12.98-5.87,3.31-3.72,4.44-7.63,5.19-12.55,.5-3.27-.85-8.1-2.71-10.84-1.43-2.11-3.82-3.4-6.29-4-2.47-.6-5.04-.59-7.59-.58-12.68,.07-25.51,.17-37.78,3.36-5.06,1.32-10.16,3.26-13.83,6.99-3.67,3.73-5.55,9.61-3.37,14.36,1.95,4.24,6.48,6.6,10.84,8.28,0,0,8.77,3.11,26.4,1.99Z" style="fill:#263238;"></path><g style="opacity:.7;"><path d="M279.06,400.99c4.86-.31,11.38-.15,16.15-1.14,4.77-.98,9.74-2.24,12.98-5.87,3.31-3.72,4.44-7.63,5.19-12.55,.5-3.27-.85-8.1-2.71-10.84-1.43-2.11-3.82-3.4-6.29-4-2.47-.6-5.04-.59-7.59-.58-12.68,.07-25.51,.17-37.78,3.36-5.06,1.32-10.16,3.26-13.83,6.99-3.67,3.73-5.55,9.61-3.37,14.36,1.95,4.24,6.48,6.6,10.84,8.28,0,0,8.77,3.11,26.4,1.99Z" style="fill:#fff;"></path></g><circle cx="260.33" cy="383.68" r="10.85" transform="translate(-173.08 548.41) rotate(-76.65)" style="fill:#263238;"></circle><circle cx="293.29" cy="381.09" r="12.17" transform="translate(-183.57 319.01) rotate(-45)" style="fill:#263238;"></circle><path d="M261.17,286.66c-.76-.12-50.46-10.86-46.31,21.33,0,0,3.53,16.82,12.67,18.9,7.72,1.75,64.07,.54,81.35,.13,3.56-.09,6.85-1.94,8.71-4.97l.06-.1c1.96-3.22,2.2-14.46-6.44-21.85-12.87-11.01-38.88-11.69-50.04-13.44Z" style="fill:#34A853;"></path><path d="M122.28,340.19l-4.47-5.85s36.06-19.84,68.28,0c0,0,48.67,28.38,25.3,85.57l-5.51-2.83s2.61-17.02-2.93-40.06c-5.55-23.05-21.55-37.34-40.54-40.12-18.99-2.77-40.13,3.29-40.13,3.29Z" style="fill:#34A853;"></path><path d="M151.77,332.39c-32.93,0-59.62,26.69-59.62,59.62s26.69,59.62,59.62,59.62,59.62-26.69,59.62-59.62-26.69-59.62-59.62-59.62Zm0,104.92c-25.62,0-46.38-20.77-46.38-46.38s20.77-46.38,46.38-46.38,46.38,20.77,46.38,46.38-20.77,46.38-46.38,46.38Z" style="fill:#263238;"></path><path d="M244.06,286.56s-18.63,8.58-19.24,16.8c-.73,9.84,1.47,19.83,1.47,19.83,0,0-13.47-14.27-7.55-24.62,5.92-10.35,22.67-12.5,25.32-12.01Z" style="fill:#fff; opacity:.3;"></path></g><g><rect x="279.28" y="423.7" width="41.71" height="4.83" transform="translate(-109.42 103.75) rotate(-16.63)" style="fill:#263238;"></rect><rect x="279.28" y="423.7" width="41.71" height="4.83" transform="translate(-109.42 103.75) rotate(-16.63)" style="fill:#fff; opacity:.3;"></rect></g><g><path d="M312.11,398.89c-.1-.49-.96-5.8-1.09-5.93l-4.4-21.08-21.04,7.84,10.67,22.98c1.03,3.49-.97,5.79-.97,5.79,0,0-4.4,8.92-7.66,10.16-2.14,.81-3.88,2.29-4.6,5.14-.21,.82-.29,1.7-.2,2.76,.09,1.17,.27,1.55,.84,2.98l18.96-6.11s3.46-1.84,4.48-2.3c1.02-.46,3.12-.06,3.12-.06l8.93-2.77s-.3-1.53-.74-3.76h0c-.2-1.01-.42-2.15-.66-3.36-1.02-5.19-5.34-10.82-5.64-12.29Z" style="fill:#263238;"></path><path d="M353.65,259.46l-39.36,15.03,4.3,9.57s-45.69,21.88-50.49,35.28c-.11,18.43,20.5,66.97,24.49,81.2l26.56-6.63c-2.45-13.63-17.59-60.6-17.59-60.6,3.38-4.9,2.43-6.07,24.77-14.66,15.37-5.91,34.85-14.83,36.99-17.44,6.99-8.18,.09-29.2-9.67-41.75Z" style="fill:#34A853;"></path><path d="M353.65,259.46l-39.36,15.03,4.3,9.57s-45.69,21.88-50.49,35.28c-.11,18.43,20.5,66.97,24.49,81.2l26.56-6.63c-2.45-13.63-17.59-60.6-17.59-60.6,3.38-4.9,2.43-6.07,24.77-14.66,15.37-5.91,34.85-14.83,36.99-17.44,6.99-8.18,.09-29.2-9.67-41.75Z" style="opacity:.3;"></path><path d="M303.58,330.35l-9.62-4.02s12.78,1.66,12.24,1.48c-.53-.18-2.63,2.54-2.63,2.54Z" style="opacity:.4;"></path></g><path d="M250.42,247.95c0,2.44-1.98,4.43-4.43,4.43s-4.43-1.98-4.43-4.43,1.98-4.43,4.43-4.43,4.43,1.98,4.43,4.43Z" style="fill:#263238;"></path><g><g><path d="M278.83,264.01c-19.95-4.52-26.87,17.29-26.87,17.29h-6.37c-1.28,0-1.59,.73-1.52,1.61,.15,1.7,1.58,3.01,3.28,3.22l47.37,5.74s4.06-23.34-15.89-27.86Z" style="fill:#263238;"></path><path d="M294.96,284.36s.07-10.9-7.56-16.36c0,0-6.3,2.4-5.59,7.9,.71,5.5,7.85,5.71,7.85,5.71,0,0,.92,4.28,2.24,2.96,.84-.84,.92-1.67,.86-2.17,.22,.85,.79,2.66,1.69,2.43,.49-.13,.51-.46,.51-.46Z" style="fill:#fff; opacity:.4;"></path><path d="M285.99,273.89c-.05,.23-.52,4.1,2.96,4.48,3.48,.38,3.2-2.43,1.96-3.58s-4.44-3.05-4.91-.91Z" style="fill:#263238;"></path></g><path d="M251.96,281.29s16.1,1.02,21.74,1.91c5.64,.89-21.17-3.41-21.17-3.41l-.57,1.5Z" style="opacity:.3;"></path></g><g><path d="M318.99,184.27s10.7,4.96,16.91,11.95c6.21,6.99,25.88,50.99,24.85,57.2-1.04,6.21-2.37,11.15-2.37,11.15l2.75,4.72-44,13.54-2.27-3.59s-.7,1.16-5.36-6.25-11.82-52.34-8.98-61.37c.24-.77,1.56-6.17,1.63-8.92,.14-5.37-1.17-9.4-1.17-9.4l17.09-18.98,.92,9.95Z" style="fill:#263238;"></path><path d="M304.79,254.74l1.18,6.35s15.2-29.38,9.82-40.44l-11,34.09Z" style="opacity:.4;"></path><g><path d="M265.17,255.9l-11.33-2.57s-2.44,1.3-4.37,1.81c-1.93,.5-2.62,1.1-5.57-.43-2.95-1.53-1.38-4.03-1.38-4.03-1.9,.3-2.03-2.77-2.03-2.77-2.44-1.63-.7-4.17-.7-4.17,0,0,1.53-3.15,2.86-4.06,1.32-.91,7.02,.12,7.02,.12l4.61,3.54,13.15,.61c-.03,.23-2.26,11.96-2.26,11.96Z" style="fill:#e9b376;"></path><path d="M304.47,202.71s-4.65,9.2-6.29,16.03c-1.51,6.27-7.54,23.17-7.54,23.17l-35.96,.73-2.41,11.75s42.38,10.14,48.52,5.45c6.14-4.69,8.59-13.78,12.85-23.18,4.03-8.91,5.9-15.73,6.32-17.16,.85-2.84,4.03-15.81-2.97-20.36-7-4.55-12.52,3.56-12.52,3.56Z" style="fill:#263238;"></path></g><path d="M302.9,206.03s2.43-9.98,13.11-7.43c0,0-5.47-2.93-9.81-.42-4.34,2.51-3.3,7.85-3.3,7.85Z" style="opacity:.4;"></path><path d="M314.94,279.48l-.16-.47c4.38-1.49,42.84-14.58,43.56-14.68l.08,.49c-.76,.15-28.77,9.66-43.48,14.66Z" style="opacity:.4;"></path><g><path d="M350.01,225.9s-.99,3.95,.45,4.3c1.44,.35,1.4-1.34,1.4-1.34,0,0,.07,.1,.19,.22l-1.41-3.21c-.25-.06-.47-.07-.62,.02Z" style="fill:none;"></path><path d="M340.64,219.08c-1.61,.34-3.06,1.23-4.27,2.35-.81,.69-1.24,2.27-.81,3.34,.43,1.07,1.46,1.77,2.5,2.27,1.68,.81,3.6,1.26,5.41,.84,1.81-.41,3.46-1.83,3.77-3.67,.27-1.62-.56-3.32-1.89-4.28-1.34-.95-3.11-1.2-4.72-.86Z" style="fill:none;"></path><path d="M352.43,228.24s-.53,2.32-1.97,1.97c-1.44-.35-.45-4.3-.45-4.3,.15-.09,1.17,.06,1.43,.12-2.42-5.68-5.25-11.61-8.32-17.68-.26,.12-.81,.07-1.03,.19-3.24,1.28-6.54,2.59-9.06,5.14-2.52,2.55-4.17,6.6-3.33,10.89s4.74,8.3,8.16,7.58c1.52-.32,3.18-1.4,4.55-.15,.99,.89,1.18,2.49,1.85,3.73,.93,1.72,2.91,2.59,4.29,1.88,1.38-.7,1.93-2.88,1.2-4.7,.87,2.32,4.09,3.91,5.8,2.96l-3.12-7.63Zm-5.18-4.02c-.31,1.83-1.96,3.25-3.77,3.67-1.81,.42-3.73-.03-5.41-.84-1.04-.5-2.07-1.2-2.5-2.27-.43-1.07,0-2.64,.81-3.34,1.2-1.12,2.66-2.01,4.27-2.35,1.61-.34,3.38-.1,4.72,.86s2.17,2.66,1.89,4.28Z" style="fill:#34A853;"></path></g></g></g><polygon points="189.32 297.74 198.49 280.33 182.01 299.9 189.32 297.74" style="opacity:.3;"></polygon></g><g id="freepik--Plant--inject-235"><g><path d="M339.15,429.16c-.69-1.15-2.21-2.57-3.29-3.38-1.07-.81-2.54-1.21-3.78-.7-1.58,.65-2.32,2.59-2.09,4.29,.22,1.7,1.03,3.84,2,5.26,4.12,6.03,7.94,11.56,14.3,16.05,0-7.49-3.33-15.12-7.13-21.52Z" style="fill:#34A853;"></path><path d="M360.14,430.2c-1.42-.78-4.07,.33-5.37,1.3-2.57,1.93-4.14,3.95-5.71,6.76-1.99,3.57-2.22,8.57-2.48,11.75,5.04-4.09,10.17-8.28,13.62-13.78,.6-.96,1.16-1.99,1.27-3.12,.11-1.13-.34-2.37-1.33-2.92Z" style="fill:#34A853;"></path><path d="M347.04,453.82c-.12,0-.22-.08-.24-.2-1.2-5.52-3.31-10.75-6.29-15.55-.07-.12-.04-.27,.08-.34,.12-.07,.27-.04,.34,.08,3.01,4.85,5.14,10.13,6.35,15.71,.03,.13-.06,.27-.19,.3-.02,0-.04,0-.05,0Z" style="fill:#263238;"></path><path d="M346.38,450.75s-.06,0-.08-.01c-.13-.05-.2-.19-.15-.32,1.35-3.72,3.32-7.15,5.85-10.19,.09-.11,.25-.12,.35-.03,.11,.09,.12,.25,.03,.35-2.5,3-4.44,6.38-5.77,10.04-.04,.1-.13,.17-.24,.17Z" style="fill:#263238;"></path></g></g></svg>
