<?xml version="1.0" encoding="UTF-8"?> <svg xmlns="http://www.w3.org/2000/svg" width="89" height="54" viewBox="0 0 89 54" fill="none"><g clip-path="url(#clip0)"><path d="M71.3847 0.50824V40.381H62.2523V2.50519L71.3847 0.50824ZM45.3751 11.8271C42.5876 11.8271 39.8627 12.6761 37.545 14.2667C35.2273 15.8573 33.4208 18.1181 32.3541 20.7633C31.2874 23.4084 31.0083 26.319 31.5521 29.127C32.0959 31.9351 33.4382 34.5144 35.4093 36.5389C37.3803 38.5634 39.8916 39.9421 42.6256 40.5006C45.3595 41.0592 48.1933 40.7725 50.7686 39.6769C53.3439 38.5812 55.5451 36.7258 57.0938 34.3453C58.6424 31.9647 59.469 29.166 59.469 26.3029C59.4669 22.4644 57.9813 18.7837 55.3386 16.0694C52.696 13.3551 49.1124 11.8293 45.3751 11.8271ZM45.3751 31.0012C44.4704 31.0012 43.586 30.7256 42.8338 30.2094C42.0816 29.6931 41.4953 28.9594 41.1491 28.1009C40.8029 27.2424 40.7123 26.2977 40.8888 25.3863C41.0653 24.475 41.5009 23.6378 42.1406 22.9808C42.7804 22.3237 43.5954 21.8763 44.4827 21.695C45.3701 21.5137 46.2898 21.6067 47.1256 21.9623C47.9615 22.3179 48.6759 22.9201 49.1785 23.6927C49.6811 24.4654 49.9494 25.3737 49.9494 26.3029C49.9494 27.549 49.4675 28.744 48.6096 29.6251C47.7518 30.5062 46.5883 31.0012 45.3751 31.0012Z" fill="black"></path><path d="M45.3748 53.5394C47.8966 53.5394 49.941 51.4397 49.941 48.8495C49.941 46.2593 47.8966 44.1595 45.3748 44.1595C42.8529 44.1595 40.8086 46.2593 40.8086 48.8495C40.8086 51.4397 42.8529 53.5394 45.3748 53.5394Z" fill="black"></path><path d="M25.0525 19.2929C26.2312 17.3521 26.8521 15.1088 26.8435 12.8214C26.8435 11.2044 26.5334 9.60327 25.931 8.10937C25.3285 6.61546 24.4455 5.25807 23.3322 4.11468C22.219 2.9713 20.8975 2.06432 19.443 1.44552C17.9885 0.826729 16.4296 0.50824 14.8553 0.50824L0.648438 0.50824V40.381H16.6301C19.0085 40.3796 21.3328 39.652 23.3077 38.2907C25.2826 36.9295 26.819 34.996 27.7217 32.7359C28.6243 30.4758 28.8525 27.9911 28.3773 25.5975C27.902 23.2039 26.7448 21.0094 25.0525 19.2929ZM9.79695 9.88813H14.8714C15.6288 9.88813 16.3552 10.1972 16.8908 10.7473C17.4264 11.2974 17.7273 12.0435 17.7273 12.8214C17.7273 13.5994 17.4264 14.3455 16.8908 14.8956C16.3552 15.4457 15.6288 15.7547 14.8714 15.7547H9.79695V9.88813ZM16.6462 31.0012H9.79695V25.1346H16.6462C17.4037 25.1346 18.1301 25.4436 18.6657 25.9937C19.2012 26.5438 19.5021 27.2899 19.5021 28.0679C19.5021 28.8458 19.2012 29.5919 18.6657 30.142C18.1301 30.6921 17.4037 31.0012 16.6462 31.0012ZM88.6404 21.7456V12.3657H84.0661V5.19818L74.9337 7.19514V31.4652C74.9337 37.1826 78.4027 40.4805 83.5014 40.7539H84.1952C85.7507 40.7476 87.2805 40.3463 88.6484 39.5856V32.7081C87.9832 32.8935 87.2966 32.9855 86.6074 32.9815C84.7841 32.9815 84.0822 31.3243 84.0822 29.1119V21.7456H88.6404Z" fill="black"></path></g><defs><clipPath id="clip0"><rect width="88" height="53.0312" fill="white" transform="translate(0.648438 0.50824)"></rect></clipPath></defs></svg> 