<?xml version="1.0" encoding="UTF-8"?> <svg xmlns="http://www.w3.org/2000/svg" width="129" height="40" viewBox="0 0 129 40" fill="none"><path d="M48.2993 9.33547V8.94141H38.6132V9.33547H38.9922C40.0549 9.33547 40.9242 10.4052 40.9959 12.557V23.3954C40.9959 25.4894 38.6158 28.8171 36.4147 28.8171C34.8571 28.8171 33.4826 27.8323 32.9436 26.2568C32.4872 24.9247 32.3712 23.537 32.3622 22.1318C32.3533 20.8171 32.3429 12.5653 32.3429 12.5653C32.4129 10.4079 33.2828 9.33547 34.3469 9.33547H34.7258V8.94141H25.041V9.33547H25.42C26.4821 9.33547 27.3513 10.4052 27.4224 12.557C27.4224 12.557 27.4148 20.6073 27.4148 22.0338C27.4148 30.6266 32.5165 30.9718 33.6816 30.9718C37.9845 30.9718 40.138 27.2609 40.9959 25.806C40.9959 26.018 40.9959 27.1068 40.9959 27.4555C40.9959 30.183 40.3289 37.4623 33.2323 37.3526C32.1145 37.3354 28.8822 37.2023 26.8763 35.0455L26.7086 35.2506C27.911 37.3133 30.1747 39.8923 35.3269 39.8923C44.9504 39.8923 45.9115 31.7611 45.9115 29.0932L45.9158 12.5887C45.9799 10.4176 46.8531 9.33824 47.9204 9.33824L48.2993 9.33547Z" fill="black"></path><path d="M18.5927 14.0639C17.0793 13.5263 14.8303 13.4842 14.8303 13.4842V13.4525C14.8303 13.4525 17.1849 13.4056 18.7355 12.6844C22.0709 11.135 23.7118 9.16472 23.7118 6.64026C23.7118 4.72102 22.5927 3.18964 22.0863 2.70655C21.0479 1.7107 19.7393 0.13031 14.5473 0.13031H0.697266V0.525063H1.38228C2.49174 0.525063 3.39059 1.68999 3.39059 4.03574C3.39059 5.75621 3.39059 27.0079 3.39059 27.0079C3.31953 29.1598 2.45013 30.2293 1.38804 30.2293H0.704308V30.6268H8.30793V0.813535H13.2458C17.3245 0.813535 18.9243 3.23794 18.9243 6.4629C18.9243 9.44354 17.0262 13.271 12.3534 13.271V13.8452C17.0268 13.8452 20.5889 18.4331 20.5889 22.7692C20.5889 24.1369 20.3898 30.0845 15.9417 30.0845C13.3265 30.0845 11.2503 28.4434 10.1504 26.3902L9.85851 26.6139C10.9283 28.7857 13.1338 30.972 16.4077 30.972C19.2745 30.972 21.2611 30.3019 22.6369 29.3453C25.766 27.1695 25.7412 23.5131 25.7412 22.8851C25.7412 18.7982 23.4121 15.7761 18.5927 14.0639Z" fill="black"></path><path d="M72.6243 23.0931C72.6243 19.9489 72.6243 15.5522 72.6243 12.7289V10.0188C72.6468 7.59921 73.4258 2.61445 75.8383 1.0244C76.6467 0.491625 77.8452 0.513709 77.8452 0.513709V0.118958H66.5022V0.513709C66.5022 0.513709 67.7005 0.491625 68.5085 1.0244C70.9207 2.61168 71.7 7.59921 71.7231 10.0188C71.7231 10.0188 71.7231 19.5908 71.7231 24.6237C71.7231 24.6237 61.4927 9.01879 58.5784 4.52471C56.5862 1.45366 55.0601 0.118958 51.9696 0.118958C51.2213 0.118958 47.4198 0.118958 46.459 0.118958V0.512328C47.5602 0.512328 49.9666 0.548904 52.3302 4.16999V20.7129C52.3078 23.1283 51.5287 28.1165 49.1159 29.7067C48.3079 30.2394 47.1093 30.218 47.1093 30.218V30.6128H58.4562V30.218C58.4562 30.218 57.2577 30.2394 56.4499 29.7067C54.0368 28.1193 53.2578 23.1318 53.2353 20.7129C53.2353 20.7129 53.2265 10.3749 53.2265 5.53021C53.2265 5.53021 65.9024 24.9226 67.0066 26.6045C67.8189 27.8439 68.895 28.855 70.1449 29.5528C71.3949 30.2506 72.7819 30.6149 74.1897 30.6149H77.7055V30.2008C76.0859 30.0835 75.0584 29.1325 74.4061 28.4305C72.956 26.8708 72.625 24.9805 72.6243 23.0931Z" fill="black"></path><path d="M124.119 28.5416C121.302 28.5416 121.068 26.1344 121.068 22.9129C121.068 20.8832 121.068 15.6603 121.068 10.6141C123.137 10.6141 126.587 10.6197 128.727 10.6231V8.94681C125.935 8.94681 124.009 8.92609 121.066 8.92472V4.59143H120.49C120.157 4.90889 116.702 8.19803 115.924 8.94681H112.423C109.981 8.94681 108.624 9.55342 107.073 11.5755L103.818 16.2538C102.83 14.7004 101.85 13.1607 100.985 11.8026C100.159 10.5065 101.044 9.34087 102.269 9.34087H102.888V8.94681H90.7364V9.35329C92.657 9.36363 94.296 10.4092 95.9567 13.1911C96.0583 13.3615 98.3631 16.9916 100.7 20.6631L100.534 20.8515C97.7287 23.946 94.5193 27.0701 89.2979 27.0701C81.6739 27.0701 79.3888 20.4823 79.1688 19.2635H88.1769C90.4669 19.2635 91.6981 18.3297 92.1025 17.1607C93.3356 13.5831 90.9681 10.3236 88.4779 9.36777C86.8408 8.7384 84.5087 8.56308 82.3959 9.23736C78.7134 10.4106 74.75 13.639 74.75 19.5464C74.75 23.5492 76.5151 30.9481 86.2833 30.9481C94.5072 30.9481 99.3854 24.4877 101.19 21.8998L101.352 21.6879C103.4 24.9045 105.316 27.9052 105.615 28.3517C107.135 30.6292 109.145 30.9481 110.33 30.9481C114.192 30.9481 115.627 27.008 115.627 27.008L115.394 26.8108L114.932 27.4034C114.007 28.5311 111.994 28.995 110.119 26.153C109.961 25.9121 107.346 21.799 104.586 17.4574L108.207 13.2263C109.727 11.5872 110.429 10.5976 113.369 10.5976H116.136C116.141 13.2829 116.136 20.2883 116.136 23.7501C116.136 27.2973 117.536 30.9562 122.011 30.9562C126.467 30.9562 127.695 27.6555 128.726 25.6782L128.509 25.5479C128.495 25.5679 126.753 28.5416 124.119 28.5416ZM79.0245 17.7211C79.0245 15.0648 79.679 12.0751 80.8972 10.8088C82.2281 9.42852 83.9702 9.05653 85.6269 10.1186C87.0476 11.0248 88.5379 13.8584 87.6986 17.171C87.5961 17.5761 87.3728 17.9336 87.0632 18.1885C86.7538 18.4433 86.3751 18.5815 85.9855 18.5817H79.0714C79.0418 18.2959 79.0263 18.0086 79.0245 17.7211Z" fill="black"></path></svg> 