<svg xmlns="http://www.w3.org/2000/svg" fill="none" viewBox="0 0 96 96" id="CoinsFive"><path fill="#02240b" fill-opacity=".1" d="M81.0948 28.8247C82.3606 37.5701 76.2972 45.6858 67.5517 46.9516C58.8063 48.2174 50.6906 42.1539 49.4248 33.4085C48.1591 24.6631 54.2225 16.5474 62.9679 15.2816C71.7134 14.0158 79.8291 20.0792 81.0948 28.8247Z" class="color021024 svgShape"></path><path fill="#23ff5e" d="M77.9825 28.2647C79.0901 35.917 73.7846 43.0182 66.1323 44.1257C58.4801 45.2333 51.3789 39.9278 50.2713 32.2755C49.1637 24.6233 54.4692 17.5221 62.1215 16.4145C69.7737 15.3069 76.875 20.6125 77.9825 28.2647Z" class="colorffcf23 svgShape"></path><path fill="#00b931" fill-rule="evenodd" d="M79.9619 27.9782C81.2277 36.7237 75.1642 44.8394 66.4188 46.1051C57.6734 47.3709 49.5577 41.3075 48.2919 32.562C47.0261 23.8166 53.0896 15.7009 61.835 14.4351C70.5804 13.1694 78.6961 19.2328 79.9619 27.9782ZM66.1323 44.1258C73.7846 43.0182 79.0901 35.917 77.9825 28.2647C76.875 20.6125 69.7737 15.307 62.1215 16.4145C54.4692 17.5221 49.1637 24.6233 50.2713 32.2756C51.3788 39.9278 58.4801 45.2333 66.1323 44.1258Z" clip-rule="evenodd" class="colorb96f00 svgShape"></path><path fill="#00f943" fill-rule="evenodd" d="M62.5512 19.3836C56.5387 20.2538 52.3701 25.8333 53.2404 31.8458C54.1106 37.8583 59.6901 42.0269 65.7026 41.1567C71.7151 40.2865 75.8837 34.7069 75.0135 28.6944C74.1432 22.682 68.5637 18.5133 62.5512 19.3836ZM51.261 32.1323C50.2325 25.0266 55.1591 18.4326 62.2647 17.4042C69.3704 16.3757 75.9644 21.3023 76.9929 28.4079C78.0213 35.5136 73.0947 42.1076 65.9891 43.1361C58.8834 44.1645 52.2894 39.238 51.261 32.1323Z" clip-rule="evenodd" class="colorf9b300 svgShape"></path><path fill="#92ffaf" fill-rule="evenodd" d="M62.8377 21.3629C57.9184 22.0749 54.5077 26.64 55.2197 31.5593C55.2988 32.1059 54.9199 32.6131 54.3733 32.6922C53.8267 32.7713 53.3195 32.3924 53.2404 31.8458C52.3701 25.8333 56.5388 20.2538 62.5512 19.3835C63.0978 19.3044 63.6051 19.6834 63.6842 20.23C63.7633 20.7766 63.3843 21.2838 62.8377 21.3629Z" clip-rule="evenodd" class="colorffe792 svgShape"></path><path fill="#dfffe8" fill-rule="evenodd" d="M58.7226 21.794C59.0648 22.2275 58.9907 22.8563 58.5572 23.1985C57.9614 23.6687 57.4289 24.2115 56.9712 24.8115C56.6363 25.2507 56.0088 25.3351 55.5697 25.0002C55.1305 24.6652 55.0461 24.0377 55.381 23.5986C55.9396 22.8663 56.5899 22.2033 57.3181 21.6286C57.7516 21.2864 58.3804 21.3604 58.7226 21.794Z" clip-rule="evenodd" class="colorfff8df svgShape"></path><path fill="#00f943" d="M73.7372 26.8582C73.8164 27.4048 73.4374 27.912 72.8908 27.9912 72.3442 28.0703 71.837 27.6913 71.7579 27.1447 71.6788 26.5981 72.0577 26.0909 72.6043 26.0118 73.1509 25.9327 73.6581 26.3116 73.7372 26.8582zM76.2896 30.5306C76.3687 31.0772 75.9898 31.5844 75.4432 31.6635 74.8966 31.7426 74.3893 31.3637 74.3102 30.8171 74.2311 30.2705 74.6101 29.7633 75.1567 29.6841 75.7033 29.605 76.2105 29.984 76.2896 30.5306zM74.8832 34.7757C74.9624 35.3223 74.5834 35.8295 74.0368 35.9086 73.4902 35.9878 72.983 35.6088 72.9039 35.0622 72.8248 34.5156 73.2037 34.0084 73.7503 33.9293 74.2969 33.8502 74.8041 34.2291 74.8832 34.7757zM70.3646 38.461C70.4437 39.0076 70.0647 39.5148 69.5181 39.5939 68.9715 39.6731 68.4643 39.2941 68.3852 38.7475 68.3061 38.2009 68.685 37.6937 69.2316 37.6146 69.7782 37.5355 70.2855 37.9144 70.3646 38.461zM67.6819 40.8702C67.7611 41.4168 67.3821 41.924 66.8355 42.0031 66.2889 42.0822 65.7817 41.7033 65.7026 41.1567 65.6235 40.6101 66.0024 40.1029 66.549 40.0237 67.0956 39.9446 67.6028 40.3236 67.6819 40.8702zM73.4638 31.9499C73.5429 32.4965 73.164 33.0037 72.6174 33.0828 72.0708 33.1619 71.5635 32.783 71.4844 32.2364 71.4053 31.6898 71.7843 31.1826 72.3309 31.1035 72.8775 31.0243 73.3847 31.4033 73.4638 31.9499zM71.0547 29.2674C71.1339 29.814 70.7549 30.3212 70.2083 30.4003 69.6617 30.4795 69.1545 30.1005 69.0754 29.5539 68.9963 29.0073 69.3752 28.5001 69.9218 28.421 70.4684 28.3419 70.9756 28.7208 71.0547 29.2674zM71.9141 35.2055C71.9932 35.7521 71.6143 36.2593 71.0677 36.3384 70.5211 36.4176 70.0139 36.0386 69.9347 35.492 69.8556 34.9454 70.2346 34.4382 70.7812 34.3591 71.3278 34.28 71.835 34.6589 71.9141 35.2055z" class="colorf9b300 svgShape"></path><path fill="#00b931" d="M59.5252 25.4737L61.159 36.7623 59.1101 37.0588 57.822 28.1594 55.2379 29.4491 54.9984 27.7945 59.2932 25.5072 59.5252 25.4737zM71.4467 28.5398L71.7209 30.4341C71.8462 31.3001 71.8656 32.0524 71.7792 32.6912 71.6927 33.33 71.5128 33.8691 71.2396 34.3086 70.9657 34.743 70.6128 35.0861 70.1809 35.3381 69.7482 35.5849 69.251 35.749 68.6891 35.8303 68.2407 35.8952 67.8149 35.8989 67.4119 35.8415 67.0082 35.7789 66.6341 35.6488 66.2898 35.4513 65.9499 35.2479 65.6415 34.9715 65.3646 34.6222 65.0929 34.2721 64.8593 33.8401 64.6639 33.3263 64.4737 32.8118 64.3286 32.2092 64.2286 31.5185L63.9544 29.6242C63.8291 28.7582 63.81 28.0084 63.8973 27.3748 63.9896 26.7404 64.1728 26.2061 64.4467 25.7717 64.7207 25.3374 65.0743 24.9994 65.5077 24.7577 65.9404 24.5109 66.4376 24.3469 66.9995 24.2655 67.4531 24.1999 67.8788 24.1962 68.2767 24.2543 68.6797 24.3118 69.0508 24.4396 69.39 24.6379 69.7336 24.8302 70.0412 25.1015 70.3129 25.4516 70.5839 25.7965 70.8145 26.2263 71.0047 26.7408 71.1994 27.2494 71.3467 27.8491 71.4467 28.5398zM69.7199 31.0079L69.364 28.5491C69.3014 28.1161 69.2211 27.7436 69.1233 27.4315 69.0299 27.1134 68.9204 26.8477 68.7948 26.6344 68.6692 26.421 68.5268 26.2548 68.3674 26.1358 68.2074 26.0116 68.0323 25.929 67.8422 25.8881 67.6521 25.8472 67.4488 25.8424 67.2323 25.8738 66.9642 25.9126 66.7324 26.0014 66.5367 26.1402 66.3403 26.2739 66.1863 26.4646 66.0748 26.7123 65.9633 26.96 65.8961 27.2776 65.8733 27.665 65.8548 28.0466 65.8844 28.5055 65.962 29.0415L66.3179 31.5003C66.3805 31.9333 66.4586 32.3088 66.552 32.6268 66.6505 32.9441 66.763 33.212 66.8893 33.4305 67.0208 33.6483 67.1644 33.8222 67.3201 33.9523 67.4801 34.0765 67.6556 34.1616 67.8464 34.2077 68.0366 34.2486 68.2399 34.2534 68.4564 34.222 68.7296 34.1825 68.9614 34.0937 69.1519 33.9556 69.3476 33.8167 69.5008 33.6209 69.6116 33.3681 69.7216 33.1101 69.7854 32.7877 69.8031 32.401 69.8252 32.0083 69.7975 31.544 69.7199 31.0079z" class="colorb96f00 svgShape"></path><path fill="#02240b" fill-opacity=".1" d="M61.0167 78.9618C58.7296 87.4972 49.9562 92.5625 41.4208 90.2755C32.8853 87.9884 27.82 79.215 30.1071 70.6795C32.3941 62.1441 41.1675 57.0788 49.703 59.3658C58.2384 61.6529 63.3038 70.4263 61.0167 78.9618Z" class="color021024 svgShape"></path><path fill="#23ff5e" d="M58.3777 77.2194C56.3765 84.6879 48.6998 89.12 41.2312 87.1189C33.7627 85.1177 29.3305 77.441 31.3317 69.9724C33.3329 62.5039 41.0096 58.0717 48.4782 60.0729C55.9467 62.0741 60.3788 69.7508 58.3777 77.2194Z" class="colorffcf23 svgShape"></path><path fill="#00b931" fill-rule="evenodd" d="M60.3095 77.737C58.0225 86.2725 49.2491 91.3378 40.7136 89.0507C32.1782 86.7637 27.1128 77.9903 29.3999 69.4548C31.687 60.9194 40.4604 55.854 48.9958 58.1411C57.5313 60.4282 62.5966 69.2016 60.3095 77.737ZM41.2313 87.1189C48.6998 89.1201 56.3765 84.6879 58.3777 77.2194C60.3789 69.7509 55.9467 62.0741 48.4782 60.073C41.0097 58.0718 33.3329 62.5039 31.3318 69.9725C29.3306 77.441 33.7627 85.1177 41.2313 87.1189Z" clip-rule="evenodd" class="colorb96f00 svgShape"></path><path fill="#00f943" fill-rule="evenodd" d="M47.7018 62.9707C41.8336 61.3983 35.8019 64.8807 34.2296 70.7489C32.6572 76.617 36.1396 82.6487 42.0077 84.2211C47.8759 85.7934 53.9076 82.311 55.4799 76.4429C57.0523 70.5748 53.5699 64.5431 47.7018 62.9707ZM32.2977 70.2312C34.1559 63.2962 41.2843 59.1806 48.2194 61.0388C55.1544 62.8971 59.27 70.0255 57.4118 76.9605C55.5535 83.8956 48.4252 88.0112 41.4901 86.1529C34.555 84.2947 30.4395 77.1663 32.2977 70.2312Z" clip-rule="evenodd" class="colorf9b300 svgShape"></path><path fill="#92ffaf" fill-rule="evenodd" d="M47.1841 64.9026C42.3829 63.6162 37.4479 66.4654 36.1614 71.2666C36.0184 71.8001 35.4701 72.1166 34.9366 71.9737C34.4032 71.8308 34.0866 71.2824 34.2295 70.749C35.8019 64.8808 41.8336 61.3984 47.7017 62.9708C48.2352 63.1137 48.5518 63.6621 48.4088 64.1955C48.2659 64.729 47.7176 65.0456 47.1841 64.9026Z" clip-rule="evenodd" class="colorffe792 svgShape"></path><path fill="#dfffe8" fill-rule="evenodd" d="M43.2328 63.6752C43.3762 64.2085 43.0601 64.7571 42.5267 64.9005C41.7938 65.0976 41.0903 65.3862 40.433 65.757C39.952 66.0284 39.3421 65.8585 39.0707 65.3775C38.7993 64.8964 38.9693 64.2865 39.4503 64.0151C40.2524 63.5626 41.1115 63.21 42.0075 62.9691C42.5408 62.8257 43.0894 63.1418 43.2328 63.6752Z" clip-rule="evenodd" class="colorfff8df svgShape"></path><path fill="#00f943" d="M55.0317 74.2522C54.8887 74.7857 54.3404 75.1023 53.8069 74.9593 53.2735 74.8164 52.9569 74.2681 53.0998 73.7346 53.2428 73.2011 53.7911 72.8846 54.3246 73.0275 54.858 73.1704 55.1746 73.7188 55.0317 74.2522zM55.9283 78.6336C55.7853 79.1671 55.237 79.4836 54.7035 79.3407 54.1701 79.1978 53.8535 78.6494 53.9964 78.116 54.1394 77.5825 54.6877 77.2659 55.2212 77.4088 55.7546 77.5518 56.0712 78.1001 55.9283 78.6336zM52.9611 81.9797C52.8182 82.5131 52.2698 82.8297 51.7364 82.6868 51.2029 82.5438 50.8863 81.9955 51.0293 81.462 51.1722 80.9286 51.7205 80.612 52.254 80.7549 52.7875 80.8979 53.1041 81.4462 52.9611 81.9797zM47.355 83.5833C47.2121 84.1168 46.6638 84.4333 46.1303 84.2904 45.5968 84.1475 45.2802 83.5991 45.4232 83.0657 45.5661 82.5322 46.1145 82.2156 46.6479 82.3586 47.1814 82.5015 47.498 83.0498 47.355 83.5833zM43.9396 84.7387C43.7967 85.2722 43.2484 85.5887 42.7149 85.4458 42.1814 85.3029 41.8648 84.7545 42.0078 84.2211 42.1507 83.6876 42.6991 83.371 43.2325 83.5139 43.766 83.6569 44.0826 84.2052 43.9396 84.7387zM52.7717 78.823C52.6287 79.3565 52.0804 79.6731 51.5469 79.5301 51.0135 79.3872 50.6969 78.8389 50.8398 78.3054 50.9828 77.7719 51.5311 77.4554 52.0646 77.5983 52.598 77.7412 52.9146 78.2896 52.7717 78.823zM51.6163 75.4076C51.4733 75.9411 50.925 76.2577 50.3915 76.1147 49.8581 75.9718 49.5415 75.4235 49.6844 74.89 49.8274 74.3565 50.3757 74.0399 50.9092 74.1829 51.4426 74.3258 51.7592 74.8742 51.6163 75.4076zM50.0633 81.2032C49.9203 81.7366 49.372 82.0532 48.8385 81.9103 48.3051 81.7673 47.9885 81.219 48.1314 80.6855 48.2744 80.1521 48.8227 79.8355 49.3562 79.9784 49.8897 80.1214 50.2062 80.6697 50.0633 81.2032z" class="colorf9b300 svgShape"></path><path fill="#00b931" d="M42.5185 67.373L39.5664 78.3906 37.5666 77.8548 39.8939 69.169 37.0106 69.3346 37.4433 67.7197 42.2921 67.3124 42.5185 67.373zM52.2635 74.8936L51.7681 76.7425C51.5416 77.5877 51.2626 78.2867 50.9312 78.8395 50.5997 79.3924 50.2218 79.8168 49.7973 80.1129 49.3743 80.4039 48.9146 80.58 48.4183 80.6412 47.9234 80.6973 47.4017 80.6519 46.8534 80.5049 46.4157 80.3876 46.023 80.2231 45.6754 80.0113 45.329 79.7945 45.0366 79.5275 44.7981 79.2101 44.566 78.8891 44.3917 78.5135 44.2751 78.0832 44.1636 77.6543 44.1194 77.1653 44.1425 76.6161 44.1707 76.0683 44.2751 75.4573 44.4557 74.7831L44.9511 72.9343C45.1776 72.0891 45.4559 71.3926 45.786 70.8448 46.1211 70.2984 46.5002 69.8796 46.9233 69.5886 47.3464 69.2975 47.8047 69.1265 48.2983 69.0754 48.7932 69.0193 49.3149 69.0647 49.8632 69.2116 50.3059 69.3302 50.6986 69.4948 51.0412 69.7052 51.3889 69.917 51.6795 70.1809 51.9129 70.4969 52.1528 70.8092 52.3285 71.1798 52.44 71.6087 52.5529 72.0325 52.5953 72.5184 52.5671 73.0662 52.5453 73.6104 52.4441 74.2195 52.2635 74.8936zM49.703 76.4803L50.346 74.0806C50.4593 73.658 50.5325 73.284 50.5658 72.9586 50.6054 72.6296 50.6096 72.3422 50.5784 72.0966 50.5472 71.851 50.4818 71.642 50.3824 71.4698 50.2843 71.2926 50.156 71.1476 49.9974 71.035 49.8389 70.9225 49.6539 70.8379 49.4426 70.7813 49.181 70.7112 48.9329 70.7013 48.6984 70.7517 48.4651 70.797 48.2484 70.9115 48.0483 71.0951 47.8481 71.2787 47.6611 71.5441 47.4872 71.8911 47.3197 72.2344 47.1659 72.6677 47.0257 73.1909L46.3827 75.5906C46.2694 76.0132 46.193 76.3891 46.1534 76.7182 46.1187 77.0486 46.1164 77.3391 46.1463 77.5898 46.1812 77.8418 46.2445 78.0582 46.3362 78.2392 46.4343 78.4164 46.562 78.5639 46.7192 78.6815 46.8777 78.7941 47.0627 78.8787 47.2739 78.9353 47.5406 79.0067 47.7887 79.0166 48.0182 78.9649 48.2528 78.9145 48.4708 78.795 48.6724 78.6063 48.8752 78.4127 49.0611 78.1416 49.2299 77.7933 49.4051 77.4412 49.5629 77.0035 49.703 76.4803z" class="colorb96f00 svgShape"></path><path fill="#02240b" fill-opacity=".1" d="M44.2755 58.4208C46.5625 66.9562 41.4972 75.7296 32.9618 78.0167C24.4263 80.3038 15.6529 75.2384 13.3658 66.703C11.0788 58.1675 16.1441 49.3941 24.6795 47.1071C33.215 44.82 41.9884 49.8853 44.2755 58.4208Z" class="color021024 svgShape"></path><path fill="#ceead5" d="M41.1189 58.2312C43.12 65.6998 38.6879 73.3765 31.2194 75.3777C23.7508 77.3788 16.0741 72.9467 14.0729 65.4782C12.0717 58.0096 16.5039 50.3329 23.9724 48.3317C31.441 46.3305 39.1177 50.7627 41.1189 58.2312Z" class="colorcedaea svgShape"></path><path fill="#34a853" fill-rule="evenodd" d="M43.0507 57.7136C45.3378 66.2491 40.2725 75.0225 31.737 77.3095C23.2016 79.5966 14.4282 74.5313 12.1411 65.9958C9.85404 57.4604 14.9194 48.687 23.4548 46.3999C31.9903 44.1128 40.7637 49.1782 43.0507 57.7136ZM31.2194 75.3777C38.6879 73.3765 43.1201 65.6998 41.1189 58.2313C39.1177 50.7627 31.441 46.3306 23.9725 48.3318C16.5039 50.3329 12.0718 58.0097 14.073 65.4782C16.0741 72.9467 23.7509 77.3789 31.2194 75.3777Z" clip-rule="evenodd" class="color6a7788 svgShape"></path><path fill="#acc5b3" fill-rule="evenodd" d="M24.7489 51.2296C18.8807 52.8019 15.3983 58.8336 16.9707 64.7018C18.5431 70.5699 24.5748 74.0523 30.4429 72.4799C36.311 70.9076 39.7934 64.8759 38.2211 59.0077C36.6487 53.1396 30.617 49.6572 24.7489 51.2296ZM15.0388 65.2194C13.1806 58.2843 17.2962 51.1559 24.2312 49.2977C31.1663 47.4395 38.2947 51.555 40.1529 58.4901C42.0112 65.4252 37.8956 72.5535 30.9605 74.4118C24.0255 76.27 16.8971 72.1544 15.0388 65.2194Z" clip-rule="evenodd" class="coloracb7c5 svgShape"></path><path fill="#e2ffea" fill-rule="evenodd" d="M25.2666 53.1614C20.4654 54.4479 17.6162 59.3829 18.9026 64.1841C19.0456 64.7176 18.729 65.2659 18.1955 65.4088C17.6621 65.5518 17.1137 65.2352 16.9708 64.7017C15.3984 58.8336 18.8808 52.8019 24.749 51.2295C25.2824 51.0866 25.8308 51.4032 25.9737 51.9366C26.1166 52.4701 25.8001 53.0184 25.2666 53.1614Z" clip-rule="evenodd" class="colore2efff svgShape"></path><path fill="#fefffe" fill-rule="evenodd" d="M21.2308 54.0741C21.6217 54.4643 21.6222 55.0975 21.232 55.4883C20.6958 56.0254 20.2309 56.6272 19.8471 57.2769C19.5662 57.7525 18.953 57.9103 18.4775 57.6294C18.002 57.3485 17.8442 56.7353 18.125 56.2598C18.5935 55.4668 19.1612 54.7318 19.8166 54.0753C20.2068 53.6844 20.84 53.6839 21.2308 54.0741Z" clip-rule="evenodd" class="colorfeffff svgShape"></path><path fill="#acc5b3" d="M36.7375 57.3346C36.8805 57.8681 36.5639 58.4164 36.0304 58.5594 35.497 58.7023 34.9486 58.3857 34.8057 57.8523 34.6628 57.3188 34.9793 56.7705 35.5128 56.6275 36.0463 56.4846 36.5946 56.8012 36.7375 57.3346zM39.7047 60.6807C39.8477 61.2142 39.5311 61.7625 38.9976 61.9055 38.4641 62.0484 37.9158 61.7318 37.7729 61.1983 37.6299 60.6649 37.9465 60.1165 38.48 59.9736 39.0134 59.8307 39.5618 60.1472 39.7047 60.6807zM38.8081 65.0621C38.951 65.5955 38.6345 66.1439 38.101 66.2868 37.5675 66.4297 37.0192 66.1132 36.8763 65.5797 36.7333 65.0462 37.0499 64.4979 37.5834 64.355 38.1168 64.212 38.6652 64.5286 38.8081 65.0621zM34.7549 69.254C34.8978 69.7874 34.5812 70.3358 34.0478 70.4787 33.5143 70.6216 32.966 70.3051 32.823 69.7716 32.6801 69.2381 32.9967 68.6898 33.5301 68.5468 34.0636 68.4039 34.6119 68.7205 34.7549 69.254zM32.3748 71.9622C32.5177 72.4957 32.2011 73.044 31.6676 73.1869 31.1342 73.3299 30.5858 73.0133 30.4429 72.4798 30.3 71.9464 30.6165 71.398 31.15 71.2551 31.6835 71.1122 32.2318 71.4287 32.3748 71.9622zM37.0657 62.4231C37.2086 62.9566 36.892 63.5049 36.3586 63.6479 35.8251 63.7908 35.2768 63.4742 35.1338 62.9408 34.9909 62.4073 35.3075 61.859 35.8409 61.716 36.3744 61.5731 36.9227 61.8897 37.0657 62.4231zM34.3574 60.043C34.5004 60.5765 34.1838 61.1248 33.6503 61.2678 33.1168 61.4107 32.5685 61.0941 32.4256 60.5607 32.2826 60.0272 32.5992 59.4788 33.1327 59.3359 33.6661 59.193 34.2145 59.5095 34.3574 60.043zM35.9103 65.8385C36.0532 66.372 35.7366 66.9203 35.2032 67.0633 34.6697 67.2062 34.1214 66.8897 33.9784 66.3562 33.8355 65.8227 34.1521 65.2744 34.6855 65.1314 35.219 64.9885 35.7673 65.3051 35.9103 65.8385z" class="coloracb7c5 svgShape"></path><path fill="#34a853" d="M25.7339 63.1463L24.0385 63.1881L23.1636 57.4777L29.2082 55.8581L29.651 57.5107L25.2591 58.6876L25.6598 61.3301C25.7901 61.1928 25.9909 61.0365 26.2621 60.8614C26.537 60.6799 26.8631 60.5386 27.2404 60.4375C27.7636 60.2973 28.2544 60.2575 28.7128 60.318C29.1698 60.3735 29.5841 60.5213 29.9558 60.7614C30.3325 61.0001 30.6552 61.3289 30.9237 61.7476C31.196 62.1599 31.409 62.6528 31.5626 63.2264C31.6974 63.7294 31.7487 64.2226 31.7164 64.7057C31.6878 65.1825 31.5684 65.6324 31.3582 66.0554C31.1466 66.4733 30.8383 66.8417 30.433 67.1606C30.0264 67.4744 29.5137 67.7143 28.8949 67.8801C28.4271 68.0054 27.9586 68.0582 27.4896 68.0383C27.0242 68.012 26.5847 67.9113 26.1712 67.7364C25.7563 67.5564 25.3932 67.2978 25.0817 66.9607C24.7754 66.6222 24.544 66.2016 24.3878 65.6988L26.3574 65.1711C26.4829 65.4987 26.6503 65.7612 26.8595 65.9586C27.0688 66.1559 27.3085 66.2858 27.5786 66.3482C27.8538 66.4093 28.1499 66.3974 28.4668 66.3125C28.7536 66.2356 28.9859 66.1167 29.1639 65.9558C29.3455 65.7885 29.478 65.5886 29.5612 65.356C29.6445 65.1234 29.6831 64.865 29.6771 64.5808C29.671 64.2967 29.6255 63.9961 29.5406 63.6792C29.4584 63.3723 29.3458 63.1032 29.203 62.8719C29.0588 62.6355 28.8837 62.4452 28.6779 62.3008C28.4721 62.1565 28.2375 62.0657 27.974 62.0284C27.7157 61.9898 27.4305 62.0123 27.1186 62.0958C26.701 62.2077 26.3959 62.3569 26.2032 62.5433C26.0156 62.7284 25.8591 62.9294 25.7339 63.1463Z" class="color6a7788 svgShape"></path><path fill="#02240b" fill-opacity=".1" d="M90.0167 57.9618C87.7296 66.4972 78.9562 71.5625 70.4208 69.2755C61.8853 66.9884 56.82 58.215 59.1071 49.6795C61.3941 41.1441 70.1675 36.0788 78.703 38.3658C87.2384 40.6529 92.3038 49.4263 90.0167 57.9618Z" class="color021024 svgShape"></path><path fill="#ceead5" d="M87.3777 56.2194C85.3765 63.6879 77.6998 68.12 70.2312 66.1189C62.7627 64.1177 58.3305 56.441 60.3317 48.9724C62.3329 41.5039 70.0096 37.0717 77.4782 39.0729C84.9467 41.0741 89.3788 48.7508 87.3777 56.2194Z" class="colorcedaea svgShape"></path><path fill="#34a853" fill-rule="evenodd" d="M89.3095 56.737C87.0225 65.2725 78.2491 70.3378 69.7136 68.0507C61.1782 65.7637 56.1128 56.9903 58.3999 48.4548C60.687 39.9194 69.4604 34.854 77.9958 37.1411C86.5313 39.4282 91.5966 48.2016 89.3095 56.737ZM70.2313 66.1189C77.6998 68.1201 85.3765 63.6879 87.3777 56.2194C89.3789 48.7509 84.9467 41.0741 77.4782 39.073C70.0097 37.0718 62.3329 41.5039 60.3318 48.9725C58.3306 56.441 62.7627 64.1177 70.2313 66.1189Z" clip-rule="evenodd" class="color6a7788 svgShape"></path><path fill="#acc5b3" fill-rule="evenodd" d="M76.7018 41.9707C70.8336 40.3983 64.8019 43.8807 63.2296 49.7489C61.6572 55.617 65.1396 61.6487 71.0077 63.2211C76.8759 64.7934 82.9076 61.311 84.4799 55.4429C86.0523 49.5748 82.5699 43.5431 76.7018 41.9707ZM61.2977 49.2312C63.1559 42.2962 70.2843 38.1806 77.2194 40.0388C84.1544 41.8971 88.27 49.0255 86.4118 55.9605C84.5535 62.8956 77.4252 67.0112 70.4901 65.1529C63.555 63.2947 59.4395 56.1663 61.2977 49.2312Z" clip-rule="evenodd" class="coloracb7c5 svgShape"></path><path fill="#e2ffea" fill-rule="evenodd" d="M76.1841 43.9026C71.3829 42.6162 66.4479 45.4654 65.1614 50.2666C65.0184 50.8001 64.4701 51.1166 63.9366 50.9737C63.4032 50.8308 63.0866 50.2824 63.2295 49.749C64.8019 43.8808 70.8336 40.3984 76.7017 41.9708C77.2352 42.1137 77.5518 42.6621 77.4088 43.1955C77.2659 43.729 76.7176 44.0456 76.1841 43.9026Z" clip-rule="evenodd" class="colore2efff svgShape"></path><path fill="#fefffe" fill-rule="evenodd" d="M72.2328 42.6752C72.3762 43.2085 72.0601 43.7571 71.5267 43.9005C70.7938 44.0976 70.0903 44.3862 69.433 44.757C68.952 45.0284 68.3421 44.8585 68.0707 44.3775C67.7993 43.8964 67.9693 43.2865 68.4503 43.0151C69.2524 42.5626 70.1115 42.21 71.0075 41.9691C71.5408 41.8257 72.0894 42.1418 72.2328 42.6752Z" clip-rule="evenodd" class="colorfeffff svgShape"></path><path fill="#acc5b3" d="M84.0317 53.2522C83.8887 53.7857 83.3404 54.1023 82.8069 53.9593 82.2735 53.8164 81.9569 53.2681 82.0998 52.7346 82.2428 52.2011 82.7911 51.8846 83.3246 52.0275 83.858 52.1704 84.1746 52.7188 84.0317 53.2522zM84.9283 57.6336C84.7853 58.1671 84.237 58.4836 83.7035 58.3407 83.1701 58.1978 82.8535 57.6494 82.9964 57.116 83.1394 56.5825 83.6877 56.2659 84.2212 56.4088 84.7546 56.5518 85.0712 57.1001 84.9283 57.6336zM81.9611 60.9797C81.8182 61.5131 81.2698 61.8297 80.7364 61.6868 80.2029 61.5438 79.8863 60.9955 80.0293 60.462 80.1722 59.9286 80.7205 59.612 81.254 59.7549 81.7875 59.8979 82.1041 60.4462 81.9611 60.9797zM76.355 62.5833C76.2121 63.1168 75.6638 63.4333 75.1303 63.2904 74.5968 63.1475 74.2802 62.5991 74.4232 62.0657 74.5661 61.5322 75.1145 61.2156 75.6479 61.3586 76.1814 61.5015 76.498 62.0498 76.355 62.5833zM72.9396 63.7387C72.7967 64.2722 72.2484 64.5887 71.7149 64.4458 71.1814 64.3029 70.8648 63.7545 71.0078 63.2211 71.1507 62.6876 71.6991 62.371 72.2325 62.5139 72.766 62.6569 73.0826 63.2052 72.9396 63.7387zM81.7717 57.823C81.6287 58.3565 81.0804 58.6731 80.5469 58.5301 80.0135 58.3872 79.6969 57.8389 79.8398 57.3054 79.9828 56.7719 80.5311 56.4554 81.0646 56.5983 81.598 56.7412 81.9146 57.2896 81.7717 57.823zM80.6163 54.4076C80.4733 54.9411 79.925 55.2577 79.3915 55.1147 78.8581 54.9718 78.5415 54.4235 78.6844 53.89 78.8274 53.3565 79.3757 53.0399 79.9092 53.1829 80.4426 53.3258 80.7592 53.8742 80.6163 54.4076zM79.0633 60.2032C78.9203 60.7366 78.372 61.0532 77.8385 60.9103 77.3051 60.7673 76.9885 60.219 77.1314 59.6855 77.2744 59.1521 77.8227 58.8355 78.3562 58.9784 78.8897 59.1214 79.2062 59.6697 79.0633 60.2032z" class="coloracb7c5 svgShape"></path><path fill="#34a853" d="M71.5964 52.7834L70.1073 51.9719L72.2047 46.5891L78.2493 48.2088L77.8065 49.8614L73.4145 48.6846L72.4403 51.1735C72.6219 51.1197 72.8739 51.0848 73.1963 51.0687C73.5251 51.049 73.8782 51.0897 74.2555 51.1908C74.7787 51.331 75.2237 51.5419 75.5904 51.8235C75.9584 52.1 76.2433 52.4352 76.4452 52.829C76.652 53.2241 76.7671 53.6701 76.7903 54.167C76.8199 54.6602 76.7579 55.1936 76.6042 55.7671C76.4694 56.2702 76.2672 56.7229 75.9977 57.1252C75.7345 57.5237 75.4062 57.8537 75.0126 58.1149C74.6205 58.3711 74.1692 58.5359 73.6588 58.6094C73.1498 58.678 72.5859 58.6293 71.9671 58.4635C71.4992 58.3381 71.0671 58.1496 70.6709 57.8978C70.281 57.6424 69.9507 57.3355 69.6801 56.9772C69.4108 56.6139 69.2256 56.2083 69.1244 55.7607C69.0284 55.3143 69.0383 54.8344 69.1543 54.3209L71.1239 54.8487C71.0688 55.1952 71.0825 55.5062 71.1651 55.7817C71.2476 56.0573 71.3903 56.2896 71.593 56.4787C71.8008 56.6692 72.0632 56.8069 72.3801 56.8918C72.6669 56.9687 72.9275 56.9819 73.1621 56.9315C73.4031 56.8775 73.6177 56.7705 73.8061 56.6107C73.9946 56.4509 74.1572 56.2465 74.294 55.9973C74.4309 55.7482 74.5418 55.4652 74.6267 55.1483C74.7089 54.8414 74.746 54.5521 74.7379 54.2803C74.7312 54.0035 74.6748 53.7511 74.5687 53.5232C74.4627 53.2953 74.3049 53.0993 74.0954 52.9354C73.8909 52.7727 73.6327 52.6496 73.3208 52.566C72.9033 52.4542 72.5644 52.4308 72.3043 52.4959C72.0493 52.5623 71.8133 52.6582 71.5964 52.7834Z" class="color6a7788 svgShape"></path><path fill="#02240b" fill-opacity=".1" d="M42.6978 26.7967C40.7679 35.4199 32.2129 40.846 23.5897 38.9161C14.9664 36.9862 9.54037 28.4312 11.4702 19.808C13.4001 11.1847 21.9551 5.75869 30.5784 7.68856C39.2016 9.61844 44.6276 18.1734 42.6978 26.7967Z" class="color021024 svgShape"></path><path fill="#83ea9e" d="M39.9886 25.1657C38.2999 32.711 30.8143 37.4588 23.269 35.7702C15.7236 34.0815 10.9758 26.5959 12.6645 19.0506C14.3531 11.5053 21.8387 6.75746 29.3841 8.44611C36.9294 10.1347 41.6772 17.6204 39.9886 25.1657Z" class="coloreaa683 svgShape"></path><path fill="#30a34f" fill-rule="evenodd" d="M41.9403 25.6025C40.0104 34.2257 31.4555 39.6517 22.8322 37.7219C14.209 35.792 8.78293 27.237 10.7128 18.6138C12.6427 9.99052 21.1977 4.56447 29.8209 6.49435C38.4442 8.42423 43.8702 16.9792 41.9403 25.6025ZM23.269 35.7702C30.8143 37.4588 38.3 32.711 39.9886 25.1657C41.6772 17.6203 36.9295 10.1347 29.3841 8.44607C21.8388 6.75743 14.3532 11.5052 12.6645 19.0506C10.9759 26.5959 15.7237 34.0815 23.269 35.7702Z" clip-rule="evenodd" class="colora35530 svgShape"></path><path fill="#4bd871" fill-rule="evenodd" d="M28.7289 11.3736C22.8004 10.0469 16.9188 13.7773 15.5921 19.7057C14.2653 25.6342 17.9957 31.5158 23.9241 32.8426C29.8526 34.1694 35.7342 30.4389 37.061 24.5105C38.3878 18.582 34.6574 12.7004 28.7289 11.3736ZM13.6403 19.2689C15.2084 12.2626 22.1593 7.8539 29.1657 9.42192C36.1721 10.9899 40.5807 17.9409 39.0127 24.9473C37.4447 31.9536 30.4937 36.3623 23.4874 34.7943C16.481 33.2263 12.0723 26.2753 13.6403 19.2689Z" clip-rule="evenodd" class="colord8754b svgShape"></path><path fill="#a7ffbe" fill-rule="evenodd" d="M28.2922 13.3254C23.4416 12.2398 18.6294 15.292 17.5439 20.1426C17.4232 20.6815 16.8886 21.0206 16.3496 20.9C15.8107 20.7794 15.4715 20.2447 15.5921 19.7058C16.9189 13.7773 22.8005 10.0469 28.729 11.3737C29.2679 11.4943 29.607 12.029 29.4864 12.5679C29.3658 13.1069 28.8311 13.446 28.2922 13.3254Z" clip-rule="evenodd" class="colorffc4a7 svgShape"></path><path fill="#dfffe8" fill-rule="evenodd" d="M24.2931 12.2635C24.4586 12.7904 24.1655 13.3517 23.6386 13.5172C22.9145 13.7446 22.2236 14.0622 21.5824 14.4601C21.1131 14.7512 20.4966 14.6068 20.2054 14.1375C19.9143 13.6682 20.0587 13.0517 20.528 12.7606C21.3106 12.275 22.1543 11.887 23.0394 11.609C23.5664 11.4436 24.1276 11.7366 24.2931 12.2635Z" clip-rule="evenodd" class="colorffe9df svgShape"></path><path fill="#4bd871" d="M36.522 22.3404C36.4014 22.8793 35.8667 23.2185 35.3278 23.0979 34.7888 22.9772 34.4497 22.4425 34.5703 21.9036 34.6909 21.3646 35.2256 21.0255 35.7646 21.1461 36.3035 21.2667 36.6426 21.8014 36.522 22.3404zM37.6001 26.6806C37.4795 27.2196 36.9448 27.5587 36.4059 27.4381 35.8669 27.3174 35.5278 26.7828 35.6484 26.2438 35.769 25.7049 36.3037 25.3657 36.8427 25.4863 37.3816 25.607 37.7208 26.1416 37.6001 26.6806zM34.7748 30.1473C34.6542 30.6862 34.1195 31.0254 33.5806 30.9047 33.0416 30.7841 32.7025 30.2494 32.8231 29.7105 32.9437 29.1715 33.4784 28.8324 34.0174 28.953 34.5563 29.0736 34.8954 29.6083 34.7748 30.1473zM29.2404 31.9828C29.1198 32.5218 28.5851 32.8609 28.0461 32.7403 27.5072 32.6197 27.1681 32.085 27.2887 31.5461 27.4093 31.0071 27.944 30.668 28.4829 30.7886 29.0219 30.9092 29.361 31.4439 29.2404 31.9828zM25.876 33.2794C25.7554 33.8183 25.2207 34.1574 24.6818 34.0368 24.1428 33.9162 23.8037 33.3815 23.9243 32.8426 24.0449 32.3036 24.5796 31.9645 25.1186 32.0851 25.6575 32.2057 25.9966 32.7404 25.876 33.2794zM34.4541 27.0013C34.3335 27.5402 33.7988 27.8794 33.2599 27.7587 32.7209 27.6381 32.3818 27.1034 32.5024 26.5645 32.623 26.0255 33.1577 25.6864 33.6967 25.807 34.2356 25.9276 34.5748 26.4623 34.4541 27.0013zM33.1576 23.6369C33.037 24.1758 32.5023 24.515 31.9634 24.3944 31.4244 24.2737 31.0853 23.7391 31.2059 23.2001 31.3265 22.6612 31.8612 22.322 32.4002 22.4426 32.9391 22.5633 33.2783 23.0979 33.1576 23.6369zM31.8472 29.492C31.7266 30.031 31.1919 30.3701 30.653 30.2495 30.114 30.1288 29.7749 29.5942 29.8955 29.0552 30.0161 28.5163 30.5508 28.1771 31.0898 28.2977 31.6287 28.4184 31.9678 28.953 31.8472 29.492z" class="colord8754b svgShape"></path><path fill="#30a34f" d="M28.6127 17.0797L26.1216 28.2106L24.1013 27.7585L26.0651 18.9834L23.1912 19.2688L23.5564 17.6373L28.384 17.0285L28.6127 17.0797Z" class="colora35530 svgShape"></path></svg>