<svg xmlns="http://www.w3.org/2000/svg" enable-background="new 0 0 358.357 260.163" viewBox="0 0 358.357 260.163" id="community"><path d="M23.431,137.681v113.733c0,4.834,3.919,8.749,8.749,8.749s8.748-3.915,8.748-8.749v-63.875h3.28v63.875
		c0,4.834,3.918,8.749,8.748,8.749c4.832,0,8.748-3.915,8.748-8.749V137.68c2.816-1.469,6.668-4.086,10.446-8.609
		c1.908-2.277,3.761-5.035,5.449-8.305v-5.733c-2.177-1.318-4.747-3.167-7.421-5.671c-1.94,5.688-4.399,9.66-6.717,12.451
		c-2.447,2.927-4.804,4.601-6.469,5.546c-0.735,0.418-1.327,0.683-1.733,0.848H29.88c-1.493-0.605-5.563-2.604-9.558-8.139
		c-4.444-6.192-8.986-17.032-8.999-36.219c-0.002-0.627,0.004-1.253,0.013-1.876c0.056-3.126-2.433-5.705-5.56-5.76
		c-3.126-0.056-5.704,2.435-5.759,5.561C0.004,82.484,0,83.176,0,83.85c-0.025,23.06,6.17,37.088,12.985,45.221
		C16.763,133.595,20.617,136.212,23.431,137.681z" fill="#34a853" class="color000000 svgShape"></path><circle cx="42.569" cy="108.255" r="15.921" fill="#34a853" class="color000000 svgShape"></circle><path d="M81.599,112.699v136.931c0,5.819,4.717,10.532,10.531,10.532c5.818,0,10.535-4.713,10.535-10.532v-76.904h3.947v76.904
		c0,5.819,4.717,10.532,10.533,10.532c5.818,0,10.533-4.713,10.533-10.532V112.699c3.391-1.769,8.027-4.919,12.576-10.365
		c1.322-1.577,2.624-3.341,3.879-5.303v-5.602c-2.617-1.715-5.578-4.003-8.613-6.97c-1.818,3.852-3.813,6.831-5.729,9.136
		c-2.945,3.524-5.779,5.541-7.785,6.678c-0.887,0.503-1.598,0.823-2.088,1.021H89.362c-1.797-0.729-6.697-3.135-11.508-9.799
		c-5.35-7.454-10.816-20.506-10.834-43.605c-0.002-0.755,0.006-1.509,0.018-2.259c0.066-3.764-2.932-6.868-6.693-6.934
		c-3.766-0.067-6.869,2.931-6.933,6.695c-0.018,0.853-0.021,1.686-0.021,2.499c-0.031,27.762,7.428,44.652,15.633,54.444
		C73.571,107.78,78.21,110.931,81.599,112.699z" fill="#34a853" class="color000000 svgShape"></path><circle cx="104.64" cy="77.272" r="19.168" fill="#34a853" class="color000000 svgShape"></circle><path d="M303.097,128.208c-0.406-0.165-0.998-0.429-1.733-0.848c-1.665-0.945-4.021-2.619-6.469-5.546
		c-2.317-2.791-4.776-6.762-6.716-12.449c-2.674,2.502-5.244,4.351-7.42,5.669v5.737c1.688,3.268,3.54,6.025,5.447,8.301
		c3.778,4.523,7.63,7.14,10.446,8.609v113.734c0,4.834,3.916,8.749,8.748,8.749c4.83,0,8.748-3.915,8.748-8.749v-63.875h3.28v63.875
		c0,4.834,3.918,8.749,8.748,8.749s8.749-3.915,8.749-8.749V137.681c2.814-1.469,6.668-4.087,10.445-8.61
		c6.815-8.133,13.011-22.162,12.985-45.221c0-0.674-0.004-1.367-0.018-2.075c-0.055-3.126-2.633-5.617-5.759-5.561
		c-3.127,0.055-5.615,2.633-5.56,5.76c0.009,0.623,0.015,1.249,0.013,1.876c-0.013,19.187-4.555,30.027-8.999,36.219
		c-3.995,5.535-8.064,7.534-9.558,8.139H303.097z" fill="#34a853" class="color000000 svgShape"></path><circle cx="315.787" cy="108.255" r="15.921" fill="#34a853" class="color000000 svgShape"></circle><path d="M238.438,101.294c-0.49-0.198-1.201-0.518-2.088-1.021c-2.006-1.137-4.84-3.153-7.785-6.678
		c-1.915-2.306-3.911-5.286-5.729-9.138c-3.033,2.964-5.994,5.254-8.611,6.972v5.604c1.255,1.96,2.557,3.725,3.878,5.301
		c4.549,5.446,9.185,8.597,12.576,10.365v136.932c0,5.819,4.715,10.532,10.533,10.532c5.816,0,10.533-4.713,10.533-10.532v-76.904
		h3.947v76.904c0,5.819,4.717,10.532,10.535,10.532c5.814,0,10.531-4.713,10.531-10.532V112.699
		c3.389-1.769,8.027-4.919,12.576-10.366c8.205-9.792,15.664-26.682,15.633-54.444c0-0.813-0.004-1.646-0.022-2.499
		c-0.064-3.764-3.168-6.762-6.934-6.695c-3.762,0.066-6.76,3.17-6.693,6.934c0.012,0.75,0.02,1.504,0.018,2.259
		c-0.018,23.099-5.484,36.151-10.834,43.605c-4.811,6.664-9.711,9.07-11.508,9.799H238.438z" fill="#34a853" class="color000000 svgShape"></path><circle cx="253.717" cy="77.272" r="19.168" fill="#34a853" class="color000000 svgShape"></circle><path d="M152.133,86.869v160.733c0,6.83,5.537,12.363,12.363,12.363c6.828,0,12.365-5.533,12.365-12.363v-90.271h4.635v90.271
		c0,6.83,5.537,12.363,12.363,12.363c6.828,0,12.365-5.533,12.365-12.363V86.868c3.979-2.076,9.422-5.774,14.762-12.166
		c9.633-11.493,18.389-31.32,18.35-63.908c-0.002-0.97-0.01-1.936-0.021-2.891c-0.055-4.42-3.682-7.957-8.1-7.901
		c-4.416,0.055-7.953,3.682-7.898,8.099c0.01,0.925,0.02,1.826,0.02,2.693c-0.039,29.864-7.775,45.397-14.631,53.651
		c-3.457,4.137-6.785,6.503-9.141,7.838c-1.039,0.591-1.873,0.966-2.449,1.199h-35.869c-2.109-0.855-7.859-3.68-13.506-11.503
		c-6.281-8.75-12.699-24.07-12.719-51.185c-0.002-0.887,0.006-1.771,0.02-2.652c0.078-4.418-3.439-8.061-7.857-8.139
		c-4.418-0.08-8.061,3.44-8.139,7.858c-0.02,1.001-0.025,1.979-0.025,2.933c-0.037,32.588,8.719,52.414,18.352,63.907
		C142.711,81.094,148.154,84.793,152.133,86.869z" fill="#34a853" class="color000000 svgShape"></path><circle cx="179.18" cy="45.283" r="22.5" fill="#34a853" class="color000000 svgShape"></circle></svg>