<svg width="628" height="516" viewBox="0 0 628 516" fill="none" xmlns="http://www.w3.org/2000/svg">
<g clip-path="url(#clip0_1307_3760)">
<rect width="628" height="516" fill="white"/>
<path d="M333.536 330.875C327.561 330.875 321.586 348.761 321.586 348.761C318.425 349.128 315.373 350.143 312.623 351.742C306.648 354.723 309.636 390.494 309.636 390.494" stroke="#34556E" stroke-width="2" stroke-linecap="round" stroke-linejoin="round"/>
<path d="M309.636 390.494L300.673 411.36H386.297C386.297 411.36 387.343 408.38 381.367 395.681C379.948 392.168 377.447 389.196 374.225 387.192C371.004 385.189 367.228 384.257 363.442 384.532L354.479 365.394V347.27C354.488 344.359 353.692 341.502 352.179 339.013L347.488 331.203C346.923 330.252 346.065 329.51 345.042 329.085C344.019 328.661 342.886 328.578 341.812 328.848L333.566 330.905L348.504 363.695" stroke="#34556E" stroke-width="2" stroke-linecap="round" stroke-linejoin="round"/>
<g clip-path="url(#clip1_1307_3760)">
<path d="M78.6719 417.355C78.6719 417.355 87.6271 324.616 105.538 318.633C123.448 312.649 138.373 336.582 138.373 336.582C138.373 336.582 150.314 363.506 142.881 414.363L78.6719 417.355Z" stroke="#84DDBB" stroke-width="2" stroke-linecap="round" stroke-linejoin="round"/>
<path d="M80.6719 417.355C80.6719 417.355 89.6271 324.616 107.538 318.633C125.448 312.649 140.373 336.582 140.373 336.582C140.373 336.582 152.314 363.506 144.881 414.363L80.6719 417.355Z" stroke="#34556E" stroke-width="2" stroke-linecap="round" stroke-linejoin="round"/>
<path d="M104.88 416.218C104.88 416.218 102.761 314.205 136.492 331.377" stroke="#34556E" stroke-width="2" stroke-linecap="round" stroke-linejoin="round"/>
</g>
<path d="M175.609 407.375L166.669 386.444V333.041C166.669 327.279 168.927 321.748 172.957 317.642L183.923 306.459C185.939 304.385 188.482 302.905 191.276 302.177C194.07 301.45 197.01 301.504 199.776 302.332C211.428 305.831 231.066 312.559 241.168 320.662C250.216 328.563 257.978 337.834 264.173 348.141C266.278 351.509 267.384 355.408 267.361 359.384V397.777C267.361 397.777 259.047 407.375 259.047 413.355H178.172L175.609 407.375Z" stroke="#34556E" stroke-width="2" stroke-linecap="round" stroke-linejoin="round"/>
<path d="M190.836 302.302L173.851 403.249" stroke="#34556E" stroke-width="2" stroke-linecap="round" stroke-linejoin="round"/>
<path d="M522.581 80.8137V109.95C522.576 111.791 521.87 113.561 520.605 114.901C519.341 116.24 517.613 117.049 515.773 117.164L335.251 128.009C333.867 135.422 332.665 142.885 331.18 150.282C329.945 156.396 326.692 163.609 327.509 169.923C327.754 171.772 328.318 173.565 329.178 175.22C332.815 182.7 329.495 191.88 327.826 197.544C326.308 202.541 324.94 204.39 325.374 208.255C325.664 210.51 326.426 212.678 327.609 214.619C328.092 215.424 328.5 216.272 328.827 217.151L329.779 219.833H306.802L307.754 217.151C308.074 216.269 308.483 215.421 308.972 214.619C310.156 212.68 310.913 210.51 311.191 208.255C311.641 204.39 310.256 202.625 308.755 197.544C307.086 191.93 303.749 182.7 307.403 175.22C308.263 173.565 308.827 171.772 309.072 169.923C309.889 163.642 306.619 156.396 305.384 150.282C303.916 142.885 302.714 135.422 301.313 128.009L120.791 117.164C118.953 117.049 117.227 116.24 115.965 114.899C114.703 113.559 114.001 111.79 114 109.95V80.8137C113.996 79.9631 114.161 79.1201 114.488 78.3345C114.814 77.5488 115.295 76.8362 115.901 76.2386C116.507 75.641 117.227 75.1705 118.018 74.8548C118.809 74.539 119.656 74.3844 120.507 74.3999L294.272 78.0649C295.323 77.915 312.125 73.7336 312.125 73.7336C312.125 73.7336 313.593 72.0677 313.276 68.0528L309.823 59.007L309.472 58.1074C309.072 56.8274 308.978 55.4713 309.2 54.1487C309.421 52.8261 309.952 51.5741 310.748 50.4939C311.544 49.4138 312.583 48.5358 313.782 47.931C314.98 47.3262 316.305 47.0115 317.648 47.0124C317.859 46.9959 318.071 46.9959 318.282 47.0124C318.499 46.9959 318.716 46.9959 318.933 47.0124C320.279 47.0069 321.608 47.3205 322.809 47.9274C324.011 48.5342 325.051 49.4171 325.844 50.5034C326.637 51.5897 327.161 52.8484 327.372 54.1761C327.583 55.5037 327.476 56.8625 327.059 58.1407L326.725 59.0403L323.305 68.0861C322.971 72.1343 324.439 73.7669 324.439 73.7669C324.439 73.7669 341.242 77.9483 342.309 78.0982L516.057 74.3999C516.909 74.3844 517.757 74.539 518.549 74.8545C519.341 75.1701 520.061 75.6403 520.669 76.2377C521.277 76.835 521.759 77.5475 522.087 78.3332C522.415 79.119 522.583 79.9623 522.581 80.8137V80.8137Z" stroke="#33546D" stroke-width="2"/>
<path d="M406 251.132V393.868C406 397.086 404.72 400.172 402.442 402.447C400.163 404.722 397.073 406 393.851 406H248.149C244.927 406 241.837 404.722 239.558 402.447C237.28 400.172 236 397.086 236 393.868V251.132C236 247.914 237.28 244.828 239.558 242.553C241.837 240.278 244.927 239 248.149 239H265.715V251.767C265.715 253.505 266.407 255.173 267.638 256.402C268.869 257.632 270.539 258.322 272.28 258.322C274.022 258.322 275.691 257.632 276.923 256.402C278.154 255.173 278.846 253.505 278.846 251.767V239H313.398V251.767C313.398 253.505 314.09 255.173 315.321 256.402C316.552 257.632 318.222 258.322 319.963 258.322C321.705 258.322 323.374 257.632 324.606 256.402C325.837 255.173 326.528 253.505 326.528 251.767V239H361.081V251.767C361.081 253.505 361.773 255.173 363.004 256.402C364.235 257.632 365.905 258.322 367.646 258.322C369.387 258.322 371.057 257.632 372.289 256.402C373.52 255.173 374.211 253.505 374.211 251.767V239H393.851C397.073 239 400.163 240.278 402.442 242.553C404.72 244.828 406 247.914 406 251.132Z" fill="white" stroke="#34556E" stroke-width="2"/>
<path d="M279 226.564V251.436C279 253.177 278.315 254.847 277.096 256.078C275.877 257.308 274.224 258 272.5 258C270.776 258 269.123 257.308 267.904 256.078C266.685 254.847 266 253.177 266 251.436V226.564C266 224.823 266.685 223.153 267.904 221.922C269.123 220.692 270.776 220 272.5 220C274.224 220 275.877 220.692 277.096 221.922C278.315 223.153 279 224.823 279 226.564V226.564Z" stroke="#34556E" stroke-width="2"/>
<path d="M283 258.06C282.999 259.947 282.507 261.802 281.573 263.444C280.639 265.087 279.295 266.461 277.67 267.434C276.045 268.406 274.195 268.945 272.3 268.996C270.404 269.047 268.527 268.61 266.852 267.727C265.176 266.844 263.758 265.544 262.736 263.955C261.714 262.365 261.121 260.54 261.017 258.656C260.912 256.771 261.299 254.892 262.139 253.2C262.979 251.508 264.245 250.062 265.813 249V251.559C265.813 253.283 266.501 254.937 267.725 256.156C268.95 257.375 270.612 258.06 272.344 258.06C274.076 258.06 275.737 257.375 276.962 256.156C278.187 254.937 278.875 253.283 278.875 251.559V249.506C280.163 250.533 281.203 251.835 281.917 253.315C282.631 254.796 283.001 256.417 283 258.06Z" stroke="#34556E" stroke-width="2"/>
<path d="M331 258.052C331 259.904 330.528 261.725 329.629 263.346C328.729 264.966 327.432 266.333 325.857 267.319C324.282 268.305 322.482 268.877 320.625 268.982C318.767 269.087 316.914 268.722 315.237 267.92C313.56 267.119 312.115 265.907 311.037 264.398C309.958 262.89 309.282 261.133 309.071 259.294C308.86 257.454 309.121 255.592 309.83 253.88C310.539 252.168 311.673 250.663 313.125 249.506V251.559C313.125 253.283 313.813 254.936 315.038 256.155C316.263 257.374 317.924 258.059 319.656 258.059C321.388 258.059 323.05 257.374 324.275 256.155C325.499 254.936 326.187 253.283 326.187 251.559V249C327.67 250.004 328.884 251.354 329.723 252.932C330.562 254.509 331 256.267 331 258.052V258.052Z" stroke="#34556E" stroke-width="2"/>
<path d="M374 226.564V251.436C374 253.177 373.315 254.847 372.096 256.078C370.877 257.308 369.224 258 367.5 258C365.776 258 364.123 257.308 362.904 256.078C361.685 254.847 361 253.177 361 251.436V226.564C361 224.823 361.685 223.153 362.904 221.922C364.123 220.692 365.776 220 367.5 220C369.224 220 370.877 220.692 372.096 221.922C373.315 223.153 374 224.823 374 226.564V226.564Z" stroke="#34556E" stroke-width="2"/>
<path d="M379 258.052C379 259.904 378.528 261.725 377.629 263.346C376.729 264.966 375.432 266.333 373.857 267.319C372.282 268.305 370.482 268.877 368.625 268.982C366.767 269.087 364.914 268.722 363.237 267.92C361.56 267.119 360.115 265.907 359.037 264.398C357.958 262.89 357.282 261.133 357.071 259.294C356.86 257.454 357.121 255.592 357.83 253.88C358.539 252.168 359.673 250.663 361.125 249.506V251.559C361.125 253.283 361.813 254.936 363.038 256.155C364.263 257.374 365.924 258.059 367.656 258.059C369.388 258.059 371.05 257.374 372.275 256.155C373.499 254.936 374.187 253.283 374.187 251.559V249C375.67 250.004 376.884 251.354 377.723 252.932C378.562 254.509 379 256.267 379 258.052V258.052Z" stroke="#34556E" stroke-width="2"/>
<path d="M236 280H406" stroke="#34556E" stroke-width="2"/>
<path d="M290 314H302" stroke="#34556E" stroke-width="2"/>
<path d="M316 314H328" stroke="#84DDBB" stroke-width="2"/>
<path d="M342 314H354" stroke="#84DDBB" stroke-width="2"/>
<path d="M368 314H380" stroke="#34556E" stroke-width="2"/>
<path d="M263 337H276" stroke="#34556E" stroke-width="2"/>
<path d="M290 337H302" stroke="#34556E" stroke-width="2"/>
<path d="M316 337H328" stroke="#34556E" stroke-width="2"/>
<path d="M343 337H355" stroke="#34556E" stroke-width="2"/>
<path d="M368 337H380" stroke="#34556E" stroke-width="2"/>
<path d="M264 359H276" stroke="#34556E" stroke-width="2"/>
<path d="M290 359H302" stroke="#84DDBB" stroke-width="2"/>
<path d="M317 359H329" stroke="#34556E" stroke-width="2"/>
<path d="M343 359H355" stroke="#34556E" stroke-width="2"/>
<path d="M368 359H380" stroke="#34556E" stroke-width="2"/>
<path d="M264 382H276" stroke="#34556E" stroke-width="2"/>
<path d="M290 382H302" stroke="#34556E" stroke-width="2"/>
<path d="M317 382H329" stroke="#34556E" stroke-width="2"/>
<path d="M343 382H355" stroke="#34556E" stroke-width="2"/>
<path d="M406.135 251L429.785 388.581C430.152 390.72 430.048 392.913 429.479 395.007C428.911 397.101 427.892 399.045 426.495 400.704C425.097 402.363 423.354 403.697 421.387 404.612C419.421 405.526 417.278 406 415.109 406H394" stroke="#34556E" stroke-width="2"/>
<path d="M327 226.564V251.436C327 253.177 326.263 254.847 324.95 256.078C323.637 257.308 321.857 258 320 258C318.143 258 316.363 257.308 315.05 256.078C313.737 254.847 313 253.177 313 251.436V226.564C313 224.823 313.737 223.153 315.05 221.922C316.363 220.692 318.143 220 320 220C321.857 220 323.637 220.692 324.95 221.922C326.263 223.153 327 224.823 327 226.564V226.564Z" fill="white" stroke="#34556E" stroke-width="2"/>
<rect x="-15" y="405" width="664" height="126" fill="white" stroke="#33546C" stroke-width="2"/>
<path d="M130 437H250" stroke="#33546C" stroke-width="2"/>
<path d="M277 437H314" stroke="#33546C" stroke-width="2"/>
<path d="M420 452H540" stroke="#33546C" stroke-width="2"/>
<path d="M567 452H604" stroke="#33546C" stroke-width="2"/>
<path d="M491.448 331.431C470.48 331.431 453.483 314.434 453.483 293.466C453.483 272.498 470.48 255.501 491.448 255.501C512.415 255.501 529.413 272.498 529.413 293.466C529.413 314.434 512.415 331.431 491.448 331.431Z" stroke="#33546D" stroke-width="2"/>
<path d="M491.448 301.253C485.447 301.253 480.582 296.388 480.582 290.387C480.582 284.386 485.447 279.521 491.448 279.521C497.449 279.521 502.314 284.386 502.314 290.387C502.314 296.388 497.449 301.253 491.448 301.253Z" stroke="#33546D" stroke-width="2"/>
<path d="M469.724 324.599C469.724 318.838 472.013 313.313 476.087 309.239C480.161 305.165 485.686 302.876 491.448 302.876C497.209 302.876 502.734 305.165 506.808 309.239C510.882 313.313 513.171 318.838 513.171 324.599" stroke="#33546D" stroke-width="2"/>
<path d="M515.596 221.923L500.394 255.904" stroke="#33546C" stroke-width="2"/>
<path d="M542.057 242.275C527.114 242.275 515 230.125 515 215.137C515 200.15 527.114 188 542.057 188C557 188 569.114 200.15 569.114 215.137C569.114 230.125 557 242.275 542.057 242.275Z" stroke="#33546D" stroke-width="2"/>
<path d="M542.057 220.904C537.78 220.904 534.313 217.427 534.313 213.137C534.313 208.847 537.78 205.37 542.057 205.37C546.334 205.37 549.801 208.847 549.801 213.137C549.801 217.427 546.334 220.904 542.057 220.904Z" fill="#84DDBB" stroke="#33546D" stroke-width="2"/>
<path d="M526.576 237.391C526.576 233.273 528.207 229.324 531.11 226.412C534.014 223.5 537.951 221.864 542.057 221.864C546.163 221.864 550.101 223.5 553.005 226.412C555.908 229.324 557.539 233.273 557.539 237.391" stroke="#33546D" stroke-width="2"/>
</g>
<defs>
<clipPath id="clip0_1307_3760">
<rect width="628" height="516" fill="white"/>
</clipPath>
<clipPath id="clip1_1307_3760">
<rect width="70" height="103" fill="white" transform="translate(79 316)"/>
</clipPath>
</defs>
</svg>
