<svg xmlns="http://www.w3.org/2000/svg" fill-rule="evenodd" stroke-linejoin="round" stroke-miterlimit="2" clip-rule="evenodd" viewBox="0 0 134 134" id="Goal"><path d="M35.433 78.923 17.67 105.566A12.5 12.5 0 0 0 28.071 125h58.881L56.234 78.923a12.499 12.499 0 0 0-20.801 0ZM75 61.571a12.501 12.501 0 0 0-6.234 4.852l-5.425 8.137L96.968 125h8.294a12.499 12.499 0 0 0 10.401-19.434L89.567 66.423a12.501 12.501 0 0 0-6.234-4.852V12.5a4.167 4.167 0 0 0-5.808-3.83l-20.23 8.67a8.335 8.335 0 0 0 0 15.32L75 40.248v21.323Z" fill="#34a853" class="color000000 svgShape"></path></svg>