<svg xmlns="http://www.w3.org/2000/svg" viewBox="0 0 750 500"><g id="freepik--background-complete--inject-23"><path d="M173.58,408c-7.43-5.63-17.9-4.58-26.89-2.09s-18.08,6.17-27.32,4.92C107.74,409.29,97.71,400.1,86,400.59c-10.11.43-19,8.1-29.15,7.69-5.33-.21-10.28-2.67-15.33-4.38s-10.89-2.65-15.52,0V375.1H169.65L173.58,408" style="fill:#f5f5f5"></path><path d="M727.6,408.11c-7.43-5.63-17.9-4.58-26.89-2.09s-18.08,6.17-27.32,4.92c-11.63-1.56-21.66-10.75-33.38-10.26-10.11.43-19,8.1-29.15,7.69-5.33-.21-10.28-2.67-15.33-4.38s-10.89-2.65-15.52,0V375.19H723.66l3.94,32.92" style="fill:#f5f5f5"></path><path d="M392.05,441.2c.4,0,7.29,2.15,7.29,2.15l10.06-2.15-4.47-2.61H393.27Z" style="fill:#ebebeb"></path><path d="M221.94,102.49c-1.32-3.51-2.66-7.08-4.88-10.11s-5.44-5.51-9.17-6S200,88,198.83,91.52c-.53-8-1.67-16.2-5.67-23.15S181.68,56,173.68,56.46c-7.54.46-14,6.06-17.59,12.72s-4.82,14.28-6,21.75c-2.86-3.51-8.9-2.41-11.89,1s-3.74,8.17-4.37,12.65h90Z" style="fill:#ebebeb"></path><path d="M124.28,160.52a26.3,26.3,0,0,0-3.12-6.47,9,9,0,0,0-5.87-3.82,5.46,5.46,0,0,0-5.8,3.27c-.34-5.12-1.07-10.37-3.63-14.82s-7.34-7.94-12.47-7.62c-4.83.29-9,3.88-11.26,8.14s-3.09,9.14-3.84,13.92c-1.83-2.25-5.7-1.54-7.61.64s-2.39,5.22-2.8,8.09h57.63Z" style="fill:#ebebeb"></path><path d="M688.17,179.07c-1.53-4.09-3.09-8.23-5.67-11.75s-6.33-6.41-10.66-6.94-9.13,1.81-10.54,5.94c-.62-9.31-1.94-18.85-6.6-26.93S641.36,125,632.05,125.54c-8.78.53-16.29,7-20.46,14.79s-5.61,16.61-7,25.29c-3.33-4.08-10.35-2.8-13.82,1.16s-4.35,9.5-5.09,14.71H690.4Z" style="fill:#ebebeb"></path><path d="M638.6,84.35a27,27,0,0,0-3.21-6.67,9.17,9.17,0,0,0-6-3.93,5.62,5.62,0,0,0-6,3.36c-.35-5.27-1.1-10.69-3.74-15.27s-7.57-8.18-12.85-7.86c-5,.3-9.24,4-11.61,8.39s-3.18,9.43-4,14.35c-1.89-2.31-5.87-1.59-7.84.66s-2.47,5.39-2.89,8.34h59.4Z" style="fill:#ebebeb"></path><path d="M500.12,84a26.56,26.56,0,0,0-3.14-6.5,8.94,8.94,0,0,0-5.9-3.84,5.48,5.48,0,0,0-5.83,3.29c-.35-5.15-1.08-10.43-3.65-14.9s-7.39-8-12.54-7.67c-4.86.29-9,3.9-11.32,8.18s-3.11,9.2-3.87,14c-1.84-2.26-5.72-1.55-7.65.65s-2.4,5.25-2.81,8.13h57.94Z" style="fill:#e0e0e0"></path><path d="M572.6,126.56a14.74,14.74,0,0,0-1.74-3.62,5,5,0,0,0-3.29-2.14,3,3,0,0,0-3.25,1.83,19,19,0,0,0-2-8.3c-1.43-2.49-4.11-4.44-7-4.27-2.7.17-5,2.18-6.3,4.56a23.94,23.94,0,0,0-2.15,7.79c-1-1.25-3.19-.86-4.26.36A8.52,8.52,0,0,0,541,127.3h32.26Z" style="fill:#f5f5f5"></path><path d="M91.29,86.35a15,15,0,0,0-1.74-3.63,5,5,0,0,0-3.29-2.13A3,3,0,0,0,83,82.42a18.9,18.9,0,0,0-2-8.3c-1.43-2.49-4.11-4.44-7-4.27-2.7.17-5,2.18-6.3,4.56a23.94,23.94,0,0,0-2.15,7.79c-1-1.26-3.19-.86-4.26.36a8.49,8.49,0,0,0-1.57,4.53H92Z" style="fill:#f5f5f5"></path><path d="M711.43,98.55a14.92,14.92,0,0,0-1.74-3.62,5,5,0,0,0-3.29-2.14,3.07,3.07,0,0,0-3.25,1.83,18.89,18.89,0,0,0-2-8.29c-1.43-2.49-4.11-4.45-7-4.27-2.7.16-5,2.17-6.3,4.56a23.87,23.87,0,0,0-2.15,7.79c-1-1.26-3.19-.86-4.26.36a8.49,8.49,0,0,0-1.57,4.53h32.26Z" style="fill:#f5f5f5"></path><polygon points="145.95 445.12 157.1 438.59 171.58 438.59 178.84 445.12 170.95 452.58 150.67 454.14 145.95 445.12" style="fill:#ebebeb"></polygon><polygon points="183.52 444.85 177.67 439.58 184.78 438.09 195.56 440.61 192.12 446.36 183.52 444.85" style="fill:#e0e0e0"></polygon><polygon points="178.84 452.88 182.83 447.72 193.84 450.3 195.56 455.74 185.35 459.41 178.84 452.88" style="fill:#f5f5f5"></polygon><polygon points="194.41 447.03 198.42 441.53 208.74 438.59 216.31 444.51 208.74 451.27 198.88 451.27 194.41 447.03" style="fill:#ebebeb"></polygon><polygon points="486.8 445.12 497.95 438.59 512.43 438.59 519.69 445.12 511.8 452.58 491.53 454.14 486.8 445.12" style="fill:#ebebeb"></polygon><polygon points="524.37 444.85 518.52 439.58 525.63 438.09 536.41 440.61 532.97 446.36 524.37 444.85" style="fill:#e0e0e0"></polygon><polygon points="519.69 452.88 523.68 447.72 534.69 450.3 536.41 455.74 526.21 459.41 519.69 452.88" style="fill:#f5f5f5"></polygon><polygon points="535.26 447.03 539.27 441.53 549.59 438.59 557.16 444.51 549.59 451.27 539.73 451.27 535.26 447.03" style="fill:#ebebeb"></polygon><polygon points="328.5 442.92 321.1 438.59 306.62 438.59 299.36 445.12 307.25 452.58 324.51 450.37 328.5 442.92" style="fill:#ebebeb"></polygon><polygon points="294.68 444.85 300.53 439.58 293.42 438.09 282.64 440.61 286.08 446.36 294.68 444.85" style="fill:#e0e0e0"></polygon><polygon points="303.76 453.57 295.37 447.72 284.36 450.3 282.64 455.74 292.85 459.41 303.76 453.57" style="fill:#f5f5f5"></polygon><polygon points="283.79 447.03 279.78 441.53 269.46 438.59 261.89 444.51 269.46 451.27 279.32 451.27 283.79 447.03" style="fill:#ebebeb"></polygon><polygon points="332.95 442.23 327.74 438.59 340.94 438.59 346.54 442.23 341.75 444.93 332.95 442.23" style="fill:#f5f5f5"></polygon><polygon points="327.74 448.94 330.4 444.93 340.71 446.36 345.69 450.67 336.71 454.38 328.5 453.57 327.74 448.94" style="fill:#ebebeb"></polygon><polygon points="343.84 445.59 348.94 443.49 356.93 442.23 365.73 449.17 357.97 454.38 349.86 452.58 343.84 445.59" style="fill:#f5f5f5"></polygon><path d="M363.9,437.81c-.95,0-4.52,3.7-4.52,3.7l9.06,6.59H379.7l6.22-5.9-5.16-3.71Z" style="fill:#ebebeb"></path><path d="M382.92,447.62c.69-.14,6.86-4.26,6.86-4.26l8,2.12-1.44,5.29-8.31.83Z" style="fill:#ebebeb"></path><polygon points="399.9 449.04 400.84 446.32 412.47 443.16 420.86 447.69 414.84 453.04 399.9 449.04" style="fill:#f5f5f5"></polygon><path d="M414.5,438.43a14.15,14.15,0,0,0-.64,2.83l8,4.23,10.54-1.21,1-4.54L428.89,438Z" style="fill:#ebebeb"></path></g><g id="freepik--Floor--inject-23"><path d="M723.65,435.31c0,.14-158.79.26-354.63.26s-354.67-.12-354.67-.26,158.76-.26,354.67-.26S723.65,435.16,723.65,435.31Z" style="fill:#263238"></path></g><g id="freepik--Sun--inject-23"><circle cx="311.59" cy="76.13" r="28.94" style="fill:#34A853"></circle><g style="opacity:0.9"><circle cx="311.59" cy="76.13" r="28.94" style="fill:#fff"></circle></g><circle cx="311.59" cy="76.13" r="25.81" style="fill:#34A853"></circle><g style="opacity:0.6000000000000001"><circle cx="311.59" cy="76.13" r="25.81" style="fill:#fff"></circle></g><circle cx="311.59" cy="76.13" r="21.48" style="fill:#34A853"></circle><g style="opacity:0.30000000000000004"><circle cx="311.59" cy="76.13" r="21.48" style="fill:#fff"></circle></g><circle cx="311.59" cy="76.13" r="17.2" style="fill:#34A853"></circle></g><g id="freepik--Water--inject-23"><path d="M720.34,375.1c0,.15-154.64.26-345.37.26s-345.41-.11-345.41-.26,154.62-.26,345.41-.26S720.34,375,720.34,375.1Z" style="fill:#263238"></path><path d="M136.23,382c0,.15-8.73.27-19.49.27s-19.5-.12-19.5-.27,8.73-.26,19.5-.26S136.23,381.9,136.23,382Z" style="fill:#263238"></path><path d="M144.16,388a34.59,34.59,0,0,1-5.94.26,34.59,34.59,0,0,1-5.94-.26,34.59,34.59,0,0,1,5.94-.26A34.59,34.59,0,0,1,144.16,388Z" style="fill:#263238"></path><path d="M102.92,388.87a31.61,31.61,0,0,1-5.68.26,31.71,31.71,0,0,1-5.68-.26,31.71,31.71,0,0,1,5.68-.26A31.61,31.61,0,0,1,102.92,388.87Z" style="fill:#263238"></path><path d="M702.72,389.11c0,.15-6.56.26-14.64.26s-14.65-.11-14.65-.26,6.56-.26,14.65-.26S702.72,389,702.72,389.11Z" style="fill:#263238"></path><path d="M720.34,395a67.87,67.87,0,0,1-11.87,0,67.87,67.87,0,0,1,11.87,0Z" style="fill:#263238"></path><path d="M679.11,395.94a62.17,62.17,0,0,1-11.36,0,62.17,62.17,0,0,1,11.36,0Z" style="fill:#263238"></path></g><g id="freepik--Trees--inject-23"><path d="M109.71,255.17l5-.58s14.73,59.29,9.78,180.54l-14.23-.19C112.58,405.83,119.43,306.69,109.71,255.17Z" style="fill:#ae7461"></path><path d="M67.21,192.53l.69.23c5,1.91,19.73,11,19.73,11l1.85-2.14.39,7.12,8,11,2.7-8.34c1.14,1.53.71,13.75.71,13.75l2.78,10.33,3.18-7.29c2.36,6.27-.71,15.16-.71,15.16l4.93,11.95c3.59-6.49,8-27.42-4.26-45.8S67.21,192.53,67.21,192.53Z" style="fill:#455a64"></path><path d="M68.32,193.05s.07,0,.22,0l.67,0c.58.05,1.44.06,2.55.18a50.84,50.84,0,0,1,9.2,1.8,48.31,48.31,0,0,1,12.6,5.81A46.62,46.62,0,0,1,100,206a42.93,42.93,0,0,1,5.59,6.79,44.5,44.5,0,0,1,6.1,15.79,54.34,54.34,0,0,1,.88,7.38c.14,2.33.11,4.5.07,6.49-.14,4-.48,7.17-.74,9.37-.12,1.11-.25,2-.31,2.54,0,.27-.06.49-.08.66a1,1,0,0,0,0,.23.93.93,0,0,0,.05-.22c0-.17.07-.39.11-.66.09-.58.25-1.43.39-2.53.31-2.2.69-5.4.86-9.38.07-2,.11-4.18,0-6.52a51.94,51.94,0,0,0-.85-7.43,44.24,44.24,0,0,0-6.13-15.93,42.84,42.84,0,0,0-5.65-6.85,46.06,46.06,0,0,0-6.47-5.15A47.48,47.48,0,0,0,81,194.85a48.11,48.11,0,0,0-9.27-1.69c-1.11-.1-2-.08-2.56-.11h-.67A.72.72,0,0,0,68.32,193.05Z" style="fill:#263238"></path><path d="M114.12,254.64l.61-.47S104,232.35,79.21,227.25s-39.88,3.2-43.26,4.86-12.54,8.15-12.54,8.15l17.08-1s12.57-8.4,18.69-8.17c0,0-16.88,9.18-20.33,16.72,0,0,11.82-2,14-1.67,0,0,6.77-6.62,14.25-7.56l-7.52,6.62,15.44-1.1L80.91,241l.42,3.27S95.13,243.58,114.12,254.64Z" style="fill:#455a64"></path><path d="M114.51,255.33c-.18,0-.39-.07-.63-.1-4.69-.54-19.77.88-19.77.88l-.6-2.6-3.12,5.84-10.58,5.83L81,257c-1.49.81-6,11.3-6,11.3l-6.26,7.52.61-11.28C65,268.82,63.7,281.4,63.7,281.4l-8.77,9.33c-.24-7,4.81-27.88,21.64-38.16S114.51,255.33,114.51,255.33Z" style="fill:#455a64"></path><path d="M114.48,255.25c2.44-4.81,12.29-14.76,12.29-14.76L124,238l6.38.37,11.55-6.88-5.27-3.84c1.65-1,11.41,1.26,11.41,1.26l9.53-2.54-7-3.95c6.49-1.69,15,2.33,15,2.33l13.74-3c-6.07-4.26-27.69-14.9-47.27-4.69s-20,37.88-20,37.88" style="fill:#455a64"></path><path d="M113.21,254.72c.17-.08,1,.61,1.27.53,4.57-1.64,16.49.65,16.49.65l0-2.82,4.52,5.3,12,3.58-3.13-8.17c1.69.49,8.68,10.27,8.68,10.27l8.92,8.26-3.3-11.5c2.24,2.76,8.81,14.14,8.81,14.14l11,7.6c-1.43-7.28-9.72-32-29-38.73S113.21,254.72,113.21,254.72Z" style="fill:#455a64"></path><path d="M60.35,233.11l.6-.18a12.88,12.88,0,0,1,1.73-.38,21,21,0,0,1,2.81-.22c1.1,0,2.36,0,3.74.07a62.18,62.18,0,0,1,31.46,10.49l1.13.75c.37.26.72.53,1.07.79.69.52,1.38,1,2,1.52,1.24,1.05,2.45,2,3.43,3l1.45,1.35,1.22,1.27c.77.8,1.42,1.48,1.91,2.08s.89,1,1.17,1.36a3.77,3.77,0,0,0,.43.45,4,4,0,0,0-.37-.5l-1.12-1.4c-.47-.62-1.12-1.32-1.87-2.13-.38-.4-.77-.84-1.21-1.29l-1.43-1.38c-1-1-2.18-1.94-3.42-3-.63-.52-1.32-1-2-1.54-.35-.26-.7-.54-1.07-.8l-1.13-.76a60.87,60.87,0,0,0-31.64-10.47c-1.39,0-2.65-.07-3.75,0a18.61,18.61,0,0,0-2.83.29,11.07,11.07,0,0,0-1.74.45l-.43.17C60.39,233.08,60.35,233.1,60.35,233.11Z" style="fill:#263238"></path><path d="M85.07,249.24a9.51,9.51,0,0,0,1.2-.08c.76-.07,1.87-.16,3.25-.2s3,0,4.82.07l1.4.09a8.56,8.56,0,0,1,1.42.15c1,.18,2,.43,3,.65a20.67,20.67,0,0,1,2.93.82q1.39.49,2.67,1c1.7.65,3.21,1.28,4.48,1.83l3,1.33a8.83,8.83,0,0,0,1.1.47s-.08-.07-.26-.17-.43-.25-.78-.43c-.68-.36-1.68-.86-2.93-1.44s-2.76-1.24-4.45-1.91c-.85-.33-1.75-.67-2.69-1a18.26,18.26,0,0,0-3-.85c-1-.22-2-.46-3-.64a9.4,9.4,0,0,0-1.47-.15l-1.4-.08c-1.83-.08-3.47-.07-4.85,0s-2.5.21-3.26.32c-.38,0-.68.1-.88.14S85.07,249.22,85.07,249.24Z" style="fill:#263238"></path><path d="M113.54,250.17a1.83,1.83,0,0,0,.19-.45l.47-1.3c.1-.29.2-.61.32-.95s.29-.7.45-1.1c.33-.78.66-1.7,1.14-2.66l.72-1.52c.25-.53.56-1.05.85-1.61.57-1.12,1.3-2.26,2-3.47a54.43,54.43,0,0,1,12.37-13.55c1.14-.84,2.2-1.67,3.27-2.34.53-.35,1-.7,1.52-1l1.46-.85c.91-.57,1.79-1,2.54-1.38.38-.2.73-.39,1.06-.54l.91-.42,1.25-.58a2,2,0,0,0,.43-.22,1.91,1.91,0,0,0-.46.15l-1.28.52-.93.38c-.34.15-.69.33-1.08.51-.76.39-1.65.78-2.58,1.34l-1.47.83c-.51.3-1,.65-1.55,1-1.08.66-2.16,1.49-3.31,2.33a58.15,58.15,0,0,0-6.83,6.27,57,57,0,0,0-5.62,7.37c-.74,1.22-1.46,2.37-2,3.51-.29.56-.6,1.09-.84,1.63s-.48,1.05-.7,1.54c-.47,1-.78,1.9-1.1,2.69-.14.4-.29.77-.41,1.12l-.3,1-.39,1.33A2.43,2.43,0,0,0,113.54,250.17Z" style="fill:#263238"></path><path d="M161.9,258.47a2.51,2.51,0,0,0-.32-.41c-.22-.25-.53-.64-1-1.09a30.32,30.32,0,0,0-4-3.59,33.91,33.91,0,0,0-6.95-4,33.32,33.32,0,0,0-26.93.37,30.63,30.63,0,0,0-4.71,2.64c-.54.35-.92.67-1.19.87a2.65,2.65,0,0,0-.39.32,2.55,2.55,0,0,0,.44-.26c.28-.18.68-.48,1.22-.8a33.94,33.94,0,0,1,38.35,1.08,35.65,35.65,0,0,1,4.1,3.47c.46.44.78.81,1,1.05A2.41,2.41,0,0,0,161.9,258.47Z" style="fill:#263238"></path><path d="M70.85,329.17l3.29-.39s6.6,26.92,3.35,106.53l-9.35-.12C69.67,416.07,77.24,363,70.85,329.17Z" style="fill:#ae7461"></path><path d="M42.29,289.93a2.37,2.37,0,0,1,.45.15c3.31,1.25,13,7.23,13,7.23l1.21-1.4.26,4.67,5.25,7.2,1.78-5.47c.74,1,.46,9,.46,9l1.83,6.78,2.08-4.79c1.56,4.12-.46,10-.46,10l3.24,7.85c2.35-4.27,5.23-18-2.8-30.08S42.29,289.93,42.29,289.93Z" style="fill:#455a64"></path><path d="M43,290.27l.15,0,.43,0c.39,0,.95,0,1.68.12a32.85,32.85,0,0,1,6,1.18A29.88,29.88,0,0,1,63.8,298.8a29.27,29.27,0,0,1,3.67,4.45,29.31,29.31,0,0,1,4,10.37,36.28,36.28,0,0,1,.58,4.85c.1,1.53.08,3,0,4.26-.1,2.6-.32,4.7-.49,6.15-.08.73-.16,1.29-.21,1.67,0,.18,0,.32,0,.44s0,.14,0,.15l0-.15.08-.43c.05-.38.15-.94.25-1.66.2-1.45.45-3.55.57-6.17,0-1.3.07-2.74,0-4.27a36.46,36.46,0,0,0-.55-4.88,29.24,29.24,0,0,0-4-10.46,27.87,27.87,0,0,0-3.71-4.5,30.41,30.41,0,0,0-4.25-3.38,31.35,31.35,0,0,0-14.43-4.9c-.73-.07-1.3,0-1.68-.07H43Z" style="fill:#263238"></path><path d="M73.09,330.71l.4-.31s-7-14.33-23.32-17.68-26.18,2.1-28.4,3.19-8.24,5.36-8.24,5.36l11.22-.66S33,315.1,37,315.25c0,0-11.08,6-13.35,11,0,0,7.76-1.31,9.21-1.1,0,0,4.45-4.35,9.36-5l-4.94,4.35,10.14-.72,3.85-2.07.28,2.15S60.62,323.44,73.09,330.71Z" style="fill:#455a64"></path><path d="M73.35,331.16a2.23,2.23,0,0,0-.41-.06c-3.08-.36-13,.57-13,.57l-.4-1.7-2.05,3.83-6.94,3.83.77-5.37c-1,.53-3.93,7.42-3.93,7.42l-4.11,4.93.4-7.4C40.86,340,40,348.28,40,348.28l-5.76,6.13c-.16-4.6,3.16-18.31,14.21-25.06S73.35,331.16,73.35,331.16Z" style="fill:#455a64"></path><path d="M73.33,331.11c1.6-3.16,8.07-9.69,8.07-9.69l-1.85-1.61,4.19.24,7.58-4.52L87.86,313c1.08-.63,7.49.83,7.49.83l6.26-1.67L97,309.58c4.26-1.11,9.87,1.53,9.87,1.53l9-2c-4-2.8-18.18-9.79-31-3.09S71.77,330.9,71.77,330.9" style="fill:#455a64"></path><path d="M72.5,330.76c.11-.05.68.4.83.35,3-1.08,10.83.42,10.83.42v-1.84l3,3.47L95,335.51l-2-5.36c1.11.32,5.7,6.74,5.7,6.74l5.85,5.42-2.16-7.54c1.47,1.81,5.78,9.28,5.78,9.28l7.22,5c-.93-4.78-6.38-21-19-25.43S72.5,330.76,72.5,330.76Z" style="fill:#455a64"></path><path d="M37.79,316.57l.39-.12a10.66,10.66,0,0,1,1.14-.25,13.07,13.07,0,0,1,1.85-.14c.72,0,1.54,0,2.45.05a40.53,40.53,0,0,1,13.79,3.17A39.72,39.72,0,0,1,64.28,323l.74.49c.24.16.47.34.7.51.45.35.91.67,1.32,1,.82.69,1.61,1.31,2.25,1.95l.95.88.81.84c.5.52.93,1,1.25,1.36s.58.67.77.89a2.24,2.24,0,0,0,.28.3,3,3,0,0,0-.24-.33l-.74-.92c-.31-.4-.73-.86-1.23-1.39-.24-.27-.5-.56-.79-.85l-.94-.91c-.64-.65-1.43-1.27-2.24-2-.42-.33-.87-.66-1.33-1-.23-.17-.45-.35-.69-.52l-.75-.5a39.81,39.81,0,0,0-20.77-6.87c-.92,0-1.74-.05-2.47,0a12.3,12.3,0,0,0-1.85.19,7.3,7.3,0,0,0-1.15.3l-.28.11Z" style="fill:#263238"></path><path d="M54,327.16a5.78,5.78,0,0,0,.79-.05c.5-.05,1.23-.1,2.13-.13s2,0,3.17,0l.91.05a7.5,7.5,0,0,1,.94.1c.64.12,1.29.28,2,.43a11.81,11.81,0,0,1,1.92.54c.61.22,1.2.43,1.76.65,1.11.42,2.11.84,2.93,1.2l2,.87a4.73,4.73,0,0,0,.72.31s0-.05-.17-.11l-.51-.28c-.45-.24-1.1-.57-1.93-1s-1.81-.81-2.92-1.25l-1.76-.66a11.89,11.89,0,0,0-2-.55c-.68-.15-1.33-.31-2-.43a8.24,8.24,0,0,0-1-.1l-.92-.05c-1.2-.05-2.28,0-3.19,0s-1.63.13-2.13.21c-.26,0-.45.07-.58.09A.91.91,0,0,0,54,327.16Z" style="fill:#263238"></path><path d="M72.72,327.77s0-.1.12-.29l.3-.86.22-.62c.08-.22.19-.46.29-.72.22-.52.43-1.12.75-1.75l.47-1c.17-.34.37-.69.56-1,.38-.74.86-1.49,1.34-2.28a38.65,38.65,0,0,1,3.68-4.79,40.48,40.48,0,0,1,4.44-4.11c.75-.55,1.45-1.1,2.15-1.54.35-.22.67-.46,1-.65l.95-.56c.6-.38,1.18-.65,1.67-.91.25-.13.48-.25.7-.35L92,306l.82-.39.28-.14a1.11,1.11,0,0,0-.3.1l-.84.34-.61.25c-.22.09-.45.21-.71.33-.5.26-1.09.52-1.69.88l-1,.55c-.34.19-.67.42-1,.65-.71.43-1.41,1-2.17,1.53a36.5,36.5,0,0,0-4.48,4.11,39,39,0,0,0-3.7,4.84c-.48.81-.95,1.56-1.32,2.31-.19.37-.39.72-.56,1.07s-.31.69-.45,1c-.31.64-.52,1.24-.72,1.77-.1.26-.2.5-.28.73l-.19.63c-.11.36-.19.65-.26.87A1.05,1.05,0,0,0,72.72,327.77Z" style="fill:#263238"></path><path d="M104.46,333.22a1.73,1.73,0,0,0-.2-.26c-.15-.17-.35-.43-.64-.72a20.58,20.58,0,0,0-2.66-2.36,22,22,0,0,0-4.56-2.62,21.5,21.5,0,0,0-12.67-1.36,22.07,22.07,0,0,0-5,1.59,20.48,20.48,0,0,0-3.1,1.74c-.35.23-.6.44-.78.57l-.26.21a1.12,1.12,0,0,0,.29-.17c.19-.11.45-.31.81-.53a23,23,0,0,1,8.09-3.18,21.72,21.72,0,0,1,12.54,1.34,22.87,22.87,0,0,1,4.54,2.56,22,22,0,0,1,2.7,2.28c.3.28.51.53.67.68A1.44,1.44,0,0,0,104.46,333.22Z" style="fill:#263238"></path><path d="M658,269.58l-4.59-.54s-13.5,54.38-9,165.57l13.06-.16C655.4,407.74,649.12,316.82,658,269.58Z" style="fill:#ae7461"></path><path d="M697,212.13a5.8,5.8,0,0,0-.63.21c-4.62,1.75-18.1,10.1-18.1,10.1l-1.69-2-.37,6.53-7.33,10.06-2.48-7.65c-1,1.41-.65,12.62-.65,12.62l-2.55,9.47-2.91-6.69c-2.17,5.75.64,13.9.64,13.9l-4.51,11c-3.3-5.95-7.32-25.14,3.9-42S697,212.13,697,212.13Z" style="fill:#455a64"></path><path d="M696,212.6a.58.58,0,0,1-.21,0l-.6.05c-.54,0-1.33,0-2.34.17a45.57,45.57,0,0,0-8.45,1.65,44,44,0,0,0-11.54,5.32,42.05,42.05,0,0,0-5.88,4.7,39.18,39.18,0,0,0-5.12,6.22,40.73,40.73,0,0,0-5.6,14.48,48.34,48.34,0,0,0-.8,6.77c-.14,2.14-.11,4.13-.07,5.95.13,3.64.44,6.58.68,8.6.11,1,.23,1.8.29,2.33,0,.25,0,.45.06.61a1.47,1.47,0,0,1,0,.2s0-.06,0-.2l-.1-.6c-.09-.53-.23-1.31-.36-2.32-.28-2-.63-5-.79-8.61-.06-1.82-.1-3.83,0-6a48.86,48.86,0,0,1,.78-6.82,40.7,40.7,0,0,1,5.62-14.61,39.1,39.1,0,0,1,5.18-6.28,41.94,41.94,0,0,1,5.94-4.72,43.71,43.71,0,0,1,20.15-6.84c1-.1,1.82-.08,2.35-.1H696Z" style="fill:#263238"></path><path d="M654,269.09l-.56-.43s9.85-20,32.57-24.69,36.58,2.93,39.68,4.45,11.49,7.48,11.49,7.48L721.51,255s-11.53-7.71-17.14-7.5c0,0,15.48,8.42,18.65,15.34,0,0-10.84-1.82-12.87-1.54,0,0-6.21-6.07-13.07-6.93l6.9,6.07-14.17-1-5.36-2.88-.39,3S671.41,258.94,654,269.09Z" style="fill:#455a64"></path><path d="M653.63,269.72a5.74,5.74,0,0,1,.57-.09c4.31-.49,18.13.8,18.13.8l.55-2.38,2.87,5.36,9.7,5.35-1.08-7.51c1.37.74,5.49,10.36,5.49,10.36l5.74,6.9L695,278.16c4,3.93,5.18,15.47,5.18,15.47l8,8.56c.22-6.42-4.41-25.57-19.84-35S653.63,269.72,653.63,269.72Z" style="fill:#455a64"></path><path d="M653.66,269.65c-2.24-4.41-11.28-13.54-11.28-13.54l2.59-2.25-5.85.34-10.59-6.31,4.83-3.52c-1.51-.88-10.46,1.16-10.46,1.16l-8.74-2.33,6.38-3.63c-5.95-1.54-13.79,2.14-13.79,2.14l-12.61-2.78c5.57-3.91,25.4-13.67,43.36-4.31s18.33,34.74,18.33,34.74" style="fill:#455a64"></path><path d="M654.82,269.16c-.16-.07-1,.56-1.16.49-4.19-1.5-15.13.59-15.13.59l0-2.58-4.14,4.86-11,3.28,2.87-7.49c-1.55.45-8,9.41-8,9.41l-8.18,7.58,3-10.54c-2,2.53-8.07,13-8.07,13l-10.09,7c1.31-6.67,8.91-29.36,26.59-35.52S654.82,269.16,654.82,269.16Z" style="fill:#455a64"></path><path d="M703.3,249.34a4.8,4.8,0,0,1-.55-.16,11.82,11.82,0,0,0-1.59-.35,19.32,19.32,0,0,0-2.58-.21c-1,0-2.16,0-3.43.07a57.15,57.15,0,0,0-19.25,4.43,56,56,0,0,0-9.6,5.2l-1,.68-1,.72c-.64.48-1.27.93-1.85,1.4-1.14,1-2.24,1.82-3.15,2.72L658,265.07l-1.12,1.17c-.71.73-1.31,1.35-1.76,1.91L654,269.39q-.37.42-.39.42a2.4,2.4,0,0,1,.34-.46l1-1.29c.44-.56,1-1.21,1.72-1.95l1.11-1.19,1.31-1.26c.9-.91,2-1.78,3.13-2.76.59-.48,1.22-.93,1.85-1.42.32-.23.64-.49,1-.72l1-.7a54.73,54.73,0,0,1,9.64-5.25,55.38,55.38,0,0,1,19.37-4.35c1.28,0,2.43-.07,3.45,0a17.35,17.35,0,0,1,2.59.26,9.86,9.86,0,0,1,1.59.42l.4.15Z" style="fill:#263238"></path><path d="M680.63,264.13a6.85,6.85,0,0,1-1.1-.07c-.7-.06-1.72-.14-3-.18s-2.76,0-4.42.07l-1.28.07a9.55,9.55,0,0,0-1.31.15c-.89.16-1.8.39-2.75.59a16,16,0,0,0-2.68.76q-1.29.45-2.46.9c-1.56.59-2.94,1.17-4.1,1.68l-2.73,1.22a8.06,8.06,0,0,1-1,.43s.07-.07.24-.16.4-.23.71-.39c.63-.33,1.54-.79,2.69-1.32s2.53-1.14,4.09-1.75c.78-.31,1.6-.62,2.46-.92a17.52,17.52,0,0,1,2.72-.78c.94-.2,1.86-.43,2.76-.59a9.1,9.1,0,0,1,1.35-.14l1.28-.06a43.83,43.83,0,0,1,4.45,0c1.27.07,2.28.19,3,.29l.81.13Z" style="fill:#263238"></path><path d="M654.51,265a2.5,2.5,0,0,1-.17-.41l-.42-1.2c-.1-.26-.2-.55-.3-.86s-.27-.65-.41-1c-.3-.73-.61-1.56-1.05-2.44l-.66-1.4c-.23-.48-.51-1-.78-1.48-.53-1-1.19-2.07-1.87-3.18a49.8,49.8,0,0,0-11.34-12.42c-1-.78-2-1.54-3-2.15-.49-.32-.94-.64-1.4-.92l-1.33-.78c-.84-.52-1.65-.9-2.34-1.26-.34-.18-.66-.36-1-.5l-.84-.38-1.15-.53a2.2,2.2,0,0,1-.39-.21,3.07,3.07,0,0,1,.42.14l1.18.47.85.35,1,.48c.7.35,1.52.71,2.37,1.22l1.35.77c.47.27.93.59,1.42.9,1,.61,2,1.36,3,2.14a48.41,48.41,0,0,1,11.42,12.51c.67,1.12,1.33,2.17,1.85,3.21.26.52.54,1,.77,1.5l.64,1.41c.43.89.72,1.74,1,2.47.14.37.28.71.39,1s.18.61.27.88c.15.5.27.9.36,1.22S654.53,265,654.51,265Z" style="fill:#263238"></path><path d="M610.17,272.6a1.92,1.92,0,0,1,.29-.37c.2-.23.48-.59.9-1a28.89,28.89,0,0,1,3.7-3.28,30.89,30.89,0,0,1,15.08-6,30.93,30.93,0,0,1,16,2.62,28.64,28.64,0,0,1,4.33,2.43c.49.31.84.61,1.08.79a3.29,3.29,0,0,1,.37.3,2,2,0,0,1-.41-.24c-.26-.16-.62-.44-1.12-.74a32.28,32.28,0,0,0-4.35-2.31,31.47,31.47,0,0,0-15.85-2.5,31.48,31.48,0,0,0-15,5.81,32.61,32.61,0,0,0-3.76,3.18c-.42.4-.72.74-.94,1A1.83,1.83,0,0,1,610.17,272.6Z" style="fill:#263238"></path></g><g id="freepik--House--inject-23"><polygon points="209.28 225.17 209.28 135.68 349.89 135.68 349.89 348.97 210.32 348.97 209.28 225.17" style="fill:#fafafa"></polygon><polygon points="183.52 186.37 209.28 135.68 339.25 135.13 283.44 186.37 183.52 186.37" style="fill:#34A853"></polygon><path d="M222.06,135.63c.13.06-5.3,11.47-12.12,25.48s-12.46,25.32-12.59,25.26,5.3-11.47,12.12-25.49S221.93,135.56,222.06,135.63Z" style="fill:#263238"></path><path d="M234.84,135.63c.13.06-5.3,11.47-12.12,25.48s-12.46,25.32-12.59,25.26,5.3-11.47,12.12-25.49S234.71,135.56,234.84,135.63Z" style="fill:#263238"></path><path d="M247.61,135.63c.13.06-5.29,11.47-12.11,25.48S223,186.43,222.91,186.37,228.2,174.9,235,160.88,247.49,135.56,247.61,135.63Z" style="fill:#263238"></path><path d="M260.39,135.63c.13.06-5.3,11.47-12.12,25.48s-12.46,25.32-12.59,25.26,5.3-11.47,12.12-25.49S260.26,135.56,260.39,135.63Z" style="fill:#263238"></path><path d="M273.17,135.63c.13.06-5.3,11.47-12.12,25.48s-12.46,25.32-12.59,25.26,5.3-11.47,12.12-25.49S273,135.56,273.17,135.63Z" style="fill:#263238"></path><path d="M286,135.63c.13.06-5.3,11.47-12.12,25.48s-12.46,25.32-12.59,25.26,5.29-11.47,12.12-25.49S285.82,135.56,286,135.63Z" style="fill:#263238"></path><path d="M298.72,135.63c.13.06-5.29,11.47-12.12,25.48S274.14,186.43,274,186.37s5.29-11.47,12.12-25.49S298.59,135.56,298.72,135.63Z" style="fill:#263238"></path><path d="M311.5,135.63c.13.06-3.73,8-8.62,17.71s-8.95,17.54-9.08,17.47,3.73-8,8.62-17.71S311.37,135.56,311.5,135.63Z" style="fill:#263238"></path><path d="M324.28,135.2a87.77,87.77,0,0,1-4.15,8.43,88.13,88.13,0,0,1-4.6,8.19,83.47,83.47,0,0,1,4.14-8.43A84.17,84.17,0,0,1,324.28,135.2Z" style="fill:#263238"></path><path d="M209.28,198.73c0-.14,31.27-.26,69.83-.26s69.83.12,69.83.26-31.26.26-69.83.26S209.28,198.88,209.28,198.73Z" style="fill:#e0e0e0"></path><path d="M209.28,210.78c0-.14,31.27-.26,69.83-.26s69.83.12,69.83.26-31.26.27-69.83.27S209.28,210.93,209.28,210.78Z" style="fill:#e0e0e0"></path><path d="M209.28,222.84c0-.15,31.27-.26,69.83-.26s69.83.11,69.83.26-31.26.26-69.83.26S209.28,223,209.28,222.84Z" style="fill:#e0e0e0"></path><path d="M209.28,234.89c0-.14,31.27-.26,69.83-.26s69.83.12,69.83.26-31.26.26-69.83.26S209.28,235,209.28,234.89Z" style="fill:#e0e0e0"></path><path d="M209.28,247c0-.15,31.27-.26,69.83-.26s69.83.11,69.83.26-31.26.26-69.83.26S209.28,247.09,209.28,247Z" style="fill:#e0e0e0"></path><path d="M209.28,259c0-.15,31.27-.26,69.83-.26s69.83.11,69.83.26-31.26.26-69.83.26S209.28,259.14,209.28,259Z" style="fill:#e0e0e0"></path><path d="M209.28,271.05c0-.14,31.27-.26,69.83-.26s69.83.12,69.83.26-31.26.26-69.83.26S209.28,271.2,209.28,271.05Z" style="fill:#e0e0e0"></path><path d="M209.28,283.11c0-.15,31.27-.26,69.83-.26s69.83.11,69.83.26-31.26.26-69.83.26S209.28,283.25,209.28,283.11Z" style="fill:#e0e0e0"></path><path d="M209.28,295.16c0-.14,31.27-.26,69.83-.26s69.83.12,69.83.26-31.26.26-69.83.26S209.28,295.3,209.28,295.16Z" style="fill:#e0e0e0"></path><path d="M209.28,307.21c0-.14,31.27-.26,69.83-.26s69.83.12,69.83.26-31.26.26-69.83.26S209.28,307.36,209.28,307.21Z" style="fill:#e0e0e0"></path><path d="M209.28,319.27c0-.15,31.27-.26,69.83-.26s69.83.11,69.83.26-31.26.26-69.83.26S209.28,319.41,209.28,319.27Z" style="fill:#e0e0e0"></path><path d="M209.28,331.32c0-.14,31.27-.26,69.83-.26s69.83.12,69.83.26-31.26.26-69.83.26S209.28,331.46,209.28,331.32Z" style="fill:#e0e0e0"></path><path d="M207.49,343.37c0-.14,31.67-.26,70.72-.26s70.73.12,70.73.26-31.66.26-70.73.26S207.49,343.52,207.49,343.37Z" style="fill:#e0e0e0"></path><path d="M209.33,225.77c-.14,0-.26-8.79-.26-19.63s.12-19.63.26-19.63.26,8.79.26,19.63S209.48,225.77,209.33,225.77Z" style="fill:#263238"></path><rect x="157.49" y="348.72" width="480.24" height="86.5" style="fill:#fafafa"></rect><path d="M157.14,198.53a5.61,5.61,0,0,0-7.34-.32c-.82.7-1.42,1.63-2.29,2.26a5.74,5.74,0,0,1-4.42.76,17.18,17.18,0,0,1-4.28-1.66,13.51,13.51,0,0,0,3.07,6.6,6.88,6.88,0,0,0,6.68,2.15c1.64-.48,3.12-1.75,4.82-1.58s2.9,1.73,3.87,3.16" style="fill:#34A853"></path><path d="M157.1,194.94c.15,0,.26,12.31.26,27.5s-.11,27.5-.26,27.5-.26-12.31-.26-27.5S157,194.94,157.1,194.94Z" style="fill:#263238"></path><path d="M581.07,237.45a5.61,5.61,0,0,0-7.34-.32c-.82.7-1.42,1.63-2.3,2.26a5.71,5.71,0,0,1-4.41.76,17.18,17.18,0,0,1-4.28-1.66,13.47,13.47,0,0,0,3.07,6.6,6.88,6.88,0,0,0,6.68,2.15c1.64-.48,3.12-1.75,4.82-1.58s2.9,1.73,3.87,3.16" style="fill:#34A853"></path><path d="M581,233.86c.14,0,.26,12.31.26,27.5s-.12,27.5-.26,27.5-.26-12.31-.26-27.5S580.89,233.86,581,233.86Z" style="fill:#263238"></path><rect x="220.23" y="266.95" width="38.89" height="81.73" style="fill:#34A853"></rect><path d="M255.56,347.3s0-.13,0-.38,0-.66,0-1.14c0-1,0-2.5-.05-4.39,0-3.84,0-9.39-.07-16.3,0-13.88-.06-33.24-.09-55.25l.25.26h-32l.26-.26c0,22.15-.07,41.65-.09,55.63,0,7-.06,12.56-.07,16.43,0,1.91,0,3.39,0,4.42,0,.49,0,.87,0,1.15a1.93,1.93,0,0,1,0,.39s0-.13,0-.39,0-.66,0-1.15c0-1,0-2.51-.05-4.42,0-3.87,0-9.46-.07-16.43,0-14-.06-33.48-.09-55.63v-.26h32.53v.26c0,22-.06,41.37-.09,55.25,0,6.91-.06,12.46-.07,16.3,0,1.89,0,3.37,0,4.39,0,.48,0,.86,0,1.14A1.88,1.88,0,0,1,255.56,347.3Z" style="fill:#263238"></path><rect x="228.47" y="274.35" width="22.99" height="6.49" style="fill:#fff"></rect><path d="M235.7,281.92a36.27,36.27,0,0,1,0-8.67,36.27,36.27,0,0,1,0,8.67Z" style="fill:#34A853"></path><path d="M244,282.08a36.27,36.27,0,0,1,0-8.67,36.27,36.27,0,0,1,0,8.67Z" style="fill:#34A853"></path><path d="M251.38,307.93a3.94,3.94,0,0,1,0-.44c0-.32,0-.73,0-1.24,0-1.13,0-2.69-.06-4.67,0-4-.07-9.69-.11-16.48l.22.23-22.83,0c-.06.06.49-.49.26-.25h0v6.14c0,2,0,4,0,5.9,0,3.84,0,7.45,0,10.77l-.23-.22,16.48.11,4.66.06,1.25,0,.44,0a1.7,1.7,0,0,1-.39,0l-1.2,0-4.62.05-16.62.12h-.22v-.23c0-3.32,0-6.93,0-10.77,0-1.91,0-3.88,0-5.9v-6.14h0l.26-.27,22.83,0h.23v.22c-.05,6.85-.09,12.57-.12,16.63,0,1.95,0,3.5-.06,4.61,0,.49,0,.89,0,1.2A1.7,1.7,0,0,1,251.38,307.93Z" style="fill:#263238"></path><path d="M251.38,344.18a4.83,4.83,0,0,1,0-.59c0-.41,0-.95,0-1.65,0-1.47,0-3.55-.07-6.16,0-5.3-.06-12.76-.11-21.59l.23.23-22.83,0,.26-.26h0v8.18c0,2.67,0,5.28,0,7.8,0,5,0,9.75,0,14l-.21-.22,16.53.12,4.63.05,1.23,0,.44,0a2.53,2.53,0,0,1-.39,0l-1.19,0-4.59,0-16.66.11h-.21v-.21c0-4.25,0-9,0-14,0-2.52,0-5.13,0-7.8V314.2h0l.26-.26,22.83,0h.24v.24c-.05,8.9-.09,16.41-.12,21.74,0,2.59-.05,4.66-.06,6.11,0,.68,0,1.21,0,1.61A3.28,3.28,0,0,1,251.38,344.18Z" style="fill:#263238"></path><polygon points="254.63 348.69 256.35 203.55 250.75 197.6 321.29 135.21 346.54 135.13 346.04 352.34 254.63 348.69" style="opacity:0.30000000000000004"></polygon><polygon points="519.53 225.45 519.53 135.95 378.92 135.95 378.92 349.25 518.49 349.25 519.53 225.45" style="fill:#fff"></polygon><polygon points="545.29 186.64 519.53 135.95 389.55 135.41 445.37 186.64 545.29 186.64" style="fill:#34A853"></polygon><path d="M506.75,135.9c.13-.06,5.76,11.25,12.59,25.26s12.25,25.42,12.12,25.48-5.77-11.24-12.59-25.26S506.62,136,506.75,135.9Z" style="fill:#263238"></path><path d="M494,135.9c.13-.06,5.77,11.25,12.59,25.26s12.25,25.42,12.12,25.48-5.76-11.24-12.59-25.26S493.84,136,494,135.9Z" style="fill:#263238"></path><path d="M481.19,135.9c.13-.06,5.77,11.25,12.59,25.26S506,186.58,505.9,186.64s-5.76-11.24-12.59-25.26S481.07,136,481.19,135.9Z" style="fill:#263238"></path><path d="M468.42,135.9c.13-.06,5.76,11.25,12.58,25.26s12.25,25.42,12.13,25.48-5.77-11.24-12.59-25.26S468.29,136,468.42,135.9Z" style="fill:#263238"></path><path d="M455.64,135.9c.13-.06,5.77,11.25,12.59,25.26s12.25,25.42,12.12,25.48-5.77-11.24-12.59-25.26S455.51,136,455.64,135.9Z" style="fill:#263238"></path><path d="M442.86,135.9c.13-.06,5.77,11.25,12.59,25.26s12.25,25.42,12.12,25.48S461.81,175.4,455,161.38,442.73,136,442.86,135.9Z" style="fill:#263238"></path><path d="M430.09,135.9c.13-.06,5.76,11.25,12.58,25.26s12.25,25.42,12.12,25.48S449,175.4,442.21,161.38,430,136,430.09,135.9Z" style="fill:#263238"></path><path d="M417.31,135.9c.13-.06,4.19,7.76,9.08,17.48S435.14,171,435,171.09s-4.19-7.76-9.08-17.48S417.18,136,417.31,135.9Z" style="fill:#263238"></path><path d="M404.53,135.47a84.17,84.17,0,0,1,4.61,8.19,81.81,81.81,0,0,1,4.14,8.44,86.48,86.48,0,0,1-4.6-8.2A83.78,83.78,0,0,1,404.53,135.47Z" style="fill:#263238"></path><polygon points="519.62 192.55 460.39 135.97 449.29 135.97 519.52 201.48 519.62 192.55" style="opacity:0.30000000000000004"></polygon><polygon points="517.91 419.6 266.19 419.6 266.19 205.72 396.43 90.07 517.91 205.72 517.91 419.6" style="fill:#fafafa"></polygon><path d="M414.84,116.65c0,.14-10.12.26-22.58.26s-22.59-.12-22.59-.26,10.11-.26,22.59-.26S414.84,116.5,414.84,116.65Z" style="fill:#e0e0e0"></path><path d="M427.37,128c0,.14-15.52.26-34.68.26S358,128.18,358,128s15.53-.26,34.68-.26S427.37,127.89,427.37,128Z" style="fill:#e0e0e0"></path><path d="M440.31,139.43c0,.14-21.52.26-48.06.26s-48.06-.12-48.06-.26,21.51-.26,48.06-.26S440.31,139.28,440.31,139.43Z" style="fill:#e0e0e0"></path><path d="M452.1,150.81c0,.15-26.91.26-60.09.26s-60.08-.11-60.08-.26,26.9-.26,60.08-.26S452.1,150.67,452.1,150.81Z" style="fill:#e0e0e0"></path><path d="M467.42,162.2c0,.15-33.62.26-75.09.26s-75.1-.11-75.1-.26,33.61-.26,75.1-.26S467.42,162.06,467.42,162.2Z" style="fill:#e0e0e0"></path><path d="M487.92,174.22c0,.14-44.43.26-99.22.26s-99.22-.12-99.22-.26,44.41-.26,99.22-.26S487.92,174.07,487.92,174.22Z" style="fill:#e0e0e0"></path><path d="M493.55,186.23c0,.14-45.69.26-102,.26s-102-.12-102-.26,45.67-.26,102-.26S493.55,186.09,493.55,186.23Z" style="fill:#e0e0e0"></path><path d="M517.92,198.24c0,.15-56.36.26-125.86.26s-125.87-.11-125.87-.26,56.34-.26,125.87-.26S517.92,198.1,517.92,198.24Z" style="fill:#e0e0e0"></path><path d="M517.92,210.26c0,.14-56.36.26-125.86.26s-125.87-.12-125.87-.26,56.34-.26,125.87-.26S517.92,210.11,517.92,210.26Z" style="fill:#e0e0e0"></path><path d="M517.74,222.27c0,.14-56.49.26-126.17.26s-126.17-.12-126.17-.26,56.48-.26,126.17-.26S517.74,222.13,517.74,222.27Z" style="fill:#e0e0e0"></path><path d="M517.74,234.28c0,.15-56.49.26-126.17.26s-126.17-.11-126.17-.26,56.48-.26,126.17-.26S517.74,234.14,517.74,234.28Z" style="fill:#e0e0e0"></path><path d="M517.74,246.3c0,.14-56.49.26-126.17.26s-126.17-.12-126.17-.26,56.48-.26,126.17-.26S517.74,246.15,517.74,246.3Z" style="fill:#e0e0e0"></path><path d="M517.74,258.31c0,.14-56.49.26-126.17.26s-126.17-.12-126.17-.26,56.48-.26,126.17-.26S517.74,258.17,517.74,258.31Z" style="fill:#e0e0e0"></path><path d="M517.74,270.32c0,.15-56.49.26-126.17.26s-126.17-.11-126.17-.26,56.48-.26,126.17-.26S517.74,270.18,517.74,270.32Z" style="fill:#e0e0e0"></path><path d="M517.74,282.34c0,.14-56.49.26-126.17.26s-126.17-.12-126.17-.26,56.48-.26,126.17-.26S517.74,282.19,517.74,282.34Z" style="fill:#e0e0e0"></path><path d="M517.74,294.35c0,.14-56.49.26-126.17.26s-126.17-.12-126.17-.26,56.48-.26,126.17-.26S517.74,294.21,517.74,294.35Z" style="fill:#e0e0e0"></path><path d="M517.74,306.36c0,.15-56.49.26-126.17.26s-126.17-.11-126.17-.26,56.48-.26,126.17-.26S517.74,306.22,517.74,306.36Z" style="fill:#e0e0e0"></path><path d="M517.74,318.38c0,.14-56.49.26-126.17.26s-126.17-.12-126.17-.26,56.48-.26,126.17-.26S517.74,318.23,517.74,318.38Z" style="fill:#e0e0e0"></path><path d="M517.74,330.39c0,.14-56.49.26-126.17.26s-126.17-.12-126.17-.26,56.48-.26,126.17-.26S517.74,330.25,517.74,330.39Z" style="fill:#e0e0e0"></path><path d="M517.74,342.4c0,.15-56.49.26-126.17.26s-126.17-.11-126.17-.26,56.48-.26,126.17-.26S517.74,342.26,517.74,342.4Z" style="fill:#e0e0e0"></path><path d="M517.74,354.42c0,.14-56.49.26-126.17.26s-126.17-.12-126.17-.26,56.48-.26,126.17-.26S517.74,354.27,517.74,354.42Z" style="fill:#e0e0e0"></path><path d="M637.73,366.43c0,.14-83.36.26-186.16.26s-186.17-.12-186.17-.26,83.33-.26,186.17-.26S637.73,366.29,637.73,366.43Z" style="fill:#e0e0e0"></path><path d="M637.73,378.44c0,.15-83.36.26-186.16.26s-186.17-.11-186.17-.26,83.33-.26,186.17-.26S637.73,378.3,637.73,378.44Z" style="fill:#e0e0e0"></path><path d="M637.73,390.46c0,.14-83.36.26-186.16.26s-186.17-.12-186.17-.26,83.33-.26,186.17-.26S637.73,390.31,637.73,390.46Z" style="fill:#e0e0e0"></path><path d="M637.73,402.47c0,.14-83.36.26-186.16.26s-186.17-.12-186.17-.26,83.33-.26,186.17-.26S637.73,402.33,637.73,402.47Z" style="fill:#e0e0e0"></path><path d="M637.73,414.48c0,.15-83.36.26-186.16.26s-186.17-.11-186.17-.26,83.33-.26,186.17-.26S637.73,414.34,637.73,414.48Z" style="fill:#e0e0e0"></path><path d="M637.73,426.5c0,.14-81.81.26-182.7.26s-182.71-.12-182.71-.26,81.79-.26,182.71-.26S637.73,426.35,637.73,426.5Z" style="fill:#e0e0e0"></path><polygon points="266.19 205.72 266.19 213.8 392.96 103.92 519.53 214.57 519.66 205.37 392.64 90.07 266.19 205.72" style="opacity:0.30000000000000004"></polygon><polygon points="249.9 209.19 256.21 215.38 392.57 97.2 527.39 214.92 531.67 210.46 392.96 84.14 249.9 209.19" style="fill:#34A853"></polygon><path d="M393,84.14c.1.1-31.85,28.19-71.35,62.71S250,209.29,249.9,209.18s31.85-28.18,71.36-62.72S392.87,84,393,84.14Z" style="fill:#263238"></path><path d="M392.78,83.79a46.32,46.32,0,0,1,.26,6.88,46.4,46.4,0,0,1-.26,6.89,44.83,44.83,0,0,1-.26-6.89A44.74,44.74,0,0,1,392.78,83.79Z" style="fill:#263238"></path><rect x="363.38" y="157.65" width="57.43" height="57.43" style="fill:#e0e0e0"></rect><rect x="367.93" y="162.2" width="48.33" height="48.33" style="fill:#455a64"></rect><polygon points="367.98 196.27 416.25 166.28 416.25 170.43 367.98 200.47 367.98 196.27" style="fill:#fff;opacity:0.30000000000000004"></polygon><polygon points="367.92 206.58 416.19 176.59 416.19 180.74 367.92 210.78 367.92 206.58" style="fill:#fff;opacity:0.30000000000000004"></polygon><rect x="366.34" y="173.37" width="51.3" height="4.5" style="fill:#e0e0e0"></rect><rect x="389.84" y="159.22" width="4.5" height="53.23" style="fill:#e0e0e0"></rect><path d="M420.8,158.12a1.33,1.33,0,0,1-.27.31l-.87.83-3.3,3.06,0,0h-.07c-5.47.06-14.34.1-24.33.1-9.8,0-18.52,0-24-.1h-.07l-.05-.05c-1.36-1.52-2.45-2.7-3.21-3.5-.39-.39-.68-.69-.89-.89s-.33-.25-.33-.27c.12-.17,1.89,1.46,4.67,4.45l-.12-.06c5.47-.06,14.19-.1,24-.1,10,0,18.86,0,24.33.11l-.1,0,3.4-3,.92-.77A1.51,1.51,0,0,1,420.8,158.12Z" style="fill:#263238"></path><path d="M420.8,215.08a1.63,1.63,0,0,1-.33-.27l-.92-.86-3.41-3.31.11.05c-5.5.06-14.28.1-24.16.1s-18.66,0-24.16-.1l.11-.05L364.63,214l-.92.86a1.63,1.63,0,0,1-.33.27,1.82,1.82,0,0,1,.27-.34l.86-.91,3.3-3.41.05,0h.07c5.5-.06,14.28-.1,24.16-.1s18.66,0,24.16.1h.07l.05,0,3.3,3.41.86.91C420.72,215,420.82,215.07,420.8,215.08Z" style="fill:#263238"></path><path d="M368,192.51c-.14,0-.26-6.79-.26-15.15s.12-15.16.26-15.16.26,6.79.26,15.16S368.12,192.51,368,192.51Z" style="fill:#263238"></path><path d="M416.25,192.51c-.14,0-.26-6.79-.26-15.15s.12-15.16.26-15.16.26,6.79.26,15.16S416.4,192.51,416.25,192.51Z" style="fill:#263238"></path><path d="M389.6,186.67a64.49,64.49,0,0,1-.26-8.12,64.36,64.36,0,0,1,.26-8.12,62.17,62.17,0,0,1,.26,8.12A62.3,62.3,0,0,1,389.6,186.67Z" style="fill:#263238"></path><path d="M394.36,182.1a28.86,28.86,0,0,1-.26-5.42,28.71,28.71,0,0,1,.26-5.41,27.74,27.74,0,0,1,.26,5.41A27.89,27.89,0,0,1,394.36,182.1Z" style="fill:#263238"></path><path d="M404.43,138.35l-1.74-5.58-3.56,4.55,1.61.31a6.83,6.83,0,0,1-2.3,4.36l0,0c-1.4,1.25-4,.5-4.08-1.15L394,127l4.2-.28V125.4l-3.45-.23a3.53,3.53,0,1,0-3.83,0l-3.45.23v1.33l4.2.28-.36,13.86c0,1.65-2.68,2.4-4.08,1.15l0,0a6.83,6.83,0,0,1-2.3-4.36l1.61-.31-3.56-4.55-1.74,5.58,1.57-.31a8.09,8.09,0,0,0,.72,2.43,9.2,9.2,0,0,0,2.17,2.9,10.37,10.37,0,0,0,3.23,1.95,10.06,10.06,0,0,0,1.18.37,2.58,2.58,0,0,1,.93.44l1.84,1.43,1.83-1.43a2.58,2.58,0,0,1,.93-.44,9.5,9.5,0,0,0,1.18-.37,10.37,10.37,0,0,0,3.23-1.95,9.2,9.2,0,0,0,2.17-2.9,8.09,8.09,0,0,0,.72-2.43ZM392.8,120.72a1.49,1.49,0,1,1-1.49,1.49A1.49,1.49,0,0,1,392.8,120.72Z" style="fill:#455a64"></path><rect x="284.26" y="269.18" width="49.34" height="49.34" style="fill:#e0e0e0"></rect><rect x="288.17" y="273.09" width="41.52" height="41.52" style="fill:#455a64"></rect><polygon points="288.21 302.35 329.69 276.59 329.69 280.15 288.21 305.97 288.21 302.35" style="fill:#fff;opacity:0.30000000000000004"></polygon><polygon points="288.8 313.35 330.27 287.58 330.27 291.15 288.8 316.96 288.8 313.35" style="fill:#fff;opacity:0.30000000000000004"></polygon><rect x="286.81" y="282.68" width="44.08" height="3.87" style="fill:#e0e0e0"></rect><rect x="306.99" y="270.53" width="3.87" height="45.73" style="fill:#e0e0e0"></rect><path d="M333.6,269.58a8,8,0,0,1-1,1c-.71.67-1.66,1.55-2.84,2.64l0,0h-.06c-4.7.07-12.32.11-20.91.11-8.42,0-15.91,0-20.61-.1h-.07l-.05-.05c-1.17-1.31-2.1-2.33-2.75-3-.33-.34-.58-.6-.76-.76a2.84,2.84,0,0,0-.28-.24c.11-.16,1.63,1.24,4,3.8l-.12-.05c4.7-.06,12.19-.1,20.61-.1,8.59,0,16.21,0,20.91.1l-.11,0,2.93-2.53A8.79,8.79,0,0,1,333.6,269.58Z" style="fill:#263238"></path><path d="M333.6,318.52a9.85,9.85,0,0,1-1.09-1l-2.94-2.83.12,0c-4.73.06-12.28.1-20.76.1s-16,0-20.76-.1l.11,0-2.93,2.83a9.85,9.85,0,0,1-1.09,1,10.27,10.27,0,0,1,1-1.09l2.84-2.93,0-.05h.07c4.72-.06,12.27-.1,20.76-.1s16,0,20.76.1h.07l0,.05,2.83,2.93A9.85,9.85,0,0,1,333.6,318.52Z" style="fill:#263238"></path><path d="M288.21,299.12c-.14,0-.26-5.83-.26-13s.12-13,.26-13,.26,5.82.26,13S288.36,299.12,288.21,299.12Z" style="fill:#263238"></path><path d="M329.69,299.12c-.15,0-.26-5.83-.26-13s.11-13,.26-13,.26,5.82.26,13S329.83,299.12,329.69,299.12Z" style="fill:#263238"></path><path d="M306.79,294.11a47.72,47.72,0,0,1-.26-7,47.53,47.53,0,0,1,.26-7,47.53,47.53,0,0,1,.26,7A47.72,47.72,0,0,1,306.79,294.11Z" style="fill:#263238"></path><path d="M310.88,290.18a41.71,41.71,0,0,1,0-9.3,41.71,41.71,0,0,1,0,9.3Z" style="fill:#263238"></path><rect x="365.97" y="269.18" width="49.34" height="49.34" style="fill:#e0e0e0"></rect><rect x="369.88" y="273.09" width="41.52" height="41.52" style="fill:#455a64"></rect><polygon points="369.93 302.35 411.4 276.59 411.4 280.15 369.93 305.97 369.93 302.35" style="fill:#fff;opacity:0.30000000000000004"></polygon><polygon points="370.51 313.35 411.99 287.58 411.99 291.15 370.51 316.96 370.51 313.35" style="fill:#fff;opacity:0.30000000000000004"></polygon><rect x="368.52" y="282.68" width="44.08" height="3.87" style="fill:#e0e0e0"></rect><rect x="388.71" y="270.53" width="3.87" height="45.73" style="fill:#e0e0e0"></rect><path d="M415.31,269.58a8,8,0,0,1-1,1l-2.83,2.64-.05,0h-.06c-4.7.07-12.32.11-20.9.11-8.42,0-15.92,0-20.62-.1h-.07l-.05-.05c-1.16-1.31-2.1-2.33-2.75-3-.32-.34-.58-.6-.76-.76a1.42,1.42,0,0,0-.28-.24c.11-.16,1.64,1.24,4,3.8l-.12-.05c4.7-.06,12.2-.1,20.62-.1,8.58,0,16.2,0,20.9.1l-.1,0,2.93-2.53A8.38,8.38,0,0,1,415.31,269.58Z" style="fill:#263238"></path><path d="M415.31,318.52a9.85,9.85,0,0,1-1.09-1l-2.93-2.83.11,0c-4.72.06-12.27.1-20.76.1s-16,0-20.76-.1l.11,0-2.93,2.83a9.85,9.85,0,0,1-1.09,1,9.85,9.85,0,0,1,1-1.09l2.83-2.93,0-.05h.07c4.73-.06,12.28-.1,20.76-.1s16,0,20.76.1h.07l0,.05c1.18,1.21,2.13,2.2,2.83,2.93A9.85,9.85,0,0,1,415.31,318.52Z" style="fill:#263238"></path><path d="M369.93,299.12c-.15,0-.26-5.83-.26-13s.11-13,.26-13,.26,5.82.26,13S370.07,299.12,369.93,299.12Z" style="fill:#263238"></path><path d="M411.4,299.12c-.14,0-.26-5.83-.26-13s.12-13,.26-13,.26,5.82.26,13S411.55,299.12,411.4,299.12Z" style="fill:#263238"></path><path d="M388.51,294.11a46.1,46.1,0,0,1-.26-7,45.91,45.91,0,0,1,.26-7,47.53,47.53,0,0,1,.26,7A47.72,47.72,0,0,1,388.51,294.11Z" style="fill:#263238"></path><path d="M392.6,290.18a41.71,41.71,0,0,1,0-9.3,41.71,41.71,0,0,1,0,9.3Z" style="fill:#263238"></path><rect x="447.69" y="269.18" width="49.34" height="49.34" style="fill:#e0e0e0"></rect><rect x="451.6" y="273.09" width="41.52" height="41.52" style="fill:#455a64"></rect><polygon points="451.64 302.35 493.12 276.59 493.12 280.15 451.64 305.97 451.64 302.35" style="fill:#fff;opacity:0.30000000000000004"></polygon><polygon points="452.23 313.35 493.7 287.58 493.7 291.15 452.23 316.96 452.23 313.35" style="fill:#fff;opacity:0.30000000000000004"></polygon><rect x="450.24" y="282.68" width="44.08" height="3.87" style="fill:#e0e0e0"></rect><rect x="470.42" y="270.53" width="3.87" height="45.73" style="fill:#e0e0e0"></rect><path d="M497,269.58a8,8,0,0,1-1,1c-.71.67-1.66,1.55-2.84,2.64l0,0h-.06c-4.7.07-12.32.11-20.91.11-8.42,0-15.91,0-20.61-.1h-.07l0-.05c-1.17-1.31-2.1-2.33-2.75-3-.33-.34-.58-.6-.76-.76a2.84,2.84,0,0,0-.28-.24c.11-.16,1.63,1.24,4,3.8l-.12-.05c4.7-.06,12.19-.1,20.61-.1,8.59,0,16.21,0,20.91.1l-.11,0,2.93-2.53A8.79,8.79,0,0,1,497,269.58Z" style="fill:#263238"></path><path d="M497,318.52a9.85,9.85,0,0,1-1.09-1L493,314.72l.12,0c-4.73.06-12.28.1-20.76.1s-16,0-20.76-.1l.11,0-2.93,2.83a9.85,9.85,0,0,1-1.09,1,10.27,10.27,0,0,1,1-1.09l2.84-2.93,0-.05h.07c4.72-.06,12.27-.1,20.76-.1s16,0,20.76.1h.07l0,.05,2.83,2.93A9.85,9.85,0,0,1,497,318.52Z" style="fill:#263238"></path><path d="M451.64,299.12c-.14,0-.26-5.83-.26-13s.12-13,.26-13,.26,5.82.26,13S451.79,299.12,451.64,299.12Z" style="fill:#263238"></path><path d="M493.12,299.12c-.15,0-.26-5.83-.26-13s.11-13,.26-13,.26,5.82.26,13S493.26,299.12,493.12,299.12Z" style="fill:#263238"></path><path d="M470.22,294.11a47.72,47.72,0,0,1-.26-7,47.53,47.53,0,0,1,.26-7,47.53,47.53,0,0,1,.26,7A47.72,47.72,0,0,1,470.22,294.11Z" style="fill:#263238"></path><path d="M474.31,290.18a41.71,41.71,0,0,1,0-9.3,41.71,41.71,0,0,1,0,9.3Z" style="fill:#263238"></path><rect x="205.97" y="348.81" width="60.37" height="86.5" style="fill:#e0e0e0"></rect><rect x="157.1" y="257.95" width="5.41" height="177.35" style="fill:#e0e0e0"></rect><rect x="207.62" y="258.06" width="5.41" height="90.91" style="fill:#e0e0e0"></rect><rect x="159.81" y="307.93" width="51.43" height="4.56" style="fill:#e0e0e0"></rect><rect x="164.31" y="311.14" width="5.33" height="37.54" style="fill:#e0e0e0"></rect><rect x="171.58" y="311.14" width="5.33" height="37.54" style="fill:#e0e0e0"></rect><rect x="178.84" y="311.14" width="5.33" height="37.54" style="fill:#e0e0e0"></rect><rect x="186.1" y="311.14" width="5.33" height="37.54" style="fill:#e0e0e0"></rect><rect x="193.37" y="311.14" width="5.33" height="37.54" style="fill:#e0e0e0"></rect><rect x="200.63" y="311.14" width="5.33" height="37.54" style="fill:#e0e0e0"></rect><path d="M162.81,322a67.91,67.91,0,0,1-.26-8.48,67.91,67.91,0,0,1,.26-8.48,70.29,70.29,0,0,1,.26,8.48A70.29,70.29,0,0,1,162.81,322Z" style="fill:#263238"></path><path d="M207.42,312.75c0,.14-10.07.26-22.5.26s-22.5-.12-22.5-.26,10.07-.26,22.5-.26S207.42,312.6,207.42,312.75Z" style="fill:#263238"></path><path d="M207.62,320.07a41.07,41.07,0,0,1-.26-6.59,41.07,41.07,0,0,1,.26-6.59,42.51,42.51,0,0,1,.26,6.59A42.51,42.51,0,0,1,207.62,320.07Z" style="fill:#263238"></path><polygon points="516.41 287.72 619.57 287.72 644.9 357.07 521.47 357.07 516.41 287.72" style="fill:#34A853"></polygon><path d="M631,356.15c-.14.05-5.62-15.23-12.24-34.13s-11.88-34.25-11.74-34.3,5.61,15.23,12.24,34.13S631.17,356.1,631,356.15Z" style="fill:#263238"></path><path d="M617.78,356.15c-.14.05-5.61-15.23-12.23-34.13s-11.88-34.25-11.75-34.3S599.41,303,606,321.85,617.92,356.1,617.78,356.15Z" style="fill:#263238"></path><path d="M604.52,356.15c-.13.05-5.61-15.23-12.23-34.13s-11.88-34.25-11.75-34.3,5.62,15.23,12.24,34.13S604.66,356.1,604.52,356.15Z" style="fill:#263238"></path><path d="M591.26,356.15c-.13.05-5.61-15.23-12.23-34.13s-11.88-34.25-11.74-34.3,5.61,15.23,12.23,34.13S591.4,356.1,591.26,356.15Z" style="fill:#263238"></path><path d="M578,356.15c-.14.05-5.62-15.23-12.24-34.13s-11.88-34.25-11.74-34.3,5.61,15.23,12.23,34.13S578.14,356.1,578,356.15Z" style="fill:#263238"></path><path d="M564.75,356.15c-.14.05-5.62-15.23-12.24-34.13s-11.88-34.25-11.74-34.3S546.38,303,553,321.85,564.88,356.1,564.75,356.15Z" style="fill:#263238"></path><path d="M549.65,356.15c-.14.05-5.62-15.23-12.24-34.13s-11.88-34.25-11.74-34.3,5.61,15.23,12.23,34.13S549.78,356.1,549.65,356.15Z" style="fill:#263238"></path><path d="M534.54,356.15c-.13.05-3.4-9.69-7.29-21.75s-6.94-21.86-6.81-21.91,3.41,9.7,7.3,21.75S534.68,356.11,534.54,356.15Z" style="fill:#263238"></path><rect x="265.4" y="257.95" width="5.41" height="177.35" style="fill:#e0e0e0"></rect><rect x="343.84" y="258.24" width="5.41" height="177.07" style="fill:#e0e0e0"></rect><rect x="429.92" y="258.24" width="5.41" height="177.07" style="fill:#e0e0e0"></rect><rect x="515.04" y="258.24" width="5.41" height="177.07" style="fill:#e0e0e0"></rect><rect x="268.1" y="307.93" width="250.64" height="4.56" style="fill:#e0e0e0"></rect><rect x="272.61" y="311.14" width="5.33" height="37.54" style="fill:#e0e0e0"></rect><rect x="279.87" y="311.14" width="5.33" height="37.54" style="fill:#e0e0e0"></rect><rect x="287.14" y="311.14" width="5.33" height="37.54" style="fill:#e0e0e0"></rect><rect x="294.4" y="311.14" width="5.33" height="37.54" style="fill:#e0e0e0"></rect><rect x="301.66" y="311.14" width="5.33" height="37.54" style="fill:#e0e0e0"></rect><rect x="308.93" y="311.14" width="5.33" height="37.54" style="fill:#e0e0e0"></rect><rect x="315.89" y="311.14" width="5.33" height="37.54" style="fill:#e0e0e0"></rect><rect x="322.82" y="311.14" width="5.33" height="37.54" style="fill:#e0e0e0"></rect><rect x="329.76" y="311.14" width="5.33" height="37.54" style="fill:#e0e0e0"></rect><rect x="336.7" y="311.14" width="5.33" height="37.54" style="fill:#e0e0e0"></rect><path d="M271.1,322a70.29,70.29,0,0,1-.26-8.48,70.29,70.29,0,0,1,.26-8.48,67.91,67.91,0,0,1,.26,8.48A67.91,67.91,0,0,1,271.1,322Z" style="fill:#263238"></path><path d="M342.53,312.49c0,.15-16.08.26-35.9.26s-35.91-.11-35.91-.26,16.07-.26,35.91-.26S342.53,312.35,342.53,312.49Z" style="fill:#263238"></path><rect x="351.78" y="311.14" width="5.33" height="37.54" style="fill:#e0e0e0"></rect><rect x="359.04" y="311.14" width="5.33" height="37.54" style="fill:#e0e0e0"></rect><rect x="366.31" y="311.14" width="5.33" height="37.54" style="fill:#e0e0e0"></rect><rect x="373.57" y="311.14" width="5.33" height="37.54" style="fill:#e0e0e0"></rect><rect x="380.83" y="311.14" width="5.33" height="37.54" style="fill:#e0e0e0"></rect><rect x="388.1" y="311.14" width="5.33" height="37.54" style="fill:#e0e0e0"></rect><rect x="395.06" y="311.14" width="5.33" height="37.54" style="fill:#e0e0e0"></rect><rect x="401.99" y="311.14" width="5.33" height="37.54" style="fill:#e0e0e0"></rect><rect x="408.93" y="311.14" width="5.33" height="37.54" style="fill:#e0e0e0"></rect><rect x="415.87" y="311.14" width="5.33" height="37.54" style="fill:#e0e0e0"></rect><rect x="422.73" y="311.14" width="5.33" height="37.54" style="fill:#e0e0e0"></rect><path d="M429.75,312.49c0,.15-17.88.26-39.93.26s-39.93-.11-39.93-.26,17.87-.26,39.93-.26S429.75,312.35,429.75,312.49Z" style="fill:#263238"></path><rect x="437.42" y="311.14" width="5.33" height="37.54" style="fill:#e0e0e0"></rect><rect x="444.69" y="311.14" width="5.33" height="37.54" style="fill:#e0e0e0"></rect><rect x="451.95" y="311.14" width="5.33" height="37.54" style="fill:#e0e0e0"></rect><rect x="459.22" y="311.14" width="5.33" height="37.54" style="fill:#e0e0e0"></rect><rect x="466.48" y="311.14" width="5.33" height="37.54" style="fill:#e0e0e0"></rect><rect x="473.74" y="311.14" width="5.33" height="37.54" style="fill:#e0e0e0"></rect><rect x="480.7" y="311.14" width="5.33" height="37.54" style="fill:#e0e0e0"></rect><rect x="487.64" y="311.14" width="5.33" height="37.54" style="fill:#e0e0e0"></rect><rect x="494.58" y="311.14" width="5.33" height="37.54" style="fill:#e0e0e0"></rect><rect x="501.52" y="311.14" width="5.33" height="37.54" style="fill:#e0e0e0"></rect><rect x="508.37" y="311.14" width="5.33" height="37.54" style="fill:#e0e0e0"></rect><path d="M515.39,312.49c0,.15-17.87.26-39.92.26s-39.94-.11-39.94-.26,17.88-.26,39.94-.26S515.39,312.35,515.39,312.49Z" style="fill:#263238"></path><path d="M343.69,319.89a41.07,41.07,0,0,1-.26-6.59,41.07,41.07,0,0,1,.26-6.59,42.51,42.51,0,0,1,.26,6.59A42.51,42.51,0,0,1,343.69,319.89Z" style="fill:#263238"></path><path d="M349.45,319.89a41.07,41.07,0,0,1-.26-6.59,41.07,41.07,0,0,1,.26-6.59,42.51,42.51,0,0,1,.26,6.59A42.51,42.51,0,0,1,349.45,319.89Z" style="fill:#263238"></path><path d="M429.75,319.89a41.07,41.07,0,0,1-.26-6.59,41.07,41.07,0,0,1,.26-6.59,42.51,42.51,0,0,1,.26,6.59A42.51,42.51,0,0,1,429.75,319.89Z" style="fill:#263238"></path><path d="M435.51,319.89a41.07,41.07,0,0,1-.26-6.59,41.07,41.07,0,0,1,.26-6.59,42.51,42.51,0,0,1,.26,6.59A42.51,42.51,0,0,1,435.51,319.89Z" style="fill:#263238"></path><path d="M515,319.89a40.32,40.32,0,0,1-.27-6.59,40.32,40.32,0,0,1,.27-6.59,42.51,42.51,0,0,1,.26,6.59A42.51,42.51,0,0,1,515,319.89Z" style="fill:#263238"></path><path d="M520.8,319.89a41.07,41.07,0,0,1-.26-6.59,41.07,41.07,0,0,1,.26-6.59,42.51,42.51,0,0,1,.26,6.59A42.51,42.51,0,0,1,520.8,319.89Z" style="fill:#263238"></path><polygon points="137.08 257.75 137.08 252.21 209.28 225.17 447.87 225.17 520.44 252.13 520.44 259.38 137.08 257.75" style="fill:#34A853"></polygon><path d="M520.44,252.13c0,.15-86,.26-192.05.26s-192.08-.11-192.08-.26,86-.26,192.08-.26S520.44,252,520.44,252.13Z" style="fill:#263238"></path><path d="M506.32,246.89a67.92,67.92,0,0,1-10.81,5.24,35.6,35.6,0,0,1,5.29-2.85A35.06,35.06,0,0,1,506.32,246.89Z" style="fill:#263238"></path><polygon points="137.08 257.75 137.08 252.21 209.28 225.17 447.87 225.17 520.44 252.13 520.44 259.38 137.08 257.75" style="fill:#34A853"></polygon><path d="M520.44,252.13c0,.15-86,.26-192.05.26s-192.08-.11-192.08-.26,86-.26,192.08-.26S520.44,252,520.44,252.13Z" style="fill:#263238"></path><path d="M162.58,242.29a44,44,0,0,1,0,9.55,44,44,0,0,1,0-9.55Z" style="fill:#263238"></path><path d="M177.76,237a54,54,0,0,1,.26,7.43,53.9,53.9,0,0,1-.26,7.43,53.9,53.9,0,0,1-.26-7.43A54,54,0,0,1,177.76,237Z" style="fill:#263238"></path><path d="M192.43,231.49a100.89,100.89,0,0,1,.26,10.17,101,101,0,0,1-.26,10.18,97.58,97.58,0,0,1-.26-10.18A97.46,97.46,0,0,1,192.43,231.49Z" style="fill:#263238"></path><path d="M206.42,226.7a4,4,0,0,1,.1,1c0,.63.06,1.55.08,2.69.05,2.28.08,5.42.08,8.89s0,6.62-.08,8.89c0,1.14,0,2.06-.08,2.7a3.93,3.93,0,0,1-.1,1,3.15,3.15,0,0,1-.11-1c0-.64-.06-1.56-.08-2.7,0-2.27-.08-5.42-.08-8.89s0-6.61.08-8.89c0-1.14.05-2.06.08-2.69A3.19,3.19,0,0,1,206.42,226.7Z" style="fill:#263238"></path><path d="M220.23,225.8c.15,0,.26,5.83.26,13s-.11,13-.26,13-.26-5.83-.26-13S220.09,225.8,220.23,225.8Z" style="fill:#263238"></path><path d="M233.19,225.8c.15,0,.27,5.83.27,13s-.12,13-.27,13-.26-5.83-.26-13S233.05,225.8,233.19,225.8Z" style="fill:#263238"></path><path d="M246.16,225.8c.14,0,.26,5.83.26,13s-.12,13-.26,13-.26-5.83-.26-13S246,225.8,246.16,225.8Z" style="fill:#263238"></path><path d="M259.12,225.8c.15,0,.26,5.83.26,13s-.11,13-.26,13-.26-5.83-.26-13S259,225.8,259.12,225.8Z" style="fill:#263238"></path><path d="M272.09,225.8c.14,0,.26,5.83.26,13s-.12,13-.26,13-.26-5.83-.26-13S271.94,225.8,272.09,225.8Z" style="fill:#263238"></path><path d="M285.05,225.8c.14,0,.26,5.83.26,13s-.12,13-.26,13-.26-5.83-.26-13S284.91,225.8,285.05,225.8Z" style="fill:#263238"></path><path d="M298,225.8c.15,0,.26,5.83.26,13s-.11,13-.26,13-.26-5.83-.26-13S297.87,225.8,298,225.8Z" style="fill:#263238"></path><path d="M311,225.8c.14,0,.26,5.83.26,13s-.12,13-.26,13-.26-5.83-.26-13S310.83,225.8,311,225.8Z" style="fill:#263238"></path><path d="M323.94,225.8c.14,0,.26,5.83.26,13s-.12,13-.26,13-.26-5.83-.26-13S323.8,225.8,323.94,225.8Z" style="fill:#263238"></path><path d="M336.9,225.8c.15,0,.26,5.83.26,13s-.11,13-.26,13-.26-5.83-.26-13S336.76,225.8,336.9,225.8Z" style="fill:#263238"></path><path d="M349.87,225.8c.14,0,.26,5.83.26,13s-.12,13-.26,13-.26-5.83-.26-13S349.72,225.8,349.87,225.8Z" style="fill:#263238"></path><path d="M362.83,225.8c.14,0,.26,5.83.26,13s-.12,13-.26,13-.26-5.83-.26-13S362.69,225.8,362.83,225.8Z" style="fill:#263238"></path><path d="M375.62,225.8c.15,0,.26,5.83.26,13s-.11,13-.26,13-.26-5.83-.26-13S375.48,225.8,375.62,225.8Z" style="fill:#263238"></path><path d="M388.42,225.8c.14,0,.26,5.83.26,13s-.12,13-.26,13-.26-5.83-.26-13S388.27,225.8,388.42,225.8Z" style="fill:#263238"></path><path d="M401.21,225.8c.14,0,.26,5.83.26,13s-.12,13-.26,13-.26-5.83-.26-13S401.07,225.8,401.21,225.8Z" style="fill:#263238"></path><path d="M414,225.8c.15,0,.26,5.83.26,13s-.11,13-.26,13-.26-5.83-.26-13S413.86,225.8,414,225.8Z" style="fill:#263238"></path><path d="M426.79,225.8c.15,0,.27,5.83.27,13s-.12,13-.27,13-.26-5.83-.26-13S426.65,225.8,426.79,225.8Z" style="fill:#263238"></path><path d="M439.59,225.8c.14,0,.26,5.83.26,13s-.12,13-.26,13-.26-5.83-.26-13S439.44,225.8,439.59,225.8Z" style="fill:#263238"></path><path d="M452.38,226.94c.14,0,.26,5.58.26,12.45s-.12,12.45-.26,12.45-.26-5.57-.26-12.45S452.24,226.94,452.38,226.94Z" style="fill:#263238"></path><path d="M465.17,232.74a86.07,86.07,0,0,1,.26,9.55,85.92,85.92,0,0,1-.26,9.55,89,89,0,0,1-.26-9.55A89.1,89.1,0,0,1,465.17,232.74Z" style="fill:#263238"></path><path d="M478,236.35a10.48,10.48,0,0,1,.18,2.27c.05,1.4.08,3.34.08,5.48s0,4.07-.08,5.48a10.33,10.33,0,0,1-.18,2.26,9.22,9.22,0,0,1-.19-2.26c0-1.41-.07-3.34-.07-5.48s0-4.08.07-5.48A9.36,9.36,0,0,1,478,236.35Z" style="fill:#263238"></path><path d="M490.76,241.11a28.27,28.27,0,0,1,.26,5.37,28.2,28.2,0,0,1-.26,5.36,28.2,28.2,0,0,1-.26-5.36A28.27,28.27,0,0,1,490.76,241.11Z" style="fill:#263238"></path><path d="M504.23,245.6c.08,0,.14.44.19,1.16,0,.36,0,.79.05,1.27,0,.25,0,.49,0,.74v.37H504v-.82h0c.23,0-.52,0,.51,0h0v.37c0,.25,0,.49,0,.75,0,.47,0,.9-.05,1.26-.05.72-.11,1.16-.19,1.16s-.13-.44-.18-1.16c0-.36,0-.79-.06-1.26V248.3h0c1,0,.28,0,.51,0h0v.82H504V248c0-.48,0-.91.06-1.27C504.1,246,504.16,245.6,504.23,245.6Z" style="fill:#263238"></path><polygon points="161.45 365.22 173.18 349.19 180.44 349.19 161.45 374.3 161.45 365.22" style="fill:#e0e0e0"></polygon><polygon points="208.2 365.22 196.47 349.19 189.2 349.19 208.2 374.3 208.2 365.22" style="fill:#e0e0e0"></polygon><polygon points="270.09 372.18 281.82 356.15 289.08 356.15 270.09 381.26 270.09 372.18" style="fill:#e0e0e0"></polygon><polygon points="347.53 372.18 359.26 356.15 366.53 356.15 347.53 381.26 347.53 372.18" style="fill:#e0e0e0"></polygon><polygon points="433.26 372.18 444.99 356.15 452.26 356.15 433.26 381.26 433.26 372.18" style="fill:#e0e0e0"></polygon><polygon points="344.6 372.18 332.86 356.15 325.6 356.15 344.6 381.26 344.6 372.18" style="fill:#e0e0e0"></polygon><polygon points="432.38 372.18 420.65 356.15 413.39 356.15 432.38 381.26 432.38 372.18" style="fill:#e0e0e0"></polygon><polygon points="519.64 372.18 507.91 356.15 500.64 356.15 519.64 381.26 519.64 372.18" style="fill:#e0e0e0"></polygon><rect x="150.67" y="347.86" width="378.17" height="9.09" style="fill:#e0e0e0"></rect><path d="M529,347.86c0,.14-84.47.26-188.65.26s-188.67-.12-188.67-.26,84.46-.26,188.67-.26S529,347.71,529,347.86Z" style="fill:#263238"></path><path d="M529,357c0,.14-84.47.26-188.65.26s-188.67-.12-188.67-.26,84.46-.26,188.67-.26S529,356.81,529,357Z" style="fill:#263238"></path><rect x="265.4" y="356.95" width="372.33" height="6.94" style="opacity:0.30000000000000004"></rect><path d="M213.26,435.31c-.15,0-.26-19.71-.26-44s.11-44,.26-44,.26,19.7.26,44S213.4,435.31,213.26,435.31Z" style="fill:#263238"></path><path d="M265.4,435.31c-.15,0-.26-19.71-.26-44s.11-44,.26-44,.26,19.7.26,44S265.54,435.31,265.4,435.31Z" style="fill:#263238"></path><path d="M264.11,369c0,.14-11.38.26-25.42.26s-25.43-.12-25.43-.26,11.39-.26,25.43-.26S264.11,368.84,264.11,369Z" style="fill:#263238"></path><path d="M264.11,383.22c0,.14-11.38.26-25.42.26s-25.43-.12-25.43-.26,11.39-.26,25.43-.26S264.11,383.07,264.11,383.22Z" style="fill:#263238"></path><path d="M264.11,397.44c0,.15-11.38.26-25.42.26s-25.43-.11-25.43-.26,11.39-.26,25.43-.26S264.11,397.3,264.11,397.44Z" style="fill:#263238"></path><path d="M264.11,411.67c0,.15-11.38.26-25.42.26s-25.43-.11-25.43-.26,11.39-.26,25.43-.26S264.11,411.53,264.11,411.67Z" style="fill:#263238"></path><path d="M264.11,425.9c0,.15-11.38.26-25.42.26s-25.43-.11-25.43-.26,11.39-.26,25.43-.26S264.11,425.76,264.11,425.9Z" style="fill:#263238"></path><path d="M157.1,380c0-.15,10.94-.26,24.43-.26s24.44.11,24.44.26-10.94.26-24.44.26S157.1,380.12,157.1,380Z" style="fill:#e0e0e0"></path><path d="M157.1,390.46c0-.15,10.94-.26,24.43-.26s24.44.11,24.44.26-10.94.26-24.44.26S157.1,390.6,157.1,390.46Z" style="fill:#e0e0e0"></path><path d="M157.1,400.94c0-.15,10.94-.26,24.43-.26s24.44.11,24.44.26-10.94.26-24.44.26S157.1,401.08,157.1,400.94Z" style="fill:#e0e0e0"></path><path d="M157.1,411.42c0-.15,10.94-.26,24.43-.26s24.44.11,24.44.26-10.94.26-24.44.26S157.1,411.56,157.1,411.42Z" style="fill:#e0e0e0"></path><path d="M157.1,421.9c0-.15,10.94-.26,24.43-.26s24.44.11,24.44.26-10.94.26-24.44.26S157.1,422,157.1,421.9Z" style="fill:#e0e0e0"></path><path d="M157.1,432.38c0-.15,10.94-.26,24.43-.26s24.44.11,24.44.26-10.94.26-24.44.26S157.1,432.52,157.1,432.38Z" style="fill:#e0e0e0"></path><path d="M157.1,366.43c0-.14,10.94-.26,24.43-.26s24.44.12,24.44.26-10.94.26-24.44.26S157.1,366.57,157.1,366.43Z" style="fill:#e0e0e0"></path><path d="M157,434.65c-.14,0-.26-17.28-.26-38.59s.12-38.6.26-38.6.26,17.27.26,38.6S157.1,434.65,157,434.65Z" style="fill:#263238"></path><path d="M343.8,357.07c.14,0,.26,17.52.26,39.12s-.12,39.12-.26,39.12-.26-17.51-.26-39.12S343.65,357.07,343.8,357.07Z" style="fill:#263238"></path><path d="M348.94,357.07c.14,0,.33,17.51.41,39.11s0,39.13-.1,39.13-.33-17.51-.42-39.12S348.8,357.07,348.94,357.07Z" style="fill:#263238"></path><path d="M430,357.07c.14,0,.26,17.52.26,39.12s-.12,39.12-.26,39.12-.26-17.51-.26-39.12S429.83,357.07,430,357.07Z" style="fill:#263238"></path><path d="M435.11,357.07c.15,0,.26,17.52.26,39.12s-.11,39.12-.26,39.12-.26-17.51-.26-39.12S435,357.07,435.11,357.07Z" style="fill:#263238"></path><path d="M515.34,357.07c.15,0,.21,17.52.14,39.12s-.24,39.12-.38,39.12-.21-17.51-.14-39.12S515.2,357.07,515.34,357.07Z" style="fill:#263238"></path><path d="M520.49,357.07c.14,0,.26,17.52.26,39.12s-.12,39.12-.26,39.12-.26-17.51-.26-39.12S520.34,357.07,520.49,357.07Z" style="fill:#263238"></path><path d="M270.69,435.31c-.15,0-.27-17.39-.27-38.83s.12-38.84.27-38.84S271,375,271,396.48,270.83,435.31,270.69,435.31Z" style="fill:#263238"></path><path d="M162.22,435.31c-.15,0-.26-17.49-.26-39.05s.11-39,.26-39,.26,17.48.26,39S162.36,435.31,162.22,435.31Z" style="fill:#263238"></path><path d="M206,435c-.15,0-.26-17.48-.26-39S205.82,357,206,357s.26,17.48.26,39.05S206.11,435,206,435Z" style="fill:#263238"></path><rect x="363.38" y="215.08" width="57.43" height="2.9" style="opacity:0.1"></rect><polygon points="207.62 258.06 207.62 263.99 520.44 263.99 520.44 259.2 207.62 258.06" style="opacity:0.30000000000000004"></polygon><path d="M637.73,435.22c-.15,0-.24-17.63-.21-39.36s.18-39.37.32-39.37.23,17.62.2,39.37S637.87,435.22,637.73,435.22Z" style="fill:#263238"></path><rect x="542.89" y="366.43" width="82.03" height="68.88" style="fill:#e0e0e0"></rect><path d="M624.92,435.31a2.06,2.06,0,0,1,0-.33c0-.24,0-.56,0-1,0-.87,0-2.14,0-3.77,0-3.32,0-8.14-.07-14.21,0-12.19,0-29.4-.09-49.59l.24.24-41,0-41,0,.24-.24c0,20.19-.07,37.41-.1,49.59,0,6.07,0,10.89-.06,14.21,0,1.63,0,2.9,0,3.78,0,.41,0,.73,0,1s0,.33,0,.33a1.19,1.19,0,0,1,0-.33c0-.24,0-.56,0-1,0-.88,0-2.15,0-3.78,0-3.32,0-8.14-.07-14.21,0-12.18-.06-29.4-.09-49.59v-.24h.24l41,0,41,0h.24v.24c0,20.19-.07,37.4-.09,49.59,0,6.07-.05,10.89-.07,14.21,0,1.63,0,2.9,0,3.77,0,.42,0,.74,0,1A2.06,2.06,0,0,1,624.92,435.31Z" style="fill:#263238"></path><path d="M624.69,369.76c0,.14-18.38.26-41.05.26s-41-.12-41-.26,18.38-.26,41-.26S624.69,369.61,624.69,369.76Z" style="fill:#263238"></path><path d="M624.69,373.11c0,.14-18.38.26-41.05.26s-41-.12-41-.26,18.38-.27,41-.27S624.69,373,624.69,373.11Z" style="fill:#263238"></path><path d="M624.69,376.45c0,.15-18.38.26-41.05.26s-41-.11-41-.26,18.38-.26,41-.26S624.69,376.31,624.69,376.45Z" style="fill:#263238"></path><path d="M624.69,379.8c0,.14-18.38.26-41.05.26s-41-.12-41-.26,18.38-.26,41-.26S624.69,379.66,624.69,379.8Z" style="fill:#263238"></path><path d="M624.69,383.15c0,.14-18.38.26-41.05.26s-41-.12-41-.26,18.38-.26,41-.26S624.69,383,624.69,383.15Z" style="fill:#263238"></path><path d="M624.69,386.5c0,.14-18.38.26-41.05.26s-41-.12-41-.26,18.38-.26,41-.26S624.69,386.35,624.69,386.5Z" style="fill:#263238"></path><path d="M624.69,389.84c0,.15-18.38.26-41.05.26s-41-.11-41-.26,18.38-.26,41-.26S624.69,389.7,624.69,389.84Z" style="fill:#263238"></path><path d="M624.69,393.19c0,.15-18.38.26-41.05.26s-41-.11-41-.26,18.38-.26,41-.26S624.69,393.05,624.69,393.19Z" style="fill:#263238"></path><path d="M624.69,396.54c0,.14-18.38.26-41.05.26s-41-.12-41-.26,18.38-.26,41-.26S624.69,396.4,624.69,396.54Z" style="fill:#263238"></path><path d="M624.69,399.89c0,.14-18.38.26-41.05.26s-41-.12-41-.26,18.38-.26,41-.26S624.69,399.74,624.69,399.89Z" style="fill:#263238"></path><path d="M624.69,403.24c0,.14-18.38.26-41.05.26s-41-.12-41-.26,18.38-.26,41-.26S624.69,403.09,624.69,403.24Z" style="fill:#263238"></path><path d="M624.69,406.58c0,.15-18.38.26-41.05.26s-41-.11-41-.26,18.38-.26,41-.26S624.69,406.44,624.69,406.58Z" style="fill:#263238"></path><path d="M624.69,409.93c0,.15-18.38.26-41.05.26s-41-.11-41-.26,18.38-.26,41-.26S624.69,409.79,624.69,409.93Z" style="fill:#263238"></path><path d="M624.69,413.28c0,.14-18.38.26-41.05.26s-41-.12-41-.26,18.38-.26,41-.26S624.69,413.14,624.69,413.28Z" style="fill:#263238"></path><path d="M624.69,416.63c0,.14-18.38.26-41.05.26s-41-.12-41-.26,18.38-.26,41-.26S624.69,416.48,624.69,416.63Z" style="fill:#263238"></path><path d="M624.69,420c0,.14-18.38.26-41.05.26s-41-.12-41-.26,18.38-.27,41-.27S624.69,419.83,624.69,420Z" style="fill:#263238"></path><path d="M624.69,423.32c0,.15-18.38.26-41.05.26s-41-.11-41-.26,18.38-.26,41-.26S624.69,423.18,624.69,423.32Z" style="fill:#263238"></path><path d="M624.69,426.67c0,.14-18.38.26-41.05.26s-41-.12-41-.26,18.38-.26,41-.26S624.69,426.53,624.69,426.67Z" style="fill:#263238"></path><path d="M624.69,430c0,.14-18.38.26-41.05.26s-41-.12-41-.26,18.38-.26,41-.26S624.69,429.88,624.69,430Z" style="fill:#263238"></path><path d="M624.69,433.37c0,.14-18.38.26-41.05.26s-41-.12-41-.26,18.38-.26,41-.26S624.69,433.22,624.69,433.37Z" style="fill:#263238"></path><path d="M519.47,252.39c-.14,0-.26-9.91-.26-22.13s.12-22.13.26-22.13.26,9.91.26,22.13S519.61,252.39,519.47,252.39Z" style="fill:#263238"></path><path d="M519.46,186.91a34.19,34.19,0,0,1,.26,6,34.26,34.26,0,0,1-.26,6,35.46,35.46,0,0,1-.26-6A35.39,35.39,0,0,1,519.46,186.91Z" style="fill:#263238"></path></g><g id="freepik--Bike--inject-23"><path d="M447.32,420.3a13.21,13.21,0,0,0-2.63-7h0a4.49,4.49,0,0,0,1.86.25,15.09,15.09,0,0,0-15.4-6.68c-.69-2.7-1.18-4.58-1.21-4.58a.18.18,0,0,0,0,.06l-1.07-4.25-.1,0-.21-.8h1.31l.81,3.81c.17.82.35,1.64.52,2.44.08.4.17.8.25,1.2l.13.59a.48.48,0,0,0,.15.29.43.43,0,0,0,.32.11h9.7a.45.45,0,0,0,.42-.24c.06-.16.1-.3.15-.44.2-.57.38-1.12.56-1.65.71-2.09,1.28-3.78,1.67-5,.2-.58.35-1,.45-1.35a.68.68,0,0,0,.06-.21s0-.06,0-.09h0s0,0,0-.06a.33.33,0,0,0-.06-.11h0l-.07-.08a.43.43,0,0,0-.28-.1h-5.49l-6.5,0h-4.32c-.13-.5-.27-1-.42-1.61a10.24,10.24,0,0,0-.38-1.41,7.23,7.23,0,0,0-.69-1.47,3.62,3.62,0,0,0-1.25-1.24,3.44,3.44,0,0,0-.88-.32,6.08,6.08,0,0,0-1-.16c-.65-.07-1.32-.07-2-.14A5.19,5.19,0,0,1,421,390a1.44,1.44,0,1,0-1.44,1.6,1.42,1.42,0,0,0,1-.4l.43.1c1.22.22,2.45.08,3.57.38a2,2,0,0,1,1.28,1,6.89,6.89,0,0,1,.64,1.45l-1.54.9-.77.45a.6.6,0,0,0-.11.83.61.61,0,0,0,.8.15l.69-.39,1.25-.73a.64.64,0,0,0,.08.14c.31,1.12.57,2.1.81,3l-.2,0,.62,2.49,0-.06a42.62,42.62,0,0,1-21.71,9.68l-2.64-8.05-.12,0c-.06-.17-.11-.35-.17-.54-.22-.75-.5-1.65-.8-2.64l-.39-1.29a22.39,22.39,0,0,0,3.23-.32s.45-.58.16-1a2.67,2.67,0,0,0-1.73-.86c-.7-.13-1.41-.08-2.12-.17-1.37-.17-2.91-1.26-4.21-.26a1.79,1.79,0,0,0-.75,2.23c.58,1,2.81.81,4.2.61.12.39.24.79.36,1.15.31,1,.59,1.88.82,2.64.1.32.2.6.28.87l-.16.05.76,2.32-3.95,4.53A15,15,0,0,0,376,416.2h0a3.41,3.41,0,0,0,1.92-.6,13.39,13.39,0,1,0,25.36,7.19l1.84.07a4.2,4.2,0,0,0,4.2,4.11,4.53,4.53,0,0,0,.74-.07c.21.51.41,1,.58,1.42s.37.9.53,1.26l-.88.32a.74.74,0,0,0,.25,1.43.74.74,0,0,0,.25-.05l3.27-1.18a.74.74,0,0,0,.45-.94.75.75,0,0,0-.95-.44l-.85.31-.31-.78c-.23-.58-.5-1.25-.78-2a4.19,4.19,0,0,0,1.87-3.14h.61s0-.05,0-.14,0-.25,0-.44a5.26,5.26,0,0,0-.35-1.61,5.82,5.82,0,0,0-.71-1.26l15.69-16.2s.33,1.5.88,3.72a15.19,15.19,0,0,0-11,14.47,2.2,2.2,0,0,0,1.71-1,2,2,0,0,0,.29-.79,13.81,13.81,0,0,0,0,2.41,13.39,13.39,0,0,0,26.7-2Zm-5.11,8.86-3.5-3.37-3.6-3.45a1.52,1.52,0,0,0,.26-.35l4.4,2.33,4.29,2.26-.09.18A11.23,11.23,0,0,1,442.21,429.16Zm-17.31-1a11.31,11.31,0,0,1-1.34-2.31l4.41-2,4.84-2.15a1.33,1.33,0,0,0,.15.32l-4,3.37-3.72,3.13Zm20.41-7.68a11.9,11.9,0,0,1-.19,3.05l-4.72-1-4.89-1a1.71,1.71,0,0,0,0-.32.36.36,0,0,0,0-.11l5-.37,4.77-.36S445.3,420.48,445.31,420.52Zm-11.78,2.08c-.31,1-.91,2.8-1.59,4.9l-1.5,4.64a11.51,11.51,0,0,1-2.86-1.4c.61-.89,1.6-2.37,2.73-4l2.9-4.3A1.55,1.55,0,0,0,433.53,422.6ZM432,427.5c.68-2.09,1.27-3.92,1.59-4.89a2.29,2.29,0,0,0,.37.12c0,1-.09,2.92-.16,5.09-.07,2-.13,3.8-.16,4.87a11,11,0,0,1-3.14-.55C430.78,431.12,431.33,429.43,432,427.5Zm-9.2-7.82,4.71.66,5.31.75a1.27,1.27,0,0,0,0,.34l-5.28.73-4.74.66c0-.2-.06-.4-.07-.6A10.75,10.75,0,0,1,422.75,419.68Zm11.65.31-.06-.22c.26-1,.72-2.82,1.24-4.88.47-1.84.88-3.48,1.15-4.53a11.45,11.45,0,0,1,2.9,1.17l-2.36,4-2.62,4.49A1.17,1.17,0,0,0,434.4,420Zm1.17-5.11c-.52,2.06-1,3.86-1.23,4.88l-.48-1.9c0-.92-.06-2-.1-3.17-.06-1.89-.12-3.58-.15-4.67H434a11.24,11.24,0,0,1,2.74.35C436.45,411.41,436,413.05,435.57,414.88Zm-1.82-.19c0,1.15.07,2.22.1,3.13l0-.17,0,.05s-.79-3.35-1.83-7.52c.37-.06.75-.11,1.13-.14l.47,0C433.63,411.11,433.69,412.8,433.75,414.69Zm-3.13-3.46c1.07,4.25,2,7.7,2,7.69l.12.49-2.42-3.61-2.62-3.89a11.33,11.33,0,0,1,2.76-1.33Zm-.32,4.58,2.44,3.62.25,1L429,417l-3.61-3s0,0,0,0a11,11,0,0,1,2.33-2C428.29,412.82,429.24,414.22,430.3,415.81ZM428.94,417l4.05,3.41,0,.09a1.38,1.38,0,0,0-.14.24l-4.9-2.2-4.32-1.93a11.56,11.56,0,0,1,1.69-2.65Zm6.06,3.23,3.71-3.55,3.4-3.25A11.63,11.63,0,0,1,444,416l-4.19,2.2c-1.92,1-3.59,1.88-4.5,2.37A1.58,1.58,0,0,0,435,420.26Zm3.7-3.55-3.7,3.55a1.51,1.51,0,0,0-.35-.2c.52-.87,1.5-2.55,2.63-4.48l2.36-4a11.68,11.68,0,0,1,2.46,1.91Zm-15.05-.07,4.32,1.94,4.9,2.19a1.12,1.12,0,0,0-.1.31l-5.31-.75-4.71-.66A11.38,11.38,0,0,1,423.65,416.64Zm3.82,5.53,5.27-.73h0a1.07,1.07,0,0,0,.07.32L428,423.92l-4.41,2a11.38,11.38,0,0,1-.84-3.06Zm8-.6,4.89,1,4.72,1a11.18,11.18,0,0,1-1.06,3l-4.28-2.27L435.37,422A1.42,1.42,0,0,0,435.51,421.57Zm5-.81-5,.37a1.06,1.06,0,0,0,0-.19l4.94-1,4.67-1a11.24,11.24,0,0,1,.22,1.45Zm-.11-.85-4.94,1a1.81,1.81,0,0,0-.18-.37l4.5-2.36L444,416a11.17,11.17,0,0,1,1.09,3Zm-11.46,5.57,4-3.38a1.16,1.16,0,0,0,.25.29l-2.91,4.31-2.72,4a11.06,11.06,0,0,1-2.35-2.13C426.05,427.91,427.41,426.78,428.94,425.48Zm4.66,7.21c0-1.07.09-2.85.16-4.87.07-2.17.13-4.06.16-5.09a1.69,1.69,0,0,0,.32,0l.11,0c.25,1,.7,2.83,1.22,4.9l1.18,4.73a12,12,0,0,1-1.93.32A10,10,0,0,1,433.6,432.69Zm2-5.07c-.52-2.07-1-3.88-1.23-4.9a1.33,1.33,0,0,0,.4-.12l2.51,4.33,2.45,4.21a11.59,11.59,0,0,1-2.95,1.21Zm1.69-.69-2.52-4.33a1.52,1.52,0,0,0,.35-.26l3.6,3.46c1.45,1.4,2.73,2.62,3.51,3.36a11.67,11.67,0,0,1-2.49,2C439.18,430.21,438.29,428.67,437.27,426.93Zm3.87-22-.87,0c.08-.34.18-.73.28-1.14h1.32c-.11.34-.2.63-.26.84a1.79,1.79,0,0,0-.1.36Zm1.95-6.28-1.33,0q.14-.59.3-1.26h2l-.29.93-.11.39Zm-5.49,4c0-.18,0-.41,0-.71,0-.6,0-1.43,0-2.41h3c-.29,1.26-.56,2.41-.77,3.33l-1.62,0h-.64A1.33,1.33,0,0,0,437.6,402.62Zm0,2c0-.21,0-.5,0-.85h2l-.26,1.14-1.25,0-.52,0A1.5,1.5,0,0,0,437.6,404.58Zm4.5-1.71h-.31l-1.05,0c.22-.86.5-2,.81-3.33h1.75l-.79,2.39c-.09.3-.17.54-.23.72a1.29,1.29,0,0,0-.07.27Zm-4.23-5.57h.76l2.5,0c-.09.35-.18.73-.27,1.12l0,.13-3.21,0c0-.38,0-.71,0-.95a3.18,3.18,0,0,0,0-.38Zm-5.16.37c0,.23.1.56.18.93h-1.8c-.1-.44-.19-.87-.28-1.26l1.3,0,.54,0h0A2.88,2.88,0,0,0,432.71,397.67Zm2.36,6.9c0-.21-.09-.5-.16-.84h1.82c0,.41,0,.79,0,1.14l-1.14,0-.47,0S435.11,404.79,435.07,404.57Zm1.48-5.93-.63,0-2.11,0q-.13-.6-.27-1.26h.06l3.15,0c0,.39,0,.71,0,.95a3,3,0,0,0,0,.38Zm-2.4.82h.59l2,0c0,.89,0,1.93,0,3.05v.28h-2c-.21-1-.41-1.81-.55-2.41-.07-.29-.12-.53-.17-.71a1.23,1.23,0,0,0-.07-.26Zm-2.8,0h.39l1.34,0c.2.91.44,2.07.71,3.34H432c-.21-1-.4-1.81-.53-2.4-.07-.3-.13-.53-.17-.72a1.53,1.53,0,0,0-.07-.26Zm1.32,4.25,1.33,0q.11.54.24,1.14h-1.83l-.2-.85c-.06-.22-.09-.34-.1-.35Zm12.39-6.79h0v0Zm0-.15h0a.29.29,0,0,0-.05-.13A.36.36,0,0,1,445.05,396.77Zm-.05-.12a.39.39,0,0,0-.1-.08h0Zm-18.88,7.45L412,418.66a5.3,5.3,0,0,0-2.91-1.11,2.57,2.57,0,0,0-.48,0l-1.87-5.69A44,44,0,0,0,426.12,404.1Zm-47.51,17.41a11.68,11.68,0,0,1,.29-2.53l4.65,1,5.17,1.13c0,.12-.08.24-.11.36l-5.19.33-4.78.3C378.63,421.91,378.61,421.71,378.61,421.51Zm21.48-3.71-2,.06,2.22-1c.13.29.24.59.35.89Zm-2,.06-3.31.1-.67,0,.93-.76,3.64-3a11.28,11.28,0,0,1,1.66,2.67Zm-3.06-.65-.93.77-.66,0,4.22-4.83a11.16,11.16,0,0,1,1,1.05Zm-1.52-1,.18-.26c1.09-1.57,2.05-3,2.66-3.86l.46.34Zm.17-.27-.23.35-1.6,1.83a4.35,4.35,0,0,0-.91.34c.31-.94.7-2.08,1.12-3.33.6-1.8,1.13-3.4,1.48-4.43a11.47,11.47,0,0,1,2.81,1.38Zm-1.64-.81c-.41,1.25-.8,2.4-1.11,3.33a4.64,4.64,0,0,0-.86.55c.05-1.07.11-2.56.18-4.21.08-1.89.16-3.57.2-4.66a11.26,11.26,0,0,1,3.08.56C393.18,411.76,392.65,413.36,392,415.16Zm-1.8-.33c-.07,1.65-.13,3.14-.18,4.22a3.87,3.87,0,0,0-.53.54c-.25-1.06-.65-2.72-1.1-4.58s-.84-3.49-1.09-4.54a11.34,11.34,0,0,1,2.63-.32l.47,0C390.4,411.26,390.32,412.94,390.24,414.83Zm-1.82.18,1.1,4.58v0a2.55,2.55,0,0,0-.3.43c-.52-.92-1.44-2.52-2.48-4.36-.94-1.66-1.78-3.13-2.32-4.07a11.51,11.51,0,0,1,2.92-1.14C387.58,411.53,388,413.17,388.42,415Zm-1.7.67c1,1.84,2,3.45,2.48,4.37a2.82,2.82,0,0,0-.21.38l-3.71-3.64c-1.38-1.34-2.59-2.53-3.36-3.29a11.28,11.28,0,0,1,2.49-1.89C384.94,412.56,385.78,414,386.72,415.68Zm-4.81-2.17,3.36,3.29,3.72,3.64a2.11,2.11,0,0,0-.16.34l-4.64-2.51L380,416A11.36,11.36,0,0,1,381.91,413.51Zm2.28,4.77,4.63,2.5c0,.11-.07.22-.1.33L383.55,420l-4.65-1a11.33,11.33,0,0,1,1.13-3Zm-.77,3.54,5.19-.33a2.87,2.87,0,0,0-.05.41l-4.77,1.7-4.54,1.63a11.37,11.37,0,0,1-.61-3.11Zm7,.5c.37.78,1.31,2.71,2.41,5l2.13,4.38a11.27,11.27,0,0,1-3,1l-.82-4.8c-.44-2.58-.82-4.77-1-5.55Zm2.42,5-2.42-5,.4,0,3.53,3.94,3.25,3.62a11.49,11.49,0,0,1-2.63,1.78Zm-13.59-2.06,4.54-1.63,4.77-1.71c0,.1,0,.2,0,.29v.06h.24l-4.12,3-3.94,2.84A11.24,11.24,0,0,1,379.25,425.24Zm10.36-2.95-2.13,5.18L385.64,432a11.28,11.28,0,0,1-2.75-1.61l3-3.82,3.37-4.27Zm-4,9.7c.41-1,1.09-2.65,1.85-4.52l2.12-5.18h.26c-.09.77-.33,3-.61,5.62-.22,2-.41,3.78-.52,4.85A11.85,11.85,0,0,1,385.64,432Zm3.63-4.07c.28-2.63.52-4.85.6-5.62h.27c.13.78.5,3,.95,5.55.34,2,.64,3.74.83,4.8a11.5,11.5,0,0,1-1.95.18,9.87,9.87,0,0,1-1.22-.07C388.86,431.71,389.05,429.93,389.27,427.92Zm8.33,2-3.24-3.62c-1.55-1.73-2.88-3.21-3.54-3.93l.71,0,4,2.52,4.1,2.58a11,11,0,0,1-.89,1.26A10.5,10.5,0,0,1,397.6,429.89Zm2-2.44-4.09-2.58-4-2.51,2,.08,2.69.77,4.63,1.33A11,11,0,0,1,399.63,427.45Zm-3.35-4.25-2.65-.76,7.63.28a10.93,10.93,0,0,1-.35,1.81Zm-15.57,4.86,3.93-2.83,4.12-3,.52,0c-.58.72-1.87,2.36-3.38,4.27l-3,3.81a11.41,11.41,0,0,1-1.69-1.64A6.26,6.26,0,0,1,380.71,428.06Zm22.74-21.54,1.72,5.23V412h.08l1.83,5.57h0l-2.18.07h-.49a14.94,14.94,0,0,0-4.46-7.13Zm10.65,16.31Zm14.64-19.32Z" style="opacity:0.30000000000000004"></path><path d="M449,396.65a.4.4,0,0,0-.32-.17H431.85a.4.4,0,0,0,0,.8h2.07l.39,1.85h0l.9,4.23h0l.44,2.05a.41.41,0,0,0,.39.32h9.74a.41.41,0,0,0,.38-.27L449,397A.39.39,0,0,0,449,396.65Zm-1.34,2h-2l.32-1.37h2.1Zm-1.45,4.23h-1.52l.82-3.43h1.87Zm-4.62,2.05v-1.25h2.1l-.3,1.25Zm-2.46,0-.27-1.25h1.93v1.25Zm-3.91-5.48h1.91l.74,3.43h-1.92Zm2.72,0h2.85v3.43h-2.1Zm2.85-.8h-3l-.3-1.37h3.32Zm.8-1.37h3.61l-.32,1.37h-3.29Zm0,5.6v-3.43h3.1l-.81,3.43Zm-4.94-5.6.3,1.37H435l-.3-1.37Zm-.53,6.4H438l.28,1.25h-1.94Zm9.39,1.25h-1.3l.3-1.25h1.43Z" style="fill:#e0e0e0"></path><path d="M449,396.65a.4.4,0,0,0-.32-.17H431.85a.4.4,0,0,0,0,.8h2.07l.39,1.85h0l.9,4.23h0l.44,2.05a.41.41,0,0,0,.39.32h9.74a.41.41,0,0,0,.38-.27L449,397A.39.39,0,0,0,449,396.65Zm-1.34,2h-2l.32-1.37h2.1Zm-1.45,4.23h-1.52l.82-3.43h1.87Zm-4.62,2.05v-1.25h2.1l-.3,1.25Zm-2.46,0-.27-1.25h1.93v1.25Zm-3.91-5.48h1.91l.74,3.43h-1.92Zm2.72,0h2.85v3.43h-2.1Zm2.85-.8h-3l-.3-1.37h3.32Zm.8-1.37h3.61l-.32,1.37h-3.29Zm0,5.6v-3.43h3.1l-.81,3.43Zm-4.94-5.6.3,1.37H435l-.3-1.37Zm-.53,6.4H438l.28,1.25h-1.94Zm9.39,1.25h-1.3l.3-1.25h1.43Z" style="fill:none"></path><path d="M445.49,404.93a3.33,3.33,0,0,1,.1-.36c.07-.23.16-.54.28-.91l.05.07h-1.43l.05-.05-.3,1.25-.05-.06.93,0,.37,0a1.34,1.34,0,0,1-.34,0l-1,0h-.06v-.06c.09-.37.18-.8.29-1.25v-.05H446l0,.07c-.14.38-.25.69-.34.91A1.29,1.29,0,0,1,445.49,404.93Z" style="fill:#263238"></path><path d="M436.1,403.68s0,.13.09.35.13.52.22.89l-.05,0h1.94l-.06.07c-.1-.44-.19-.86-.27-1.25l0,0-1.37,0-.55,0a3.28,3.28,0,0,1,.51,0l1.41,0h.05v0c.08.38.18.8.27,1.25l0,.07h-2.05v0c-.08-.39-.14-.72-.18-.93A2.22,2.22,0,0,1,436.1,403.68Z" style="fill:#263238"></path><path d="M436.63,397.28a4,4,0,0,1-.54,0l-1.36,0,.06-.06c.09.42.19.88.29,1.37l-.05-.05h0l1.9,0,0,.05c-.09-.4-.15-.75-.2-1s-.06-.38-.06-.39a1.4,1.4,0,0,1,.11.36c.06.23.14.58.24,1v.06h-2v0c-.1-.5-.2-1-.29-1.38v-.06h.06l1.39,0A3.28,3.28,0,0,1,436.63,397.28Z" style="fill:#263238"></path><path d="M441.57,402.88h.63l1.66,0-.05,0c.22-.94.5-2.13.8-3.43l.06.07h-3.1l.05-.05c0,1,0,1.85,0,2.46,0,.3,0,.53,0,.71s0,.26,0,.26a.77.77,0,0,1,0-.23c0-.18,0-.41,0-.7,0-.63,0-1.48,0-2.5v-.05h3.22v.07c-.32,1.3-.6,2.49-.83,3.43v0h0l-1.69,0h-.45C441.62,402.89,441.56,402.89,441.57,402.88Z" style="fill:#263238"></path><path d="M441.57,397.28s0,.14,0,.38,0,.59,0,1l0,0,3.29,0-.06.05,0-.18.29-1.19.05.07-2.57,0h-.76a1.58,1.58,0,0,1-.28,0h.26l.74,0,2.61,0h.07v.07c-.09.38-.19.78-.28,1.2l0,.18v0h0l-3.29,0h0v0c0-.43,0-.78,0-1A2.45,2.45,0,0,1,441.57,397.28Z" style="fill:#263238"></path><path d="M440.77,398.65s0-.14,0-.38,0-.59,0-1l0,0-3.19,0h-.13l.06-.07.29,1.37-.05,0,2.15,0,.64,0h.23s-.07,0-.21,0h-.62l-2.19,0h-.05v0c-.09-.42-.19-.88-.3-1.37v-.07h.2l3.19,0h0v0c0,.43,0,.78,0,1A2.21,2.21,0,0,1,440.77,398.65Z" style="fill:#263238"></path><path d="M437.92,399.45s0,.09.07.26l.17.71c.14.6.34,1.45.56,2.45l-.05,0h2.1l-.06.05v-.33c0-1.14,0-2.2,0-3.1l0,.05-2,0h0c.5,0,1.22,0,2.09,0h.05v.05c0,.9,0,2,0,3.1v.39h-2.21v-.05c-.21-1-.39-1.89-.51-2.5-.06-.29-.1-.52-.14-.7A1.22,1.22,0,0,1,437.92,399.45Z" style="fill:#263238"></path><path d="M435.2,399.45s0,.1.06.26l.17.72c.14.6.33,1.45.55,2.44l-.05,0h1.92l-.06.07c-.28-1.32-.53-2.52-.73-3.44l.05,0-1.39,0h0l1.42,0h0v0c.2.92.47,2.12.76,3.43v.07h-2v0c-.21-1-.38-1.89-.5-2.5l-.14-.71A.75.75,0,0,1,435.2,399.45Z" style="fill:#263238"></path><path d="M439.11,404.93l.48,0,1.18,0,0,.05c0-.38,0-.8,0-1.25l.06.06h-1.93l.05-.06.17.9a1.72,1.72,0,0,1,.05.36,2.39,2.39,0,0,1-.09-.32c-.06-.22-.14-.53-.23-.92v-.06h2.05v.06c0,.45,0,.87,0,1.25V405h-.05l-1.21,0A2.56,2.56,0,0,1,439.11,404.93Z" style="fill:#263238"></path><path d="M441.57,404.93l.52,0,1.28,0-.05,0,.29-1.25.06.07h-2.1l0-.05c0,.37,0,.68,0,.9s0,.34,0,.35a1.07,1.07,0,0,1,0-.32c0-.22,0-.54,0-.93v-.05h2.22l0,.07c-.1.45-.21.87-.3,1.25v0h0l-1.32,0A2.91,2.91,0,0,1,441.57,404.93Z" style="fill:#263238"></path><path d="M446.19,402.88l.08-.27c.06-.18.13-.42.23-.72.2-.61.48-1.47.81-2.46l.05.07h-1.87l.05-.05c-.32,1.35-.61,2.56-.83,3.43l0-.05,1.11,0h0l-1.13,0h-.05v-.06c.2-.88.48-2.09.8-3.43v-.05h2l0,.08-.87,2.47-.26.7C446.23,402.8,446.2,402.89,446.19,402.88Z" style="fill:#263238"></path><path d="M447.64,398.65a2.12,2.12,0,0,1,.1-.39c.08-.24.18-.58.32-1l0,.06H446l.06,0c-.12.49-.23,1-.33,1.38l-.05-.07,1.4,0,.56,0a3.77,3.77,0,0,1-.53,0l-1.43,0h-.07v-.07c.1-.42.21-.88.32-1.37v0h2.22l0,.07c-.15.42-.28.76-.37,1S447.64,398.66,447.64,398.65Z" style="fill:#263238"></path><path d="M449,396.65a.25.25,0,0,1,.07.11.63.63,0,0,1,0,.16c0,.06,0,.13-.06.21-.11.31-.26.77-.45,1.35-.4,1.18-1,2.87-1.67,5-.18.53-.37,1.08-.56,1.65-.05.14-.09.28-.15.44a.47.47,0,0,1-.43.24h-9.7a.4.4,0,0,1-.31-.11.5.5,0,0,1-.16-.29l-.12-.59c-.09-.4-.17-.8-.26-1.2-.17-.8-.34-1.62-.52-2.44-.28-1.32-.55-2.62-.82-3.86l.06,0c-.73,0-1.43,0-2.16,0a.45.45,0,0,1-.36-.42.45.45,0,0,1,.31-.46l.14,0h4.79l6.51,0h5.48a.47.47,0,0,1,.29.1.24.24,0,0,1,.06.08l-.07-.07a.39.39,0,0,0-.28-.08h-5.48l-6.51,0h-4.79l-.11,0a.34.34,0,0,0,0,.66H434v0c.26,1.24.54,2.53.82,3.85.17.83.35,1.64.52,2.45l.25,1.19c0,.2.09.4.13.6a.34.34,0,0,0,.35.31h9.7a.35.35,0,0,0,.34-.19c.06-.14.1-.29.15-.43l.57-1.64,1.71-5,.47-1.34c0-.08.05-.14.06-.2a.54.54,0,0,0,0-.15A.36.36,0,0,0,449,396.65Z" style="fill:#263238"></path><path d="M433.21,399.83l-1.34-5c-.13-.7-.8-3.67-2.77-4.29a9.38,9.38,0,0,0-2.4-.34,6.63,6.63,0,0,1-3.28-.76.59.59,0,0,0-.79.23.56.56,0,0,0,.22.78,7.92,7.92,0,0,0,3.79.91,7.84,7.84,0,0,1,2.11.28c.89.28,1.46,1.51,1.76,2.5l-2.28,1.31a.56.56,0,0,0,.56,1l2-1.15a.76.76,0,0,0,.12.19l1.25,4.67a.58.58,0,0,0,.44.4.65.65,0,0,0,.24,0A.56.56,0,0,0,433.21,399.83Z" style="fill:#e0e0e0"></path><path d="M433.21,399.83s0,0,0,.11a.51.51,0,0,1-.08.33.55.55,0,0,1-.47.27.58.58,0,0,1-.57-.44l-1.26-4.64v0a.74.74,0,0,1-.13-.21l.07,0-1.29.75-.68.39a.61.61,0,0,1-.8-.15.6.6,0,0,1,.11-.83c.25-.16.5-.3.76-.45l1.58-.92,0,.07a5.68,5.68,0,0,0-.65-1.5,2,2,0,0,0-1.27-1c-1.12-.3-2.35-.16-3.57-.38a6.81,6.81,0,0,1-2.14-.75.64.64,0,0,1-.11-1,.62.62,0,0,1,.55-.15,1.09,1.09,0,0,1,.27.11l.23.12a5.7,5.7,0,0,0,2,.52c.68.07,1.34.07,2,.14a5.89,5.89,0,0,1,.95.16,3.31,3.31,0,0,1,.88.32,3.54,3.54,0,0,1,1.25,1.24,7.28,7.28,0,0,1,.7,1.47,10.16,10.16,0,0,1,.37,1.41h0c.41,1.57.74,2.81,1,3.68.11.43.2.76.26,1l.06.25a.66.66,0,0,0,0,.09s0,0,0-.09l-.07-.25-.28-1c-.23-.86-.58-2.11-1-3.67h0a10.74,10.74,0,0,0-.39-1.41,6.53,6.53,0,0,0-.69-1.44,3.51,3.51,0,0,0-1.22-1.2,3.09,3.09,0,0,0-.85-.31,7.38,7.38,0,0,0-.94-.16c-.64-.06-1.31-.06-2-.13a5.76,5.76,0,0,1-2-.53,3.92,3.92,0,0,0-.47-.22.55.55,0,0,0-.46.12.57.57,0,0,0-.17.45.52.52,0,0,0,.27.39,6.33,6.33,0,0,0,2.1.74c1.2.22,2.43.08,3.58.39a1.75,1.75,0,0,1,.79.4,2.93,2.93,0,0,1,.55.67,6.55,6.55,0,0,1,.66,1.52v.05l0,0-1.58.91c-.25.15-.52.29-.75.44a.5.5,0,0,0,.58.82l.68-.4,1.29-.74.05,0,0,.05a.59.59,0,0,0,.1.17h0l1.23,4.64a.54.54,0,0,0,.52.43.58.58,0,0,0,.45-.25.56.56,0,0,0,.09-.32C433.22,399.87,433.2,399.83,433.21,399.83Z" style="fill:#263238"></path><path d="M400.52,421.4h0Z" style="fill:#e0e0e0"></path><path d="M400.26,423.21l-5.7-1.65,5.71,1.64,5.7,1.65Z" style="fill:#e0e0e0"></path><path d="M399.52,424.88c-2.78-1.74-5-3.16-5-3.17l5,3.16,5,3.17Z" style="fill:#e0e0e0"></path><path d="M398.34,426.28l-4-4.43s1.78,2,4,4.42l4,4.43S400.53,428.72,398.34,426.28Z" style="fill:#e0e0e0"></path><path d="M396.82,427.3c-1.44-2.95-2.59-5.34-2.59-5.35l2.6,5.35,2.59,5.34S398.25,430.25,396.82,427.3Z" style="fill:#e0e0e0"></path><path d="M395.07,427.86c-.55-3.23-1-5.85-1-5.85s.46,2.62,1,5.85,1,5.85,1,5.85S395.63,431.09,395.07,427.86Z" style="fill:#e0e0e0"></path><path d="M393.24,427.92c.35-3.26.64-5.91.64-5.91s-.27,2.65-.63,5.91-.63,5.9-.64,5.9S392.89,431.18,393.24,427.92Z" style="fill:#e0e0e0"></path><path d="M391.47,427.47l2.25-5.5s-1,2.47-2.24,5.5-2.25,5.5-2.26,5.5Z" style="fill:#e0e0e0"></path><path d="M389.89,426.55l3.68-4.66s-1.64,2.09-3.67,4.66l-3.69,4.66S387.85,429.12,389.89,426.55Z" style="fill:#e0e0e0"></path><path d="M388.62,425.22c2.66-1.91,4.82-3.47,4.83-3.46l-4.82,3.47-4.82,3.47Z" style="fill:#e0e0e0"></path><path d="M387.77,423.6c3.09-1.1,5.59-2,5.6-2l-5.6,2-5.59,2Z" style="fill:#e0e0e0"></path><path d="M387.4,421.81l5.93-.37-5.93.38-5.93.37Z" style="fill:#e0e0e0"></path><path d="M387.54,420l5.8,1.28-5.8-1.27c-3.21-.69-5.81-1.26-5.8-1.27Z" style="fill:#e0e0e0"></path><path d="M388.18,418.27l5.22,2.83-5.23-2.82L383,415.44Z" style="fill:#e0e0e0"></path><path d="M389.26,416.79c2.35,2.3,4.25,4.16,4.24,4.17l-4.24-4.16c-2.35-2.29-4.24-4.16-4.24-4.16Z" style="fill:#e0e0e0"></path><path d="M390.71,415.68c1.63,2.85,2.94,5.16,2.94,5.17s-1.32-2.31-2.95-5.17l-2.93-5.16S389.09,412.83,390.71,415.68Z" style="fill:#e0e0e0"></path><path d="M392.42,415c.76,3.19,1.38,5.77,1.38,5.77s-.63-2.58-1.4-5.77L391,409.23S391.65,411.82,392.42,415Z" style="fill:#e0e0e0"></path><path d="M394.24,414.83c-.14,3.28-.26,5.94-.26,5.94s.11-2.66.25-5.94.25-5.93.26-5.93S394.38,411.55,394.24,414.83Z" style="fill:#e0e0e0"></path><path d="M396,415.16c-1,3.11-1.89,5.64-1.89,5.63l1.88-5.63c1-3.11,1.89-5.63,1.89-5.63Z" style="fill:#e0e0e0"></path><path d="M397.68,416l-3.38,4.89,3.37-4.9,3.37-4.88S399.54,413.28,397.68,416Z" style="fill:#e0e0e0"></path><path d="M399,417.22,394.44,421l4.58-3.78,4.59-3.77Z" style="fill:#e0e0e0"></path><path d="M400,418.78l-5.45,2.36,5.45-2.37c3-1.31,5.45-2.36,5.45-2.36Z" style="fill:#e0e0e0"></path><path d="M400.47,420.55l-5.9.75,5.9-.77,5.89-.75Z" style="fill:#e0e0e0"></path><path d="M394,408.05a13.39,13.39,0,1,0,13.4,13.39A13.39,13.39,0,0,0,394,408.05Zm0,24.79a11.4,11.4,0,1,1,11.41-11.4A11.4,11.4,0,0,1,394,432.84Z" style="fill:#263238"></path><path d="M394,408.57a13.17,13.17,0,0,1,13.17,13H409a15,15,0,0,0-29-5.38h0a3.48,3.48,0,0,0,2.05-.68,3.62,3.62,0,0,0,.82-.88A13.15,13.15,0,0,1,394,408.57Z" style="fill:#34A853"></path><path d="M394,433.09a11.59,11.59,0,1,1,11.59-11.58A11.59,11.59,0,0,1,394,433.09Zm0-22.94a11.36,11.36,0,1,0,11.37,11.36A11.37,11.37,0,0,0,394,410.15Z" style="fill:#e0e0e0"></path><path d="M444.5,420.77l-5.92.43,5.92-.44,5.92-.44Z" style="fill:#e0e0e0"></path><path d="M444.38,422.6l-5.81-1.22,5.81,1.21,5.82,1.21Z" style="fill:#e0e0e0"></path><path d="M443.76,424.32l-5.25-2.78s2.35,1.23,5.25,2.77l5.25,2.78Z" style="fill:#e0e0e0"></path><path d="M442.69,425.8c-2.37-2.27-4.29-4.11-4.28-4.12l4.29,4.11,4.28,4.12Z" style="fill:#e0e0e0"></path><path d="M441.25,426.93c-1.65-2.83-3-5.13-3-5.13l3,5.13c1.65,2.83,3,5.13,3,5.13Z" style="fill:#e0e0e0"></path><path d="M439.55,427.62c-.79-3.18-1.44-5.76-1.43-5.76s.65,2.58,1.44,5.76,1.44,5.76,1.44,5.76Z" style="fill:#e0e0e0"></path><path d="M437.73,427.82c.11-3.28.2-5.94.2-5.94s-.08,2.66-.19,5.94-.19,5.93-.2,5.93S437.63,431.09,437.73,427.82Z" style="fill:#e0e0e0"></path><path d="M435.93,427.5c1-3.12,1.83-5.65,1.84-5.65l-1.83,5.65c-1,3.12-1.84,5.65-1.84,5.65Z" style="fill:#e0e0e0"></path><path d="M434.28,426.7l3.33-4.92-3.32,4.92c-1.83,2.72-3.32,4.93-3.33,4.92Z" style="fill:#e0e0e0"></path><path d="M432.92,425.47c2.51-2.11,4.55-3.82,4.55-3.81l-4.54,3.82-4.55,3.82Z" style="fill:#e0e0e0"></path><path d="M432,423.92l5.43-2.41L432,423.93c-3,1.34-5.43,2.42-5.43,2.41Z" style="fill:#e0e0e0"></path><path d="M431.45,422.16l5.88-.81-5.88.82-5.88.82Z" style="fill:#e0e0e0"></path><path d="M431.45,420.33l5.88.83-5.88-.82-5.88-.83Z" style="fill:#e0e0e0"></path><path d="M432,418.57l5.42,2.44L432,418.58l-5.41-2.43Z" style="fill:#e0e0e0"></path><path d="M432.93,417l4.54,3.83L432.92,417l-4.53-3.83Z" style="fill:#e0e0e0"></path><path d="M434.29,415.8c1.83,2.72,3.32,4.93,3.31,4.93l-3.32-4.92L431,410.87S432.46,413.08,434.29,415.8Z" style="fill:#e0e0e0"></path><path d="M435.94,415l1.81,5.66s-.82-2.53-1.82-5.66l-1.81-5.65S434.94,411.88,435.94,415Z" style="fill:#e0e0e0"></path><path d="M437.74,414.69c.11,3.28.19,5.94.19,5.94s-.09-2.66-.2-5.94-.19-5.94-.18-5.94S437.64,411.41,437.74,414.69Z" style="fill:#e0e0e0"></path><path d="M439.57,414.89c-.81,3.18-1.47,5.75-1.47,5.75s.65-2.58,1.46-5.76,1.46-5.75,1.46-5.75Z" style="fill:#e0e0e0"></path><path d="M441.26,415.58l-3,5.13,3-5.14c1.65-2.83,3-5.12,3-5.12Z" style="fill:#e0e0e0"></path><path d="M442.7,416.71l-4.3,4.11,4.29-4.11L447,412.6S445.07,414.45,442.7,416.71Z" style="fill:#e0e0e0"></path><path d="M443.77,418.2,438.51,421l5.25-2.77,5.26-2.76Z" style="fill:#e0e0e0"></path><path d="M444.38,419.92l-5.82,1.19,5.82-1.2,5.82-1.19Z" style="fill:#e0e0e0"></path><path d="M437,408a13.39,13.39,0,1,0,14.36,12.35A13.39,13.39,0,0,0,437,408Zm1.86,24.72a11.4,11.4,0,1,1,10.52-12.22A11.4,11.4,0,0,1,438.81,432.67Z" style="fill:#263238"></path><path d="M437.94,433a11.59,11.59,0,1,1,11.57-12.46h0a11.57,11.57,0,0,1-10.68,12.42A8.83,8.83,0,0,1,437.94,433ZM438,410l-.86,0a11.36,11.36,0,1,0,12.18,10.48h0A11.38,11.38,0,0,0,438,410Z" style="fill:#e0e0e0"></path><rect x="434.35" y="397.92" width="1.47" height="23.95" transform="translate(-86.82 118.48) rotate(-14.11)" style="fill:#34A853"></rect><path d="M407.27,404.19a.55.55,0,0,1-.53-.39l-2-6.63a.55.55,0,1,1,1.05-.33l2,6.64a.55.55,0,0,1-.36.69Z" style="fill:#e0e0e0"></path><path d="M407.27,404.19a.54.54,0,0,0,.16,0,.49.49,0,0,0,.33-.34c.09-.2-.05-.45-.13-.75s-.2-.64-.32-1c-.24-.76-.51-1.65-.82-2.63l-.49-1.56c-.08-.27-.16-.54-.25-.82a.79.79,0,0,0-.17-.37.48.48,0,0,0-.36-.16.5.5,0,0,0-.49.51,2.28,2.28,0,0,0,.11.41l.12.41.48,1.55.8,2.64c.22.75.4,1.35.53,1.78a.58.58,0,0,0,.5.38.32.32,0,0,1-.18,0,.54.54,0,0,1-.37-.34c-.13-.43-.33-1-.56-1.77l-.83-2.64-.48-1.55-.13-.41-.06-.21a.71.71,0,0,1-.05-.22.68.68,0,0,1,.17-.45.61.61,0,0,1,.44-.19.64.64,0,0,1,.44.19.57.57,0,0,1,.13.21l.07.21c.09.28.17.56.25.83l.48,1.55.8,2.64.3,1,.13.41a.61.61,0,0,1,0,.38.54.54,0,0,1-.37.34A.28.28,0,0,1,407.27,404.19Z" style="fill:#263238"></path><rect x="409.46" y="402.24" width="1.47" height="20.65" transform="translate(-108.29 148.66) rotate(-18.19)" style="fill:#34A853"></rect><polygon points="413.71 423.13 393.71 421.87 393.8 420.4 413.13 421.62 432.4 401.73 433.46 402.75 413.71 423.13" style="fill:#34A853"></polygon><rect x="390.34" y="412.65" width="21.07" height="1.1" transform="translate(-174.01 444.03) rotate(-48.94)" style="fill:#34A853"></rect><circle cx="413.31" cy="422.76" r="4.21" style="fill:#e0e0e0"></circle><path d="M415.53,422.76a2.25,2.25,0,1,1-2.24-2.24A2.24,2.24,0,0,1,415.53,422.76Z" style="fill:#263238"></path><path d="M416.17,430.69a.8.8,0,0,1-.73-.49l-2.88-7.14a.78.78,0,0,1,1.45-.59l2.89,7.14a.78.78,0,0,1-.43,1A.8.8,0,0,1,416.17,430.69Z" style="fill:#263238"></path><path d="M416.17,430.69s.07,0,.2,0a.77.77,0,0,0,.45-.35.69.69,0,0,0,.11-.39,1.14,1.14,0,0,0-.14-.48c-.14-.34-.29-.72-.47-1.14l-1.22-3-.72-1.76c-.13-.31-.25-.62-.38-.94a.86.86,0,0,0-.27-.4.69.69,0,0,0-.44-.15.72.72,0,0,0-.71.55.73.73,0,0,0,0,.46l.18.46.72,1.77c.45,1.13.85,2.15,1.2,3s.6,1.56.8,2a.8.8,0,0,0,.45.35c.13,0,.2,0,.2,0a.67.67,0,0,1-.21,0,.81.81,0,0,1-.48-.34c-.22-.47-.49-1.16-.84-2l-1.23-3c-.23-.56-.47-1.15-.71-1.76-.07-.16-.13-.31-.19-.47a.8.8,0,0,1,0-.53.83.83,0,0,1,.82-.64.84.84,0,0,1,.52.18,1.12,1.12,0,0,1,.18.2,1,1,0,0,1,.12.25c.13.31.25.63.38.93.24.62.48,1.21.71,1.77l1.2,3c.17.43.32.82.46,1.16l.09.25a.73.73,0,0,1,0,.25.9.9,0,0,1-.13.42.78.78,0,0,1-.48.34A.67.67,0,0,1,416.17,430.69Z" style="fill:#455a64"></path><path d="M414.54,431.33a.75.75,0,0,1-.7-.49.74.74,0,0,1,.45-.94l3.27-1.18a.73.73,0,0,1,.5,1.38l-3.27,1.18A.79.79,0,0,1,414.54,431.33Z" style="fill:#263238"></path><path d="M450.54,413.55h0a15.16,15.16,0,0,0-27.89,8.15h0a2.18,2.18,0,0,0,1.7-1,1.94,1.94,0,0,0,.3-.81,13.3,13.3,0,0,1,22.46-7.57,4.52,4.52,0,0,0,1.58,1A4.47,4.47,0,0,0,450.54,413.55Z" style="fill:#34A853"></path><path d="M439.51,421.25A1.39,1.39,0,1,1,438,420,1.4,1.4,0,0,1,439.51,421.25Z" style="fill:#e0e0e0"></path><path d="M418.1,423.16l-25.53-1h0a4.26,4.26,0,0,1,4.12-4.11l15.86-.51a5.39,5.39,0,0,1,5.55,5.58Z" style="fill:#34A853"></path><path d="M418.1,423.16a.85.85,0,0,1,0-.15,3.66,3.66,0,0,0,0-.42,5.18,5.18,0,0,0-.37-1.6,5.36,5.36,0,0,0-4.62-3.36c-.32,0-.65,0-1,0l-1,0-2.18.07-4.81.16-5.31.18-1.39,0a8.1,8.1,0,0,0-1.4.11,4.2,4.2,0,0,0-3.35,4l-.06-.06,18.12.71,5.42.22,1.47.06.38,0h-.37l-1.45,0-5.41-.19-18.16-.66h-.06v-.06a4.33,4.33,0,0,1,3.44-4.07,6.91,6.91,0,0,1,1.42-.11l1.4-.05,5.31-.16,4.81-.15,2.18-.07,1,0a8.17,8.17,0,0,1,1,0,5.3,5.3,0,0,1,3.16,1.3,5.29,5.29,0,0,1,1.86,3.73,3.15,3.15,0,0,1,0,.44Z" style="fill:#263238"></path><path d="M409.42,397.77a25.54,25.54,0,0,1-3.43.34c-.71.09-4.44.89-5.21-.45a1.78,1.78,0,0,1,.74-2.23c1.31-1,2.84.09,4.22.26.7.09,1.41,0,2.11.17a2.67,2.67,0,0,1,1.74.86C409.87,397.19,409.42,397.77,409.42,397.77Z" style="fill:#263238"></path><path d="M425,390.11a1.45,1.45,0,1,1-1.45-1.45A1.45,1.45,0,0,1,425,390.11Z" style="fill:#263238"></path><path d="M409.17,412l-.07-1.3A42.67,42.67,0,0,0,432,400.89l.86,1A43,43,0,0,1,409.17,412Z" style="fill:#34A853"></path><g style="opacity:0.30000000000000004"><path d="M408.39,421.49a7,7,0,0,1,3.79-3.41s-3.66.1-4.69,3.39Z"></path></g><path d="M436.6,418.92s-.93-3.43-2-7.69-1.91-7.71-1.88-7.72.92,3.44,2,7.69S436.63,418.91,436.6,418.92Z" style="fill:#263238"></path><path d="M437.81,417.7s-.92-3.43-2-7.69-1.91-7.71-1.88-7.72.92,3.44,2,7.7S437.84,417.7,437.81,417.7Z" style="fill:#263238"></path></g></svg>
