<?xml version="1.0" encoding="UTF-8"?> <svg xmlns="http://www.w3.org/2000/svg" width="117" height="50" viewBox="0 0 117 50" fill="none"><g clip-path="url(#clip0)"><path d="M58.9248 40.9303C57.689 39.9878 56.4163 39.0124 53.1082 38.121C49.8004 37.2299 48.2024 37.4319 46.6743 37.6296C46.2366 37.6842 45.7881 37.7358 45.3106 37.7682C43.8163 38.8262 42.7931 40.5632 42.5737 42.4593C42.4457 43.5402 43.1442 44.568 44.2005 44.8526C44.3073 44.8815 44.4169 44.8994 44.5371 44.9203C45.6577 45.0496 46.5853 44.8741 47.3186 44.6117C47.4837 45.7946 48.0199 47.2159 49.4824 48.3803C49.7177 48.5703 49.9809 48.6987 50.2796 48.7791C50.5786 48.8598 50.8702 48.8809 51.1685 48.8346C53.0112 48.572 54.1852 47.6002 54.9165 46.6589C55.4209 47.2547 56.1397 47.8624 57.1718 48.3245C57.2727 48.3747 57.3795 48.4034 57.4968 48.4352C58.5534 48.7198 59.669 48.1808 60.0959 47.1803C60.838 45.4251 60.8261 43.4093 60.0581 41.7416C59.6394 41.4679 59.2874 41.2006 58.9248 40.9303Z" fill="white"></path><path d="M107.811 40.1572C105.613 40.1572 104.342 39.6351 103.105 39.1352C101.669 38.5464 100.188 37.9354 96.7634 37.9354C93.3386 37.9354 91.8472 38.5464 90.422 39.1352C89.1958 39.6351 87.9253 40.1572 85.7158 40.1572C83.2079 40.1572 81.2746 39.4907 79.9599 38.1687C78.6453 36.8468 77.9824 34.9027 77.9824 32.381C77.9824 32.3033 77.9935 24.9936 79.0982 17.7729C80.667 7.56381 83.6278 2.38708 87.9253 2.38708C90.5878 2.38708 92.0018 3.79791 93.1287 4.93101C94.1782 5.99747 95.0068 6.83063 96.7634 6.83063C98.5199 6.83063 99.3485 5.99747 100.398 4.93101C101.525 3.79791 102.939 2.38708 105.601 2.38708C109.899 2.38708 112.86 7.56381 114.429 17.7729C115.533 24.9936 115.544 32.3144 115.544 32.381C115.544 34.9027 114.881 36.8468 113.567 38.1687C112.252 39.4907 110.319 40.1572 107.811 40.1572Z" fill="white"></path><path d="M61.6975 42.389C59.5739 41.8167 58.4811 40.9817 57.4145 40.177C56.1788 39.2345 54.9061 38.259 51.5982 37.3676C48.2901 36.4764 46.6922 36.6784 45.1641 36.8761C43.8509 37.0399 42.4892 37.2136 40.355 36.6386C37.9327 35.9859 36.2367 34.839 35.3071 33.2198C34.3776 31.6007 34.2377 29.5505 34.8867 27.1148C36.5765 20.7732 40.5528 14.0928 45.5213 9.2672C50.8143 4.12637 56.3621 1.8489 60.7481 3.03059C65.1337 4.21228 68.806 8.97392 70.8334 16.0872C72.7341 22.7752 72.8587 30.5487 71.1688 36.8903C70.5197 39.3261 69.3791 41.0315 67.7688 41.9662C66.1587 42.9009 64.1198 43.0415 61.6975 42.389Z" fill="white"></path><path d="M17.2206 40.1572C13.5307 40.1572 9.77448 38.913 6.89105 36.7357C3.57676 34.2473 1.75391 30.7258 1.75391 26.8266C1.75391 23.7494 3.48838 20.1613 8.38248 20.1613C11.0781 20.1613 11.6968 19.5392 11.6968 16.8286V12.3851C11.6968 5.09765 14.3924 2.38708 21.6396 2.38708C28.8869 2.38708 31.5825 5.09765 31.5825 12.3851V25.7157C31.5825 30.4481 30.3562 34.0696 27.9478 36.5024C25.5284 38.9241 21.9269 40.1572 17.2206 40.1572Z" fill="white"></path><path d="M50.6559 22.1434C50.1223 21.9996 49.0551 21.7121 48.3404 24.3947C47.6256 27.0773 48.6926 27.3648 49.2262 27.5085C49.7598 27.6523 50.827 27.9398 51.5417 25.2572C52.2565 22.5746 51.1893 22.2871 50.6559 22.1434Z" fill="#2A3632"></path><path d="M60.2593 24.7312C59.7257 24.5874 58.6587 24.2999 57.944 26.9825C57.229 29.6651 58.2962 29.9526 58.8298 30.0963C59.3634 30.24 60.4303 30.5275 61.1451 27.845C61.8601 25.1624 60.7929 24.8749 60.2593 24.7312Z" fill="#2A3632"></path><path d="M57.7438 14.8529C57.2102 14.7092 56.143 14.4217 55.4282 17.1042C54.7135 19.7868 55.7804 20.0745 56.314 20.2183C56.8476 20.362 57.9148 20.6495 58.6296 17.9669C59.3444 15.2844 58.2772 14.9967 57.7438 14.8529Z" fill="#2A3632"></path><path d="M105.601 3.49808C114.439 3.49808 114.439 32.3811 114.439 32.3811C114.439 36.8247 112.229 39.0464 107.81 39.0464C103.391 39.0464 103.391 36.8247 96.7627 36.8247C90.1341 36.8247 90.1341 39.0464 85.715 39.0464C81.296 39.0464 79.0865 36.8247 79.0865 32.3811C79.0865 32.3811 79.0865 3.49808 87.9246 3.49808C92.3436 3.49808 92.3436 7.94162 96.7627 7.94162C101.182 7.94162 101.182 3.49808 105.601 3.49808ZM105.601 1.27631C102.474 1.27631 100.828 2.93153 99.624 4.1535C98.5413 5.24217 98 5.71985 96.7627 5.71985C95.5253 5.71985 94.984 5.24217 93.9013 4.1535C92.6971 2.93153 91.051 1.27631 87.9246 1.27631C86.2895 1.27631 84.8091 1.8984 83.5055 3.10927C82.4781 4.06463 81.5943 5.36437 80.8099 7.07513C79.6278 9.6635 78.6777 13.1961 78.0038 17.5952C76.888 24.9049 76.877 32.0812 76.877 32.3811C76.877 35.2028 77.6503 37.4134 79.1859 38.9465C80.7105 40.4906 82.909 41.2682 85.715 41.2682C88.1345 41.2682 89.5707 40.6794 90.8301 40.1573C92.2221 39.5797 93.5478 39.0464 96.7627 39.0464C99.9775 39.0464 101.292 39.5908 102.695 40.1573C103.966 40.6794 105.391 41.2682 107.81 41.2682C110.616 41.2682 112.815 40.4906 114.339 38.9465C115.864 37.4134 116.648 35.2028 116.648 32.3811C116.648 32.0812 116.637 24.9049 115.522 17.6063C114.848 13.2072 113.909 9.6635 112.715 7.08624C111.931 5.37548 111.047 4.07574 110.02 3.12038C108.716 1.8984 107.236 1.27631 105.601 1.27631Z" fill="#2A3632"></path><path d="M74.5905 26.5132C74.5142 22.893 73.97 19.2271 73.031 15.9264C72.0566 12.5012 70.6546 9.47825 68.9701 7.17276C67.0049 4.50413 64.7154 2.79469 62.165 2.10752C59.6147 1.42037 56.7819 1.74971 53.7637 3.07562C51.1585 4.22529 48.4412 6.13837 45.8943 8.6148C43.4397 11.0012 41.1456 13.9023 39.2794 16.9993C37.32 20.232 35.8286 23.6829 34.9507 26.9771C34.2244 29.7028 34.4025 32.0392 35.4912 33.9197C36.5663 35.808 38.4897 37.1313 41.2003 37.8615C41.6484 37.9824 42.0596 38.0702 42.4525 38.1415C41.7275 39.1882 41.2485 40.4277 41.0983 41.7212C40.9047 43.3482 41.9562 44.8966 43.5356 45.3223C43.6956 45.3654 43.8692 45.4007 44.0378 45.4116C44.8056 45.4918 45.5109 45.4633 46.121 45.3631C46.5335 46.6475 47.3108 47.7655 48.4162 48.6385C48.7761 48.9193 49.1694 49.1173 49.6069 49.2352C50.0444 49.353 50.494 49.3821 50.9346 49.317C52.3262 49.1168 53.5551 48.5394 54.5512 47.6347C55.0401 48.031 55.6261 48.4074 56.3309 48.7238C56.4854 48.7882 56.6533 48.8451 56.8133 48.8882C58.3927 49.3137 60.0732 48.5014 60.7146 46.9953C61.2277 45.7993 61.4292 44.4851 61.3218 43.214C61.6974 43.3498 62.0974 43.4804 62.5455 43.6013C65.2559 44.3316 67.5796 44.1525 69.4498 43.0578C71.3248 41.9874 72.6408 40.0533 73.367 37.3279C74.2449 34.0337 74.6691 30.2951 74.5905 26.5132ZM58.6819 46.1254C58.4642 46.6418 57.9052 46.8937 57.3822 46.7529C57.329 46.7384 57.2757 46.7242 57.2251 46.6991C54.8921 45.668 54.501 43.7455 54.501 43.7455C54.501 43.7455 53.7204 46.6747 50.6149 47.1261C50.4618 47.1423 50.3146 47.1372 50.1759 47.0999C50.0371 47.0624 49.8964 46.9899 49.7826 46.9019C47.3176 44.9497 48.0983 42.0203 48.0983 42.0203C48.0983 42.0203 46.8035 43.4884 44.2703 43.2085C44.2141 43.2049 44.1607 43.1905 44.1074 43.176C43.5844 43.0352 43.2258 42.5362 43.2941 41.9794C43.4865 40.3981 44.31 39.0675 45.3315 38.2386C45.7182 38.2048 46.0832 38.165 46.427 38.1197C47.9202 37.924 49.338 37.754 52.4433 38.5907C55.5486 39.4275 56.6783 40.2953 57.8878 41.2078C58.1737 41.4226 58.4565 41.6486 58.7773 41.8614C59.2497 43.0927 59.312 44.6622 58.6819 46.1254ZM63.1144 41.4659C58.846 40.3157 59.4179 38.1697 53.0151 36.4445C46.6126 34.7195 46.0405 36.8655 41.7722 35.7155C37.5036 34.5653 35.9412 31.8443 37.0851 27.5521C40.5163 14.6758 53.0562 1.95344 61.5931 4.2536C70.1301 6.55376 74.664 23.8764 71.2329 36.7527C70.089 41.0449 67.383 42.6159 63.1144 41.4659Z" fill="#2A3632"></path><path d="M21.6389 3.49808C28.2675 3.49808 30.477 5.71985 30.477 12.3852V25.7158C30.477 34.6029 26.058 39.0464 17.2199 39.0464C10.5913 39.0464 2.85796 34.6029 2.85796 26.8267C2.85796 24.6049 3.96272 21.2723 8.38177 21.2723C11.6961 21.2723 12.8008 20.1614 12.8008 16.8287V12.3852C12.8008 5.71985 15.0103 3.49808 21.6389 3.49808ZM21.6389 1.27631C17.5623 1.27631 14.9551 2.07614 13.1764 3.87578C11.3867 5.66431 10.5913 8.286 10.5913 12.3852V16.8287C10.5913 18.3284 10.3262 18.6728 10.2709 18.7283C10.2157 18.7839 9.8732 19.0505 8.38177 19.0505C3.03472 19.0505 0.648438 22.9608 0.648438 26.8267C0.648438 31.0814 2.62596 34.9139 6.22749 37.6245C9.29872 39.9352 13.298 41.2682 17.2199 41.2682C22.2244 41.2682 26.0911 39.924 28.7204 37.2801C31.3498 34.6362 32.6865 30.7481 32.6865 25.7158V12.3852C32.6865 8.286 31.8911 5.66431 30.1014 3.87578C28.3227 2.07614 25.7155 1.27631 21.6389 1.27631Z" fill="#2A3632"></path></g><defs><clipPath id="clip0"><rect width="116" height="48.9518" fill="white" transform="translate(0.648438 0.547852)"></rect></clipPath></defs></svg> 