<?xml version="1.0" encoding="UTF-8"?> <svg xmlns="http://www.w3.org/2000/svg" width="184" height="33" viewBox="0 0 184 33" fill="none"><g clip-path="url(#clip0)"><path fill-rule="evenodd" clip-rule="evenodd" d="M92.3551 30.409C91.0283 30.409 89.7769 30.1682 88.6159 29.6762C87.4548 29.1841 86.4447 28.4984 85.5801 27.6189C84.7309 26.7395 84.0523 25.6769 83.5648 24.452C83.0722 23.2166 82.8209 21.8556 82.8209 20.369V20.2904C82.8209 18.8981 83.0471 17.5842 83.4844 16.3697C83.9318 15.1448 84.5599 14.0822 85.3691 13.1661C86.1733 12.2501 87.1333 11.5224 88.2289 11.0042C89.3346 10.4808 90.5609 10.2138 91.8928 10.2138C93.3704 10.2138 94.667 10.4965 95.7879 11.0566C96.8986 11.6166 97.8285 12.3809 98.5672 13.3285C99.3111 14.2863 99.8639 15.3856 100.236 16.6524C100.608 17.9192 100.799 19.2435 100.799 20.6307C100.799 20.8244 100.789 21.0285 100.784 21.2379C100.774 21.4525 100.753 21.662 100.728 21.8766H87.0679C87.299 23.4679 87.9173 24.6771 88.8923 25.5303C89.8673 26.3679 91.0383 26.7971 92.4306 26.7971C93.491 26.7971 94.4108 26.6034 95.1748 26.2056C95.9538 25.8182 96.7127 25.2424 97.4615 24.4887L99.9645 26.7971C99.0749 27.8964 98.0093 28.7758 96.783 29.4354C95.5416 30.0688 94.064 30.409 92.3551 30.409ZM96.577 18.9243C96.5066 18.2175 96.3608 17.5527 96.1297 16.9247C95.8984 16.2965 95.5818 15.7677 95.1797 15.3123C94.7877 14.8569 94.3053 14.5009 93.7524 14.2288C93.2096 13.9565 92.5763 13.8205 91.8727 13.8205C90.5508 13.8205 89.4703 14.2916 88.6209 15.2286C87.7615 16.1655 87.2388 17.401 87.0528 18.919H96.577V18.9243ZM53.3388 10.6012H57.631V13.5691C57.9376 13.1242 58.2592 12.7107 58.6109 12.3129C58.9629 11.9255 59.3699 11.5591 59.8273 11.2398C60.2797 10.91 60.7923 10.6587 61.3652 10.4755C61.9382 10.2923 62.5715 10.2033 63.2751 10.2033C64.6069 10.2033 65.7428 10.5122 66.6575 11.1403C67.5823 11.7685 68.291 12.606 68.7785 13.6424C69.5273 12.6113 70.4219 11.7685 71.4373 11.1403C72.4675 10.5122 73.6788 10.2033 75.091 10.2033C77.1367 10.2033 78.7449 10.8419 79.8959 12.1244C81.0569 13.4069 81.6248 15.2339 81.6248 17.6104V29.9746H77.3377V18.9923C77.3377 17.4585 77.0109 16.2859 76.3576 15.4851C75.6941 14.6737 74.7794 14.2759 73.5833 14.2759C72.4173 14.2759 71.4673 14.6842 70.7285 15.5007C69.9947 16.3121 69.6228 17.5109 69.6228 19.0656V29.9693H65.3307V18.9661C65.3307 17.4585 65.004 16.2912 64.3456 15.5007C63.6873 14.6894 62.7725 14.2916 61.5763 14.2916C60.3902 14.2916 59.4252 14.7155 58.7014 15.574C57.9777 16.4221 57.6158 17.6104 57.6158 19.1179V29.985H53.3237L53.3388 10.6012ZM46.2974 3.414H50.9062V7.63312H46.2974V3.414ZM46.4734 10.6012H50.7655V29.9641H46.4734V10.6012ZM39.3516 3.19415H43.6438V29.9641H39.3516V3.19415Z" fill="black"></path><path fill-rule="evenodd" clip-rule="evenodd" d="M168.49 19.7355C168.807 15.5898 171.551 12.47 175.109 12.47C179.225 12.47 181.297 15.9562 181.553 19.7355H168.49ZM168.49 21.3479H183.377C183.417 21.06 183.417 20.9396 183.417 20.6935V20.6151C183.417 15.082 180.211 10.821 175.175 10.821C170.325 10.821 166.661 15.1501 166.661 20.5784V20.6569C166.661 26.4883 170.742 30.4142 175.452 30.4142C178.904 30.4142 181.056 28.9486 182.874 26.8966L181.684 25.7973C180.206 27.4514 178.306 28.734 175.527 28.734C172.014 28.7182 168.807 26.0067 168.49 21.3479ZM165.56 29.9641V18.6364C165.56 13.9409 162.917 10.821 158.67 10.821C155.292 10.821 153.352 12.763 152.187 14.8569C151.206 12.695 149.266 10.821 146.13 10.821C142.923 10.821 141.31 12.6584 140.144 14.6004V11.2607H138.431V29.9641H140.154V19.186C140.154 15.4065 142.687 12.4751 145.894 12.4751C149.1 12.4751 151.141 14.8621 151.141 18.741V29.9641H152.865V19.0707C152.865 14.8883 155.508 12.4751 158.534 12.4751C161.841 12.4751 163.841 14.8203 163.841 18.8614V29.9641H165.56ZM135.259 20.6831C135.259 25.0854 132.198 28.7182 127.937 28.7182C123.785 28.7182 120.548 25.1273 120.548 20.6151V20.5365C120.548 16.1342 123.609 12.5013 127.871 12.5013C132.022 12.5013 135.259 16.0922 135.259 20.6045V20.6831ZM137.118 20.6151V20.5365C137.118 15.2914 133.249 10.821 127.931 10.821C122.584 10.821 118.669 15.3699 118.669 20.6151V20.6935C118.669 25.9386 122.548 30.409 127.861 30.409C133.218 30.409 137.118 25.8601 137.118 20.6151ZM117.724 29.9641V18.5211C117.724 14.0508 115.08 10.821 110.536 10.821C107.269 10.821 105.249 12.538 104.063 14.7417V3.19415H102.334V29.9641H104.063V19.1493C104.063 15.2652 106.767 12.4751 110.29 12.4751C113.914 12.4751 115.995 15.0035 115.995 18.8614V29.9641H117.724Z" fill="black"></path><path fill-rule="evenodd" clip-rule="evenodd" d="M0.556641 19.7563H12.7546V32.4659H0.556641V19.7563ZM0.556641 0.691711H12.7546V13.4015H0.556641V0.691711ZM17.8006 19.7563H29.9986V32.4659H17.8006V19.7563Z" fill="black"></path><path fill-rule="evenodd" clip-rule="evenodd" d="M17.8019 12.2707C20.0836 8.64836 23.4963 5.84783 27.5723 4.42925C23.9738 6.51263 21.0838 9.66388 19.2494 13.438L19.5911 13.4015H23.9034C27.2607 13.4015 30.0049 10.5433 30.0049 7.04656V0.691711H23.8984C20.5411 0.691711 17.7969 3.54982 17.7969 7.04656V12.2707H17.8019Z" fill="black"></path></g><defs><clipPath id="clip0"><rect width="184" height="32.6346" fill="white" transform="translate(0 0.0991211)"></rect></clipPath></defs></svg> 