<svg xmlns="http://www.w3.org/2000/svg" viewBox="0 0 32 32" id="news"><path fill="#34a853" d="M5.5 28A2.503 2.503 0 0 1 3 25.5v-14a.5.5 0 0 1 .5-.5h2a.5.5 0 0 1 0 1H4v13.5c0 .827.673 1.5 1.5 1.5a.5.5 0 0 1 0 1z" class="color263238 svgShape"></path><path fill="#34a853" d="M5.5 28a.5.5 0 0 1 0-1c.827 0 1.5-.673 1.5-1.5v-22a.5.5 0 0 1 1 0v22C8 26.879 6.878 28 5.5 28z" class="color263238 svgShape"></path><path fill="#34a853" d="M5.5 30A4.505 4.505 0 0 1 1 25.5v-13a.5.5 0 0 1 1 0v13C2 27.43 3.57 29 5.5 29a.5.5 0 0 1 0 1z" class="color263238 svgShape"></path><path fill="#34a853" d="M26.5 30h-21a.5.5 0 0 1 0-1C7.43 29 9 27.43 9 25.5v-23a.5.5 0 0 1 .5-.5h21a.5.5 0 0 1 .5.5v23c0 2.481-2.019 4.5-4.5 4.5zM8.326 29H26.5c1.93 0 3.5-1.57 3.5-3.5V3H10v22.5A4.495 4.495 0 0 1 8.326 29z" class="color263238 svgShape"></path><path fill="#34a853" d="M23.998 10a.5.5 0 0 1-.468-.324l-1.5-4a.5.5 0 0 1 .936-.352l.885 2.361.457-2.284a.5.5 0 1 1 .98.197l-.801 4a.498.498 0 0 1-.489.402z" class="color263238 svgShape"></path><path fill="#34a853" d="m20.998 10-.041-.002a.5.5 0 0 1-.45-.4l-.797-4a.5.5 0 1 1 .981-.195l.454 2.28.884-2.358a.5.5 0 0 1 .936.352l-1.5 4a.498.498 0 0 1-.467.323zM14.5 10a.5.5 0 0 1-.415-.221L12 6.689V9.5a.5.5 0 0 1-1 0v-4a.5.5 0 0 1 .5-.5h.301c.166 0 .321.083.415.221L14 7.865V5.5a.5.5 0 0 1 1 0v4a.502.502 0 0 1-.5.5zm4 0h-2a.5.5 0 0 1-.5-.5v-4a.5.5 0 0 1 .5-.5h2a.5.5 0 0 1 0 1H17v3h1.5a.5.5 0 0 1 0 1z" class="color263238 svgShape"></path><path fill="#34a853" d="M18 8h-1.5a.5.5 0 0 1 0-1H18a.5.5 0 0 1 0 1zm9.5 2c-.827 0-1.505-.469-1.813-1.255a.5.5 0 0 1 .931-.365c.111.283.354.62.882.62.361 0 .529-.34.529-.57 0-.198-.172-.313-.688-.555-.33-.154-.703-.33-.965-.629-.358-.408-.455-1.001-.239-1.478.221-.488.705-.768 1.328-.768.801 0 1.223.451 1.269.502a.5.5 0 0 1-.74.673c-.018-.017-.19-.175-.529-.175-.153 0-.349.031-.417.181-.055.121-.021.291.079.405.125.143.387.266.639.384.533.251 1.263.593 1.263 1.46 0 .755-.584 1.57-1.529 1.57zM27.5 26h-6a.5.5 0 0 1 0-1h6a.5.5 0 0 1 0 1zm-9 0h-6a.5.5 0 0 1 0-1h6a.5.5 0 0 1 0 1zm9-2h-6a.5.5 0 0 1 0-1h6a.5.5 0 0 1 0 1zm-9 0h-6a.5.5 0 0 1 0-1h6a.5.5 0 0 1 0 1zm9-2h-6a.5.5 0 0 1 0-1h6a.5.5 0 0 1 0 1zm-9 0h-6a.5.5 0 0 1 0-1h6a.5.5 0 0 1 0 1zm9-2h-6a.5.5 0 0 1 0-1h6a.5.5 0 0 1 0 1zm-9 0h-6a.5.5 0 0 1 0-1h6a.5.5 0 0 1 0 1zM27.5 18h-6a.5.5 0 0 1 0-1h6a.5.5 0 0 1 0 1zm-9 0h-6a.5.5 0 0 1 0-1h6a.5.5 0 0 1 0 1zM27.5 16h-6a.5.5 0 0 1 0-1h6a.5.5 0 0 1 0 1zm-9 0h-6a.5.5 0 0 1 0-1h6a.5.5 0 0 1 0 1zM27.5 14h-6a.5.5 0 0 1 0-1h6a.5.5 0 0 1 0 1zm-9 0h-6a.5.5 0 0 1 0-1h6a.5.5 0 0 1 0 1z" class="color263238 svgShape"></path></svg>