<svg xmlns="http://www.w3.org/2000/svg" data-name="Layer 1" viewBox="0 0 128 128" id="Objective"><path d="M58 16.38837V12.35706A52.08608 52.08608 0 0 0 12.35706 58h4.03131A48.07933 48.07933 0 0 1 58 16.38837zM16.38837 70H12.35706A52.08608 52.08608 0 0 0 58 115.64294v-4.03131A48.07933 48.07933 0 0 1 16.38837 70zM64 28a2.0001 2.0001 0 0 0 2-2V2a2 2 0 0 0-4 0V26A2.0001 2.0001 0 0 0 64 28zM64 100a2.0001 2.0001 0 0 0-2 2v24a2 2 0 0 0 4 0V102A2.0001 2.0001 0 0 0 64 100zM126 62H102a2 2 0 0 0 0 4h24a2 2 0 0 0 0-4zM28 64a2.0001 2.0001 0 0 0-2-2H2a2 2 0 0 0 0 4H26A2.0001 2.0001 0 0 0 28 64zM80.70874 39.09662a30.07251 30.07251 0 1 0 8.42218 8.54926L86.2453 50.55353a26.06316 26.06316 0 1 1-8.41638-8.55511zM88.05273 17.99121l.04169-.03955A51.58819 51.58819 0 0 0 70 12.35706v4.03131a47.62031 47.62031 0 0 1 16.24261 5.11035A5.99424 5.99424 0 0 1 88.05273 17.99121zM106.1557 41.09552A47.63861 47.63861 0 0 1 111.61163 58h4.03131a51.60293 51.60293 0 0 0-6.13586-19.10425l-.89966.84058A5.97321 5.97321 0 0 1 106.1557 41.09552z" fill="#34a853" class="color000000 svgShape"></path><path d="M65.20044 60.40149l-.069-.07507.34314-1.12231a2.00005 2.00005 0 1 0-3.8252-1.16992L59.0874 66.415a1.99863 1.99863 0 0 0 .4497 1.94824 2.02114 2.02114 0 0 0 1.91211.58594l8.47168-1.95215a2.00031 2.00031 0 0 0-.89844-3.89844s-1.108.25537-1.11194.2511l26.423-26.62415 10.05322.623c.042.00293.083.00391.124.00391a1.996 1.996 0 0 0 1.36523-.53906l14.48926-13.53809a1.99944 1.99944 0 0 0-.958-3.41895l-9.30273-1.93457L108.208 8.60156a2 2 0 0 0-3.33594-1.05273L90.80566 20.89258a1.99928 1.99928 0 0 0-.61817 1.60547l.91358 11.80511zm38.574-27.09875L98.08057 32.95l11.05933-11.14349 5.67554 1.18079zM94.249 23.13867l10.75879-10.20508 1.24194 6.10522L94.82257 30.55328zM70 111.61163v4.03131a51.56392 51.56392 0 0 0 13.82611-3.59631 20.9822 20.9822 0 0 1-1.99048-3.50183A47.60846 47.60846 0 0 1 70 111.61163zM111.61163 70a47.59845 47.59845 0 0 1-2.59631 10.5976 20.9602 20.9602 0 0 1 3.56494 1.90094A51.57468 51.57468 0 0 0 115.64294 70zM101 83a17 17 0 1 0 17 17A17.019 17.019 0 0 0 101 83zm0 30a13 13 0 1 1 13-13A13.01505 13.01505 0 0 1 101 113z" fill="#34a853" class="color000000 svgShape"></path><path d="M60.09637 53.72864a5.98917 5.98917 0 0 1 5.22-.84778 5.35675 5.35675 0 0 1 .79987.32806c.16083.03149.31726.07385.47552.1123L69.74194 50.147a15.09195 15.09195 0 1 0 8.31232 8.66l-3.23517 3.25983c.02789.15643.05121.31427.07239.47284a5.56069 5.56069 0 0 1 .42688 1.16052A5.99387 5.99387 0 0 1 73.54144 69.451 10.99206 10.99206 0 1 1 60.09637 53.72864zM105.72949 94.95508l-7.16016 5.88867L96.3623 98.791a1.9997 1.9997 0 1 0-2.72461 2.92773l3.48828 3.24512a1.99991 1.99991 0 0 0 2.63281.08105l8.51172-7a2.00024 2.00024 0 1 0-2.541-3.08984z" fill="#34a853" class="color000000 svgShape"></path></svg>