<?xml version="1.0" encoding="UTF-8"?> <svg xmlns="http://www.w3.org/2000/svg" width="157" height="37" viewBox="0 0 157 37" fill="none"><g clip-path="url(#clip0)"><path d="M13.7825 7.75635C10.7612 7.75635 9.00935 9.17298 8.1715 10.1174C8.06995 9.27791 7.53677 8.20232 5.45485 8.20232H0.910156V13.0818H2.76358C3.06825 13.0818 3.16981 13.1868 3.16981 13.5016V35.8266H8.55234V27.4842V26.8546C9.39019 27.6416 10.9897 28.7435 13.5033 28.7435C18.7589 28.7435 22.4403 24.4411 22.4403 18.2499C22.4657 11.98 18.962 7.75635 13.7825 7.75635ZM12.6908 23.8902C9.79642 23.8902 8.47618 21.0307 8.47618 18.3548C8.47618 14.1574 10.6851 12.6621 12.767 12.6621C15.3059 12.6621 17.0324 14.9182 17.0324 18.3024C17.007 22.185 14.8235 23.8902 12.6908 23.8902Z" fill="black"></path><path d="M29.7008 23.0244V11.1929C29.7008 9.19911 28.7614 8.22845 26.8572 8.22845H22.0332V13.108H23.8866C24.1913 13.108 24.2929 13.2129 24.2929 13.5277V25.3067C24.2929 27.3267 25.2069 28.2712 27.1365 28.2712H31.9604V23.4179H30.107C29.8277 23.4441 29.7008 23.3129 29.7008 23.0244Z" fill="black"></path><path d="M43.7669 7.75635C40.7456 7.75635 38.9937 9.17298 38.1305 10.1174C38.0289 9.27791 37.4958 8.20232 35.4138 8.20232H30.8945V13.0818H32.748C33.0526 13.0818 33.1542 13.1868 33.1542 13.5016V35.8266H38.5875V27.4842V26.8546C39.4254 27.6416 41.0503 28.7435 43.5384 28.7435C48.794 28.7435 52.4755 24.4411 52.4755 18.2499C52.4755 11.98 48.9717 7.75635 43.7669 7.75635ZM42.6752 23.8902C39.7808 23.8902 38.4606 21.0307 38.4606 18.3548C38.4606 14.1574 40.6694 12.6621 42.7514 12.6621C45.2903 12.6621 47.0168 14.9182 47.0168 18.3024C47.0168 22.185 44.8333 23.8902 42.6752 23.8902Z" fill="black"></path><path d="M62.6069 7.75635C56.7928 7.75635 52.7559 12.0849 52.7559 18.2499C52.7559 24.3362 57.1228 28.7435 63.1655 28.7435C67.9133 28.7435 70.8077 25.8315 70.9346 25.7266L71.1631 25.5167L68.8273 21.5029L68.4718 21.844C68.4465 21.8702 66.3138 23.8902 63.4955 23.8902C60.8043 23.8902 58.8239 22.185 58.3415 19.5091H71.1123L71.1377 19.1419C71.1377 19.0894 71.2647 17.9089 71.2647 17.3317C71.2647 11.6127 67.7863 7.75635 62.6069 7.75635ZM58.5446 15.3642C59.1286 13.3966 60.6012 12.2686 62.6069 12.2686C64.2318 12.2686 65.4759 13.554 65.7044 15.3642H58.5446Z" fill="black"></path><path d="M90.8643 23.0238V3.63692C90.8643 1.64314 89.9249 0.672485 87.9953 0.672485H83.1713V5.55199H85.0247C85.3294 5.55199 85.4309 5.65693 85.4309 5.97173V9.48708C84.6439 8.75253 83.0951 7.78187 80.4039 7.78187C75.1736 7.78187 71.5176 12.1105 71.5176 18.2754C71.5176 24.5453 75.0213 28.769 80.2007 28.769C83.1713 28.769 84.8978 27.3524 85.7356 26.3555C85.8372 27.2212 86.3957 28.323 88.4015 28.323H93.0731V23.4697H91.2705C90.9658 23.4435 90.8643 23.3123 90.8643 23.0238ZM81.2417 23.8895C78.6774 23.8895 77.0271 21.6858 77.0271 18.2492C77.0271 14.9175 78.7535 12.6876 81.3179 12.6876C84.2376 12.6876 85.5325 15.4684 85.5325 18.223C85.5325 22.4204 83.3236 23.8895 81.2417 23.8895Z" fill="black"></path><path d="M105.083 7.93988C102.849 7.93988 100.767 9.27781 99.5484 11.4028V10.9568C99.5484 9.14664 98.5837 8.20222 96.6794 8.20222H92.0586V13.0817H93.912C94.2167 13.0817 94.3182 13.1867 94.3182 13.5015V28.2712H99.7008V20.2436C99.7008 19.1942 99.8277 18.1711 100.082 17.2267C100.894 14.4459 103.052 13.4752 104.779 13.4752C105.388 13.4752 105.845 13.5539 105.845 13.5539L106.302 13.6326V8.09728L105.972 8.04482C105.972 8.01858 105.515 7.93988 105.083 7.93988Z" fill="black"></path><path d="M113.968 23.0244V11.1929C113.968 9.19911 113.029 8.22845 111.125 8.22845H106.758V13.108H108.154C108.459 13.108 108.56 13.2129 108.56 13.5277V25.3067C108.56 27.3267 109.474 28.2712 111.404 28.2712H116.228V23.4179H114.375C114.095 23.4441 113.968 23.3129 113.968 23.0244Z" fill="black"></path><path d="M134.306 8.22845H131.437C129.761 8.22845 128.847 8.83183 128.314 10.3009L124.81 20.4272C124.683 20.7945 124.582 21.2142 124.48 21.634C124.378 21.2405 124.251 20.7945 124.125 20.4272L120.621 10.3009C120.088 8.8056 119.224 8.22845 117.498 8.22845H114.451V13.108H115.238C115.67 13.108 115.797 13.2654 115.898 13.5277L121.332 28.2974H127.4L132.833 13.5277C132.935 13.2654 133.062 13.108 133.493 13.108H134.331V8.22845H134.306Z" fill="black"></path><path d="M143.597 7.75635C137.783 7.75635 133.746 12.0849 133.746 18.2499C133.746 24.3362 138.113 28.7435 144.156 28.7435C148.904 28.7435 151.798 25.8315 151.925 25.7266L152.153 25.5167L149.818 21.5029L149.462 21.844C149.437 21.8702 147.304 23.8902 144.511 23.8902C141.82 23.8902 139.84 22.185 139.357 19.5091H152.128L152.153 19.1419C152.153 19.0894 152.255 17.9089 152.255 17.3317C152.255 11.6127 148.777 7.75635 143.597 7.75635ZM139.535 15.3642C140.119 13.3966 141.591 12.2686 143.597 12.2686C145.222 12.2686 146.466 13.554 146.695 15.3642H139.535Z" fill="black"></path><path d="M29.3201 0.646912H24.5215V5.86746H29.3201V0.646912Z" fill="black"></path><path d="M113.613 0.646912H108.814V5.86746H113.613V0.646912Z" fill="black"></path><path d="M152.154 8.22856H152.865V10.2223H153.398V8.22856H154.109V7.75635H152.154V8.22856Z" fill="black"></path><path d="M156.217 7.75635L155.684 9.46155L155.125 7.75635H154.389V10.2223H154.871V8.4909H154.896L155.48 10.2223H155.887L156.471 8.4909V10.2223H156.953V7.75635H156.217Z" fill="black"></path></g><defs><clipPath id="clip0"><rect width="157" height="36.7139" fill="white" transform="translate(0 0.0595093)"></rect></clipPath></defs></svg> 