<?xml version="1.0" encoding="UTF-8"?> <svg xmlns="http://www.w3.org/2000/svg" width="193" height="45" viewBox="0 0 193 45" fill="none"><path d="M75.0071 33.6345H78.6658V10.1029H74.8164V33.6345H75.0071Z" fill="black"></path><path d="M82.6624 33.6345H86.3206V10.1029H82.4727V33.6345H82.6624Z" fill="black"></path><path d="M143.909 40.7984C146.286 41.2052 148.41 40.2184 149.819 38.8681C151.795 36.9596 153.057 34.472 155.162 28.6584L159.199 17.6756L159.284 17.4401H155.414L155.372 17.5463L151.734 28.4427L147.863 17.5463L147.82 17.4401H143.594L143.677 17.6756L149.714 33.0976C149.23 34.472 148.452 35.6281 147.694 36.4017C146.727 37.3452 145.381 37.7737 143.909 37.5179V40.7984" fill="black"></path><path fill-rule="evenodd" clip-rule="evenodd" d="M127.693 25.5262C127.693 20.5288 130.954 17.032 135.708 17.032C140.441 17.032 143.701 20.5288 143.701 25.5262C143.701 30.6096 140.502 34.0422 135.708 34.0422C130.913 34.0422 127.693 30.6096 127.693 25.5262ZM131.503 25.5053C131.503 28.7645 133.291 30.8903 135.688 30.8903C138.107 30.8903 139.894 28.7645 139.894 25.5053C139.894 22.245 138.128 20.1222 135.688 20.1222C133.29 20.1222 131.503 22.245 131.503 25.5053Z" fill="black"></path><path fill-rule="evenodd" clip-rule="evenodd" d="M56.2871 25.4836C56.2871 20.4215 59.4201 16.9885 64.3005 16.9885C69.18 16.9885 72.2936 20.4215 72.2936 25.4836C72.2936 30.567 69.18 34.0006 64.3005 34.0006C59.4201 34.0006 56.2871 30.567 56.2871 25.4836ZM60.0928 25.4623C60.0928 28.7008 61.88 30.8459 64.2781 30.8459C66.6966 30.8459 68.4847 28.7008 68.4847 25.4623C68.4847 22.2011 66.7188 20.0778 64.2781 20.0778C61.88 20.0778 60.0928 22.2011 60.0928 25.4623Z" fill="black"></path><rect x="101.191" y="21.322" width="7.55209" height="2.96058" fill="black"></rect><path fill-rule="evenodd" clip-rule="evenodd" d="M55.0521 32.8189C54.7639 31.2626 54.3577 29.0695 53.6766 26.8777C52.9621 24.6256 52.0791 23.4664 50.6903 22.8029C52.5835 22.0511 54.2865 20.3355 54.2865 17.3537C54.2865 15.5301 53.6344 13.9419 52.4363 12.8924C51.0054 11.6256 48.9437 10.9611 45.8103 10.9611H42.6977C42.1524 10.9611 41.6253 10.9792 41.1283 10.9962C40.685 11.0114 40.2657 11.0258 39.8789 11.0258V33.5695H43.7496V24.3022H45.622C48.0617 24.3022 49.0923 25.5251 49.9129 28.1855C50.5072 30.0412 50.7672 31.6302 50.9714 32.8773C51.0126 33.1295 51.0516 33.3677 51.0906 33.5912L55.1927 33.57C55.1488 33.3412 55.1023 33.0897 55.0521 32.8189ZM44.9287 14.2006H46.2106C48.9867 14.2228 50.4598 15.4229 50.4593 17.7175C50.4593 19.9267 48.6508 21.3214 46.0005 21.3214H43.75V14.244C43.863 14.244 43.9906 14.2366 44.1402 14.2278C44.352 14.2155 44.6078 14.2006 44.9287 14.2006Z" fill="black"></path><path fill-rule="evenodd" clip-rule="evenodd" d="M126.649 32.8209C126.362 31.2645 125.956 29.0704 125.275 26.8777C124.56 24.6256 123.678 23.4664 122.288 22.8029C124.181 22.0511 125.885 20.3355 125.885 17.3537C125.885 15.5301 125.234 13.9419 124.034 12.8924C122.603 11.6256 120.542 10.9611 117.409 10.9611H114.295C113.75 10.9611 113.223 10.9792 112.726 10.9962C112.283 11.0114 111.863 11.0258 111.477 11.0258V33.5695H115.347V24.3022H117.22C119.658 24.3022 120.689 25.5251 121.51 28.1855C122.106 30.0451 122.366 31.6367 122.57 32.885C122.611 33.1343 122.649 33.3699 122.688 33.5912L126.789 33.57C126.746 33.3417 126.699 33.0909 126.649 32.8209ZM116.526 14.2006H117.808C120.585 14.2228 122.057 15.4229 122.057 17.7175C122.057 19.9267 120.249 21.3214 117.6 21.3214H115.349V14.244C115.462 14.244 115.589 14.2366 115.739 14.2278C115.95 14.2155 116.206 14.2006 116.526 14.2006Z" fill="black"></path><path d="M89.7693 29.9453C90.6523 30.5037 92.272 31.0393 93.6821 31.0393C95.5753 31.0393 96.3319 30.4168 96.3319 29.2364C96.3319 28.0358 95.722 27.5214 93.7034 26.7705C90.737 25.6973 89.4334 23.9166 89.4334 22.0287C89.4334 19.3061 91.6422 17.0525 95.1968 17.0525C96.8794 17.0525 98.3515 17.5664 99.2563 18.103L98.4992 20.7205C97.6375 20.3137 96.6277 19.9484 95.1973 19.9696C93.7247 19.9913 93.1356 20.6776 93.1356 21.6422C93.1356 22.7589 94.2509 23.4022 95.6809 23.8953C98.5205 24.86 100.035 26.4906 100.035 28.9363C100.015 31.8312 97.6375 33.955 93.64 33.955C91.832 33.955 90.1067 33.5694 89.0137 32.7331L89.7693 29.9453Z" fill="black"></path><path d="M171.651 33.0345C170.852 33.422 169.19 33.9137 167.17 33.9137C162.565 33.8707 159.137 30.6535 159.137 25.6757C159.137 20.8283 162.227 17.0749 167.782 17.0749C169.358 17.0749 170.831 17.5034 171.693 17.9112L171.019 20.7636C170.347 20.421 169.358 20.2058 167.865 20.2058C164.605 20.2058 163.07 22.3947 163.091 25.5049C163.091 28.9799 164.963 30.9097 167.844 30.9097C169.317 30.9097 170.347 30.5671 171.126 30.2245L171.651 33.0345Z" fill="black"></path><path fill-rule="evenodd" clip-rule="evenodd" d="M180.969 30.9323C178.278 30.9323 176.322 29.7505 176.216 26.428L186.691 26.4063C186.775 26.042 186.775 25.5058 186.775 24.7969C186.775 21.5159 185.22 17.0975 180.087 17.0975C175.185 17.0975 172.473 21.1501 172.473 25.7418C172.473 30.6327 175.459 34.0005 180.466 34.0005C182.842 34.0005 184.672 33.3987 185.891 32.8641L185.324 30.1602C184.188 30.6095 182.884 30.9323 180.969 30.9323ZM179.855 19.8845C182.736 19.8845 183.2 22.0513 183.179 23.6601H176.236C176.428 21.8795 177.205 19.8845 179.855 19.8845Z" fill="black"></path><path fill-rule="evenodd" clip-rule="evenodd" d="M2.3125 3.84034V8.17185H24.3554V3.84034C24.3554 3.02478 23.7043 2.3598 22.8838 2.3598H3.76425C2.96552 2.3598 2.3125 3.02478 2.3125 3.84034ZM20.1064 6.39268C19.981 6.32851 19.7908 6.17793 19.708 6.04958V6.97177C20.0643 7.1643 20.6529 7.25069 21.1162 7.25069C22.1671 7.25069 22.7572 6.73529 22.7785 5.96368C22.7988 5.2987 22.3569 4.97781 21.6201 4.82575L21.4855 4.79858C20.8437 4.66946 20.5488 4.61014 20.5488 4.2679C20.5488 4.05463 20.8001 3.88283 21.2227 3.88283C21.4957 3.88283 21.7474 3.92529 22.0001 4.01119C22.1899 4.09659 22.3791 4.20372 22.4624 4.35429V3.51801C22.2102 3.38916 21.8104 3.26129 21.2227 3.26129C20.3596 3.26129 19.7705 3.75398 19.7492 4.39823C19.7492 5.041 20.1708 5.40582 20.9487 5.51197C21.5581 5.59885 21.9585 5.66303 21.9585 6.07031C21.9585 6.41441 21.6419 6.64939 21.1162 6.64939C20.7798 6.64939 20.4646 6.58571 20.1064 6.39268ZM6.58385 5.44834C6.85686 5.57719 7.00354 5.85562 7.19233 6.21995L7.19763 6.23135C7.36574 6.59286 7.53324 6.95304 7.86713 7.18608H6.75134C6.61129 6.98322 6.50394 6.74718 6.40009 6.51887L6.40009 6.51887L6.40009 6.51886L6.40008 6.51885L6.40008 6.51884C6.31692 6.336 6.23601 6.15811 6.14237 6.00619C6.01554 5.76923 5.84853 5.6621 5.55324 5.6621H4.96315V6.34831C4.96315 6.67117 5.06965 7.07895 5.25844 7.18608H3.86914C4.06035 7.07895 4.16443 6.67117 4.16443 6.34831V4.18304C4.16443 3.83994 4.06035 3.45339 3.86914 3.32503H5.80545C6.28904 3.32503 6.60418 3.32503 6.85735 3.43216C7.25623 3.58224 7.46632 3.9678 7.46632 4.46197C7.46632 4.97737 7.17248 5.31949 6.58385 5.44834ZM5.84729 5.04087C6.32992 5.04087 6.64505 4.89129 6.64505 4.50425C6.64505 4.09647 6.32992 3.94639 5.84729 3.94639H4.96191V5.04087H5.84729ZM10.1381 7.29296C10.6648 7.29296 11.1062 7.14239 11.4422 6.84272C11.842 6.49863 12.1156 5.98471 12.1156 5.25605C12.1156 4.54762 11.842 4.01149 11.4422 3.66937C11.1062 3.38946 10.6648 3.23889 10.1381 3.23889C9.61287 3.23889 9.17043 3.38946 8.83399 3.66937C8.43511 4.01149 8.16016 4.54762 8.16016 5.25605C8.16016 5.98521 8.43511 6.49912 8.83399 6.84272C9.17091 7.14239 9.6332 7.29296 10.1381 7.29296ZM9.33888 6.28485C9.10701 6.06961 9.00293 5.72749 9.00293 5.25603C9.00293 4.8053 9.10701 4.4622 9.33888 4.22523C9.52767 4.0327 9.80117 3.90385 10.1376 3.90385C10.4745 3.90385 10.7475 4.0327 10.9378 4.22523C11.1682 4.4617 11.295 4.8053 11.295 5.25603C11.295 5.72749 11.1682 6.06961 10.9378 6.28485C10.7475 6.47739 10.4745 6.60624 10.1376 6.60624C9.80117 6.60624 9.52767 6.47739 9.33888 6.28485ZM15.6066 6.19996C15.395 6.47741 14.954 6.56429 14.469 6.56429H13.7337V4.18329C13.7337 3.86191 13.8387 3.45364 14.0072 3.32528H12.6396C12.8284 3.45364 12.9345 3.86142 12.9345 4.18329V6.34856C12.9345 6.69265 12.8284 7.05698 12.6396 7.18633H15.4797L15.6066 6.19996ZM17.8982 6.56429C18.3827 6.58503 18.8232 6.47741 19.0353 6.19996L18.8881 7.20657H16.0684C16.2571 7.0792 16.3622 6.69265 16.3622 6.34856V4.18329C16.3622 3.86142 16.2571 3.45364 16.0684 3.32528H17.4359C17.2461 3.45364 17.1411 3.86191 17.1411 4.18329V6.56429H17.8982Z" fill="black"></path><path fill-rule="evenodd" clip-rule="evenodd" d="M2.3125 9.22375H24.3554V35.1793H2.3125V9.22375ZM11.7579 31.0396V25.269C12.3049 25.2473 12.8292 25.2255 13.3559 25.1836C13.1671 24.7328 12.9764 24.2821 12.7455 23.8526C12.5297 23.8822 12.3055 23.8917 12.078 23.9012H12.078C11.9717 23.9057 11.8646 23.9102 11.7575 23.9168V22.7162C11.0207 22.887 10.222 23.0163 9.40194 23.1022V31.0396C9.40194 32.7461 8.64968 33.2417 8.16233 33.5627L8.11816 33.5919H13.0403C13.0176 33.5761 12.9941 33.56 12.9698 33.5434C12.4999 33.2211 11.7579 32.7122 11.7579 31.0396ZM22.0434 31.4031C22.2941 32.584 22.7995 33.1838 23.1998 33.5703H18.8451C19.2241 33.1843 19.7915 32.3692 19.5596 30.7391C19.2445 28.4869 18.1921 26.063 16.8894 24.5188C16.7781 24.5501 16.6662 24.5829 16.5546 24.6156L16.447 24.6471C16.2572 24.1969 16.0268 23.7244 15.7949 23.2742C18.5919 22.3086 19.3921 20.4217 19.3921 18.8119C19.3921 17.5461 18.9303 16.495 18.0677 15.8093C18.0246 15.1226 17.8358 14.4369 17.541 13.7917C18.3615 13.965 19.0557 14.2449 19.6438 14.6294C21.0322 15.5941 21.8105 17.2247 21.7902 18.7704C21.7902 20.9362 20.5699 22.6946 18.5721 23.8098C20.6115 26.1277 21.5787 29.2368 22.0434 31.4031ZM17.1419 28.8083C17.3733 29.9882 17.8782 30.5885 18.2988 30.9746H13.9445C14.3231 30.589 14.8701 29.7507 14.66 28.1221C14.3662 25.9564 13.4406 23.5956 12.199 22.0721C10.8324 22.4374 9.21221 22.6527 7.48744 22.6527V28.4228C7.48744 30.1028 8.21616 30.5981 8.68771 30.9186C8.71624 30.938 8.74382 30.9567 8.77024 30.9751H3.84863L3.90986 30.9347C4.39665 30.6145 5.13144 30.1311 5.13144 28.4228V13.536C5.13144 11.8322 4.38164 11.3357 3.8947 11.0132L3.84863 10.9827H10.9375C12.8089 10.9827 14.2815 11.2843 15.375 12.0347C16.7633 13.0003 17.5417 14.6082 17.5214 16.1747C17.5214 18.4051 16.2376 20.2297 14.1348 21.3222C14.0923 21.3442 14.0552 21.3604 14.0182 21.3766C13.9814 21.3926 13.9447 21.4087 13.9029 21.4303C15.754 23.5956 16.6781 26.6416 17.1419 28.8083ZM7.48633 12.3131V21.3222C13.6283 21.216 15.1212 18.4046 15.1212 16.1958C15.1212 14.8866 14.6158 13.7921 13.6714 13.1074C12.9549 12.592 12.0512 12.3353 10.8313 12.3131H7.48633ZM11.7575 14.9511V20.0345C11.0846 20.3144 10.2854 20.507 9.40194 20.6363V16.1523C9.40194 14.4429 8.66509 13.9589 8.17746 13.6385C8.15724 13.6253 8.13745 13.6123 8.11816 13.5995H13.4193C13.8816 13.9426 14.2185 14.3933 14.4078 14.9511H11.7575Z" fill="black"></path><path fill-rule="evenodd" clip-rule="evenodd" d="M22.8847 0C24.9663 0 26.6489 1.71602 26.6489 3.84031V40.5624C26.6489 42.6862 24.9663 44.4008 22.8847 44.4008H3.76515C1.68314 44.4008 0 42.6867 0 40.5624V3.84031C0 1.71651 1.68314 0 3.76515 0H22.8847ZM3.76457 1.30809C2.39754 1.30809 1.28223 2.44651 1.28223 3.84065H1.28271V40.5628C1.28271 41.9589 2.39802 43.0938 3.76506 43.0938H22.8842C24.272 43.0938 25.3868 41.9594 25.3868 40.5628V3.84065C25.3868 2.44651 24.2725 1.30809 22.8842 1.30809H3.76457Z" fill="black"></path><path fill-rule="evenodd" clip-rule="evenodd" d="M2.3125 40.5628V36.2298H24.3554V40.5628C24.3554 41.3783 23.7043 42.0443 22.8838 42.0443H3.76425C2.96552 42.0443 2.3125 41.3783 2.3125 40.5628ZM17.7294 40.4334C16.9941 40.4334 16.5734 39.877 16.5734 39.1478C16.5734 38.3969 16.9941 37.8386 17.7294 37.8381C18.2561 37.8381 18.5916 37.9675 18.8229 38.2252V37.4293C18.6346 37.3232 18.2977 37.2156 17.7512 37.2156C17.1824 37.2156 16.7201 37.3898 16.3832 37.6885C16.0056 38.0109 15.7529 38.5046 15.7529 39.1473C15.7529 40.3485 16.5734 41.0574 17.7512 41.0574C18.2977 41.0574 18.6342 40.9478 18.8229 40.8648L18.9498 40.0261C18.7387 40.2823 18.2561 40.4334 17.7294 40.4334ZM6.47803 39.3194C6.7312 39.426 6.87836 39.7049 7.04682 40.049L7.05497 40.0665C7.22055 40.4218 7.36833 40.7389 7.69838 40.99L6.62615 40.9683C6.4947 40.7739 6.39003 40.5434 6.28913 40.3213L6.28912 40.3212L6.28912 40.3212C6.21316 40.154 6.13934 39.9914 6.05785 39.8526C5.9315 39.6398 5.76401 39.5119 5.46872 39.5119H4.92269V40.1764C4.92269 40.4766 5.0287 40.8641 5.19571 40.9905H3.8916C4.06103 40.8641 4.16511 40.4771 4.16511 40.1764V38.1173C4.16511 37.7737 4.06103 37.4098 3.8916 37.3017H5.72238C6.18467 37.3017 6.49932 37.3017 6.7312 37.3896C7.10975 37.5377 7.31984 37.9025 7.31984 38.3962C7.29854 38.8677 7.02503 39.2118 6.47803 39.3194ZM5.76222 38.9327C6.22452 38.9327 6.51932 38.7817 6.51932 38.4164C6.51932 38.0323 6.22403 37.9029 5.76222 37.9029H4.9209V38.9327H5.76222ZM9.84311 41.0776C10.3475 41.0776 10.7687 40.928 11.0843 40.6476C11.4614 40.3272 11.7363 39.835 11.7363 39.1478C11.7363 38.4616 11.4614 37.9684 11.0843 37.6229C10.7687 37.3667 10.3475 37.2166 9.84311 37.2166C9.35855 37.2166 8.93837 37.3671 8.62276 37.6229C8.24421 37.9684 7.9707 38.4616 7.9707 39.1478C7.9707 39.835 8.24421 40.3272 8.62276 40.6476C8.93837 40.9275 9.35807 41.0776 9.84311 41.0776ZM9.08467 40.1126C8.87554 39.92 8.76953 39.5991 8.76953 39.1479C8.76953 38.6977 8.87554 38.3768 9.08467 38.1611C9.27346 37.9685 9.52663 37.8609 9.86355 37.8609C10.1787 37.8609 10.4319 37.9685 10.6216 38.1611C10.8317 38.3773 10.9367 38.6977 10.9367 39.1479C10.9367 39.5996 10.8317 39.92 10.6216 40.1126C10.4314 40.3071 10.1782 40.4335 9.86355 40.4335C9.52663 40.4335 9.27346 40.3066 9.08467 40.1126ZM14.5532 37.3017C14.6384 37.3664 14.6801 37.4296 14.6588 37.518C14.6588 37.6029 14.6157 37.7312 14.5319 37.8601L13.8179 38.9111L13.1015 37.8384L13.0989 37.8343C13.016 37.7064 12.9342 37.58 12.9548 37.4735C12.9751 37.4103 12.9974 37.3452 13.0811 37.3017H11.6299C11.8733 37.4057 11.9972 37.5877 12.1755 37.8495L12.1972 37.8813L13.3745 39.5771V40.1769C13.3745 40.4775 13.2704 40.8646 13.1015 40.9693H14.4065C14.2381 40.8646 14.1335 40.4775 14.1335 40.1769V39.5771L15.2058 38.0324C15.2441 37.9834 15.2858 37.9254 15.3303 37.8635L15.3304 37.8635C15.4808 37.6542 15.6634 37.4004 15.8568 37.3017H14.5532ZM20.6112 40.3902H21.5382C22 40.3902 22.3989 40.3699 22.6094 40.0895L22.4836 40.9905H19.5801C19.7485 40.8641 19.855 40.4983 19.855 40.1764V38.1173C19.855 37.8181 19.7485 37.4296 19.5801 37.3017H22.4618V38.1178C22.2735 37.9247 21.894 37.903 21.4312 37.903H20.6112V38.8252H22.0837L22 39.3831H20.6112V40.3902Z" fill="black"></path><path fill-rule="evenodd" clip-rule="evenodd" d="M192.697 16.9467C192.697 18.4041 191.549 19.4694 190.205 19.4694C188.847 19.4694 187.699 18.4036 187.699 16.9467C187.699 15.5022 188.847 14.4374 190.205 14.4374C191.549 14.4374 192.697 15.5022 192.697 16.9467ZM190.205 14.8571C189.076 14.8571 188.195 15.7551 188.195 16.9468C188.195 18.1578 189.076 19.0499 190.205 19.0499C191.321 19.0499 192.202 18.1578 192.202 16.9468C192.202 15.7556 191.321 14.8571 190.205 14.8571ZM189.681 17.1461H190.177L190.928 18.404H191.41L190.601 17.1264C191.019 17.0736 191.339 16.847 191.339 16.3276C191.339 15.7549 191.006 15.5022 190.334 15.5022H189.251V18.4035H189.681V17.1461ZM189.682 15.8749V16.7734H190.197C190.563 16.7734 190.889 16.7467 190.889 16.301C190.889 15.9411 190.569 15.8749 190.269 15.8749H189.682Z" fill="black"></path></svg> 