<?xml version="1.0" encoding="UTF-8"?> <svg xmlns="http://www.w3.org/2000/svg" width="184" height="48" viewBox="0 0 184 48" fill="none"><path d="M165.086 47.4501H183.336V28.8428H165.086V47.4501Z" fill="black"></path><path d="M137.68 47.45H146.566V28.8448H137.68V47.45Z" fill="black"></path><path d="M110.336 47.45H119.222V28.8448H110.336V47.45Z" fill="black"></path><path d="M83.0547 47.45H91.6086V28.8448H83.0547V47.45Z" fill="black"></path><path d="M60.0098 47.45H64.5566V28.8448H60.0098V47.45Z" fill="black"></path><path d="M37.4609 47.45H41.8832V28.8448H37.4609V47.45Z" fill="black"></path><path d="M5.30219 29.2344C3.86962 29.2344 2.45782 29.0756 1.19137 28.8787L1.29515 24.7308C2.52013 25.0484 4.03571 25.3236 5.53056 25.3236C7.46144 25.3236 8.72789 24.5339 8.72789 23.2317C8.72789 19.7571 0.796875 21.7305 0.796875 15.0587C0.796875 11.6222 3.59971 8.77863 9.12238 8.77863C10.2643 8.77863 11.5307 8.93743 12.7142 9.13434L12.5481 13.1234C11.4477 12.808 10.1605 12.6089 8.91475 12.6089C6.94236 12.6089 6.0081 13.3987 6.0081 14.6225C6.0081 17.8218 14.0637 16.399 14.0637 22.7574C14.0637 26.6279 10.6587 29.2344 5.30219 29.2344Z" fill="black"></path><path d="M39.9114 28.8387H34.5757L31.8143 20.1131C31.3991 18.7707 31.0877 17.3881 30.7347 15.7302H30.714C30.3195 17.5468 29.9043 19.046 29.406 20.6657L26.9976 28.8387H21.9317L16.0977 9.21509H21.475L23.5096 16.6385C23.9871 18.5717 24.5269 20.5471 25.0045 22.5608H25.0252C25.4197 20.3884 25.8765 18.6119 26.4163 16.8735L28.7208 9.21509H33.4338L35.7591 16.6385C36.465 18.8871 36.9217 20.6255 37.2955 22.5608H37.3785C37.7522 20.5471 38.1467 18.8088 38.728 16.8735L40.8665 9.21509H45.8909L39.9114 28.8387Z" fill="black"></path><path fill-rule="evenodd" clip-rule="evenodd" d="M48.7363 3.60607C48.7363 5.30421 50.1274 6.68684 51.8714 6.68684C53.6361 6.68684 55.0687 5.30421 55.0687 3.60607C55.0687 1.91009 53.6361 0.567688 51.8714 0.567688C50.1274 0.567688 48.7363 1.95032 48.7363 3.60607ZM49.3174 28.8386H54.4248V9.21285H49.3174V28.8386Z" fill="black"></path><path d="M64.0561 29.2323C62.6235 29.2323 61.274 29.0671 60.0075 28.8702L60.0698 24.7308C61.2948 25.0484 62.7896 25.3236 64.2845 25.3236C66.2361 25.3236 67.4818 24.5339 67.4818 23.2317C67.4818 19.7571 59.5508 21.7305 59.5508 15.0587C59.5508 11.6222 62.3536 8.77863 67.8763 8.77863C69.0182 8.77863 70.2846 8.93743 71.468 9.13434L71.3227 13.1234C70.2224 12.808 68.9143 12.6089 67.6894 12.6089C65.717 12.6089 64.762 13.3987 64.762 14.6225C64.762 17.8218 72.8176 16.399 72.8176 22.7574C72.8176 26.6279 69.4334 29.2323 64.0561 29.2323Z" fill="black"></path><path d="M81.5392 29.2344C80.1274 29.2344 78.7156 29.0756 77.4492 28.8787L77.553 24.7308C78.7779 25.0484 80.2935 25.3236 81.7884 25.3236C83.7193 25.3236 84.9857 24.5339 84.9857 23.2317C84.9857 19.7571 77.0547 21.7305 77.0547 15.0587C77.0547 11.6222 79.8575 8.77863 85.3802 8.77863C86.5221 8.77863 87.7885 8.93743 88.972 9.13434L88.8059 13.1234C87.7055 12.808 86.3975 12.6089 85.1726 12.6089C83.2002 12.6089 82.2659 13.3987 82.2659 14.6225C82.2659 17.8218 90.3215 16.399 90.3215 22.7574C90.3215 26.6279 86.9165 29.2344 81.5392 29.2344Z" fill="black"></path><path d="M103.092 29.1944C97.5898 29.1944 94.1641 26.3508 94.1641 19.6769C94.1641 13.5577 97.3822 8.85931 104.42 8.85931C105.77 8.85931 107.202 9.05625 108.469 9.41196L107.95 13.7949C106.891 13.3989 105.645 13.0834 104.379 13.0834C101.14 13.0834 99.4999 15.4528 99.4999 19.1645C99.4999 22.5205 100.829 24.8115 104.213 24.8115C105.562 24.8115 107.036 24.5341 108.116 23.9815L108.51 28.286C107.161 28.7984 105.209 29.1944 103.092 29.1944Z" fill="black"></path><path fill-rule="evenodd" clip-rule="evenodd" d="M111.582 19.3613C111.582 26.3507 115.215 29.2345 120.842 29.2345C126.78 29.2345 130.974 24.8113 130.974 18.6499C130.974 11.8976 127.34 8.81897 121.714 8.81897C115.693 8.81897 111.582 13.2421 111.582 19.3613ZM116.854 18.8489C116.854 14.8217 119.076 13.0833 121.36 13.0833C124.35 13.0833 125.699 15.1372 125.699 18.9272C125.699 22.9163 123.789 24.9278 121.277 24.9278C118.329 24.9278 116.854 22.8761 116.854 18.8489Z" fill="black"></path><path d="M159.833 28.8384V16.399C159.833 14.307 159.355 13.0049 157.445 13.0049C155.161 13.0049 152.794 15.6113 152.794 19.4395V28.8384H147.687V16.399C147.687 14.4658 147.272 13.0049 145.279 13.0049C142.891 13.0049 140.649 15.768 140.649 19.4395V28.8384H135.438V9.21483H140.358C140.358 10.121 140.275 11.582 140.067 12.7275H140.15C141.375 10.3201 143.825 8.77863 146.815 8.77863C150.407 8.77863 151.902 10.8325 152.4 12.7275C153.334 10.7944 155.576 8.77863 158.981 8.77863C162.885 8.77863 165.044 10.8727 165.044 15.3339V28.8384H159.833Z" fill="black"></path></svg> 