<?xml version="1.0" encoding="UTF-8"?> <svg xmlns="http://www.w3.org/2000/svg" width="212" height="47" viewBox="0 0 212 47" fill="none"><path fill-rule="evenodd" clip-rule="evenodd" d="M3.80415 1.60754C2.95427 1.60754 2.25892 2.3235 2.25892 3.21507V43.5656C2.25892 44.4571 2.95427 45.1731 3.80415 45.1731H27.8582C28.7081 45.1731 29.4035 44.4571 29.4035 43.5656V3.21507C29.4035 2.3235 28.7081 1.60754 27.8582 1.60754H3.80415ZM27.8582 46.7806H3.80415C2.10439 46.7806 0.726562 45.3352 0.726562 43.5656V3.21507C0.726562 1.44543 2.10439 0 3.80415 0H27.8582C29.558 0 30.9358 1.44543 30.9358 3.21507V43.5656C30.9487 45.3352 29.558 46.7806 27.8582 46.7806Z" fill="#333333"></path><path fill-rule="evenodd" clip-rule="evenodd" d="M6.4972 34.5287H16.3094C16.5283 34.5287 16.7344 34.6232 16.876 34.7853L21.1254 39.5674V35.3257C21.1254 34.8799 21.4731 34.5287 21.898 34.5287H25.1688V8.83496H6.4972V34.5287ZM21.898 42.4313C21.692 42.4313 21.486 42.3367 21.3314 42.1746L15.9746 36.1362H5.73746C5.31252 36.1362 4.96484 35.7715 4.96484 35.3392V8.02444C4.96484 7.57865 5.31252 7.22742 5.73746 7.22742H25.9414C26.3663 7.22742 26.714 7.59215 26.714 8.02444V35.3257C26.714 35.7715 26.3663 36.1227 25.9414 36.1227H22.6706V41.6073C22.6706 41.9315 22.4775 42.2287 22.1813 42.3502C22.0912 42.4043 21.9882 42.4313 21.898 42.4313Z" fill="#333333"></path><path fill-rule="evenodd" clip-rule="evenodd" d="M19.0116 5.10624H12.6632C12.2383 5.10624 11.8906 4.74159 11.8906 4.30941C11.8906 3.87723 12.2383 3.51257 12.6632 3.51257H19.0116C19.4365 3.51257 19.7842 3.87723 19.7842 4.30941C19.7842 4.74159 19.4365 5.10624 19.0116 5.10624Z" fill="#333333"></path><path fill-rule="evenodd" clip-rule="evenodd" d="M46.6592 22.0461H45.6162C45.3072 22.0461 45.0625 21.7624 45.0625 21.4382V19.2903C45.0625 18.9391 45.3072 18.6824 45.6162 18.6824H46.6592V15.1161C46.6592 14.7919 46.9425 14.5082 47.2387 14.5082L49.7625 14.4812C50.0716 14.4812 50.3162 14.7649 50.3162 15.0891V18.6824H53.0204C53.3552 18.6824 53.5998 18.9391 53.5998 19.2903V21.4382C53.5998 21.7624 53.3552 22.0461 53.0204 22.0461H50.3162V27.1794C50.3162 28.0844 50.7798 28.206 51.2691 28.206C51.7971 28.206 52.4409 27.9764 52.7757 27.8548C53.1105 27.7197 53.3552 27.8818 53.4582 28.206L54.0763 30.2323C54.2051 30.5565 54.0505 30.8807 53.7415 31.0023C53.587 31.0969 51.5911 31.8399 50.0716 31.8399C47.7023 31.8399 46.6592 30.2999 46.6592 27.6927V22.0461Z" fill="black"></path><path fill-rule="evenodd" clip-rule="evenodd" d="M56.6387 9.65933C56.6387 9.33513 56.922 9.05145 57.2181 9.05145H59.8322C60.1412 9.05145 60.4116 9.33513 60.4116 9.65933V19.426C61.0297 18.9397 62.2273 18.3723 63.6695 18.3723C67.5841 18.3723 69.1808 21.5198 69.1808 24.7618V30.9352C69.1808 31.2594 68.8975 31.5431 68.6013 31.5431H66.1032C65.7684 31.5431 65.5237 31.2594 65.5237 30.9352V24.7213C65.5237 22.9517 64.5709 21.8305 63.09 21.8305C61.6735 21.8305 60.7207 22.7896 60.4116 24.1134V30.9217C60.4116 31.2729 60.2313 31.5295 59.7678 31.5295H57.2181C56.9091 31.5295 56.6387 31.2459 56.6387 30.9217V9.65933Z" fill="black"></path><path fill-rule="evenodd" clip-rule="evenodd" d="M80.1638 23.5055C80.0737 22.3168 79.0822 21.3172 77.9104 21.3172C76.6742 21.3172 75.6569 22.2762 75.5024 23.5055H80.1638ZM78.0005 18.3589C81.1682 18.3589 83.7565 20.8579 83.7565 24.3295C83.7565 24.5591 83.7307 24.9779 83.6921 25.194C83.6663 25.5182 83.383 25.7343 83.1126 25.7343H75.232C75.3221 27.0446 76.4038 28.5305 78.1937 28.5305C79.1466 28.5305 80.0479 28.1388 80.6016 27.7335C80.9107 27.5444 81.1811 27.4769 81.4 27.7335L82.6619 29.2464C82.8808 29.4761 82.9452 29.8273 82.6362 30.0839C81.6189 31.0835 80.0479 31.8535 78.052 31.8535C74.3564 31.8535 71.7424 28.8006 71.7424 25.1129C71.7166 21.4793 74.3435 18.3589 78.0005 18.3589Z" fill="black"></path><path fill-rule="evenodd" clip-rule="evenodd" d="M91.7023 28.3819C93.3376 28.3819 94.664 26.9095 94.664 25.0724C94.664 23.2758 93.3376 21.8305 91.7023 21.8305C90.0411 21.8305 88.7406 23.2758 88.7406 25.0724C88.7535 26.9095 90.0411 28.3819 91.7023 28.3819ZM91.7023 18.3589C95.179 18.3589 98.012 21.4387 98.012 25.0724C98.012 28.7601 95.179 31.8535 91.7023 31.8535C88.2255 31.8535 85.3926 28.7736 85.3926 25.0724C85.3926 21.4387 88.2255 18.3589 91.7023 18.3589Z" fill="black"></path><path fill-rule="evenodd" clip-rule="evenodd" d="M100.756 19.2904C100.756 18.9392 101.039 18.6825 101.335 18.6825H102.507C102.79 18.6825 102.971 18.8446 103.061 19.1013L103.486 20.3576C103.911 19.7092 105.057 18.3718 106.963 18.3718C108.405 18.3718 109.705 18.8581 109.332 19.6552L108.199 21.749C108.044 22.0327 107.735 22.1678 107.491 22.0327C107.4 22.0057 106.937 21.8436 106.602 21.8436C105.366 21.8436 104.632 22.7081 104.413 23.1539V30.9214C104.413 31.3672 104.13 31.5293 103.705 31.5293H101.335C101.026 31.5293 100.756 31.2456 100.756 30.9214V19.2904Z" fill="black"></path><path fill-rule="evenodd" clip-rule="evenodd" d="M118.68 23.5055C118.59 22.3168 117.599 21.3172 116.427 21.3172C115.191 21.3172 114.173 22.2762 114.019 23.5055H118.68ZM116.53 18.3589C119.698 18.3589 122.286 20.8579 122.286 24.3295C122.286 24.5591 122.26 24.9779 122.221 25.194C122.196 25.5182 121.912 25.7343 121.642 25.7343H113.761C113.851 27.0446 114.933 28.5305 116.723 28.5305C117.676 28.5305 118.564 28.1388 119.131 27.7335C119.44 27.5444 119.71 27.4769 119.929 27.7335L121.191 29.2464C121.41 29.4761 121.475 29.8273 121.166 30.0839C120.148 31.0835 118.577 31.8535 116.581 31.8535C112.886 31.8535 110.272 28.8006 110.272 25.1129C110.246 21.4793 112.86 18.3589 116.53 18.3589Z" fill="black"></path><path fill-rule="evenodd" clip-rule="evenodd" d="M124.873 19.2909C124.873 18.9397 125.156 18.6831 125.453 18.6831H126.586C126.869 18.6831 127.049 18.8452 127.114 19.0343L127.539 20.25C128.067 19.6422 129.483 18.3589 131.659 18.3589C133.41 18.3589 134.647 19.0613 135.664 20.3446C136.192 19.7637 137.789 18.3589 140.003 18.3589C143.944 18.3589 145.386 21.4117 145.386 24.7888V30.9214C145.386 31.2456 145.141 31.5293 144.807 31.5293H142.308C141.974 31.5293 141.729 31.2456 141.729 30.9214V24.5591C141.729 22.8841 140.956 21.8305 139.424 21.8305C137.634 21.8305 136.836 23.1813 136.836 23.1813C136.836 23.1813 136.861 23.8297 136.861 24.397V30.9214C136.861 31.2456 136.578 31.5293 136.282 31.5293H133.977C133.642 31.5293 133.398 31.2456 133.398 30.9214V24.5591C133.398 22.8841 132.689 21.8305 131.118 21.8305C129.573 21.8305 128.839 22.9922 128.53 23.8567V30.9214C128.53 31.2456 128.247 31.5293 127.951 31.5293H125.453C125.143 31.5293 124.873 31.2456 124.873 30.9214V19.2909Z" fill="black"></path><path fill-rule="evenodd" clip-rule="evenodd" d="M148.863 19.2904C148.863 18.9392 149.147 18.6825 149.443 18.6825H150.615C150.898 18.6825 151.078 18.8446 151.168 19.1013L151.593 20.3576C152.018 19.7092 153.164 18.3718 155.07 18.3718C156.512 18.3718 157.813 18.8581 157.439 19.6552L156.306 21.749C156.152 22.0327 155.843 22.1678 155.598 22.0327C155.508 22.0057 155.044 21.8436 154.709 21.8436C153.473 21.8436 152.739 22.7081 152.52 23.1539V30.9214C152.52 31.3672 152.237 31.5293 151.812 31.5293H149.443C149.134 31.5293 148.863 31.2456 148.863 30.9214V19.2904Z" fill="#333333"></path><path fill-rule="evenodd" clip-rule="evenodd" d="M166.789 23.5055C166.699 22.3168 165.707 21.3172 164.535 21.3172C163.299 21.3172 162.282 22.2762 162.127 23.5055H166.789ZM164.626 18.3589C167.793 18.3589 170.382 20.8579 170.382 24.3295C170.382 24.5591 170.356 24.9779 170.317 25.194C170.291 25.5182 170.008 25.7343 169.738 25.7343H161.857C161.947 27.0446 163.029 28.5305 164.819 28.5305C165.772 28.5305 166.66 28.1388 167.227 27.7335C167.536 27.5444 167.806 27.4769 168.025 27.7335L169.287 29.2464C169.506 29.4761 169.57 29.8273 169.261 30.0839C168.244 31.0835 166.673 31.8535 164.677 31.8535C160.981 31.8535 158.367 28.8006 158.367 25.1129C158.342 21.4793 160.969 18.3589 164.626 18.3589Z" fill="#333333"></path><path fill-rule="evenodd" clip-rule="evenodd" d="M177.065 29.1246C178.056 29.1246 179.009 28.2601 179.189 27.8683V26.0987C179.189 26.0987 178.352 25.7069 177.464 25.7069C176.266 25.7069 175.468 26.4094 175.468 27.436C175.468 28.4087 176.112 29.1246 177.065 29.1246ZM177.013 23.3969C178.249 23.3969 179.267 23.7482 179.267 23.7482C179.292 22.1136 178.803 21.5327 177.67 21.5327C176.537 21.5327 174.927 21.7894 174.219 22.019C173.794 22.1541 173.575 21.8569 173.511 21.4382L173.227 19.7631C173.137 19.2768 173.382 19.0606 173.652 18.9526C173.897 18.858 175.867 18.3447 177.837 18.3447C181.687 18.3447 182.576 20.4385 182.576 23.9373V30.9078C182.576 31.232 182.293 31.5157 181.996 31.5157H180.889C180.67 31.5157 180.516 31.4211 180.361 31.0699L179.988 30.2053C179.279 30.8808 178.146 31.8399 176.228 31.8399C173.768 31.8399 172.068 30.1648 172.068 27.436C172.081 25.1666 173.871 23.3969 177.013 23.3969Z" fill="#333333"></path><path fill-rule="evenodd" clip-rule="evenodd" d="M191.732 18.3589C193.638 18.3589 195.119 19.1558 196.29 20.6417C196.509 20.9254 196.445 21.3171 196.136 21.5467L194.72 22.965C194.436 23.2217 194.166 23.0596 193.947 22.8705C193.458 22.2896 192.685 21.8439 191.822 21.8439C190.161 21.8439 188.809 23.3162 188.809 25.1263C188.809 26.9633 190.135 28.4086 191.796 28.4086C193.123 28.4086 193.702 27.7332 194.256 27.1929C194.475 26.9633 194.784 26.9093 195.029 27.0984L196.355 28.2871C196.664 28.5437 196.78 28.8679 196.574 29.1921C195.531 30.894 193.895 31.8936 191.706 31.8936C188.23 31.8936 185.178 29.003 185.178 25.1533C185.165 21.3171 188.281 18.3589 191.732 18.3589Z" fill="#333333"></path><path fill-rule="evenodd" clip-rule="evenodd" d="M199.238 9.65933C199.238 9.33513 199.522 9.05145 199.818 9.05145H202.432C202.741 9.05145 203.011 9.33513 203.011 9.65933V19.426C203.629 18.9397 204.827 18.3723 206.269 18.3723C210.184 18.3723 211.78 21.5198 211.78 24.7618V30.9352C211.78 31.2594 211.497 31.5431 211.201 31.5431H208.703C208.368 31.5431 208.123 31.2594 208.123 30.9352V24.7213C208.123 22.9517 207.17 21.8305 205.69 21.8305C204.273 21.8305 203.32 22.7896 203.011 24.1134V30.9217C203.011 31.2729 202.831 31.5295 202.367 31.5295H199.818C199.509 31.5295 199.238 31.2459 199.238 30.9217V9.65933Z" fill="#333333"></path></svg> 